<svg xmlns="http://www.w3.org/2000/svg" width="42.852" height="42.852" viewBox="0 0 42.852 42.852"><path d="M0,0H42.852V42.852H0Z" fill="none"/><path d="M27.783,15.713a5.357,5.357,0,1,0-5.357-5.357A5.334,5.334,0,0,0,27.783,15.713Zm-14.284,0a5.357,5.357,0,1,0-5.357-5.357A5.334,5.334,0,0,0,13.5,15.713Zm0,3.571c-4.16,0-12.5,2.089-12.5,6.249V30H26V25.533C26,21.373,17.659,19.284,13.5,19.284Zm14.284,0c-.518,0-1.107.036-1.732.089a7.535,7.535,0,0,1,3.517,6.16V30H40.281V25.533C40.281,21.373,31.943,19.284,27.783,19.284Z" transform="translate(0.786 3.928)" fill="#2687ff"/></svg>