<svg id="baseline-lock-24px" xmlns="http://www.w3.org/2000/svg" width="19.75" height="19.75" viewBox="0 0 19.75 19.75">
  <path id="Path_1803" data-name="Path 1803" d="M0,0H19.75V19.75H0Z" fill="none"/>
  <path id="Path_1804" data-name="Path 1804" d="M15.521,6.76H14.7V5.115a4.115,4.115,0,1,0-8.229,0V6.76H5.646A1.651,1.651,0,0,0,4,8.406v8.229a1.651,1.651,0,0,0,1.646,1.646h9.875a1.651,1.651,0,0,0,1.646-1.646V8.406A1.651,1.651,0,0,0,15.521,6.76Zm-4.937,7.406a1.646,1.646,0,1,1,1.646-1.646A1.651,1.651,0,0,1,10.583,14.167ZM13.134,6.76h-5.1V5.115a2.551,2.551,0,0,1,5.1,0Z" transform="translate(-0.708 -0.177)" fill="#75788f"/>
</svg>
