<?xml version="1.0" encoding="utf-8"?>
<!-- Generator: Adobe Illustrator 23.0.5, SVG Export Plug-In . SVG Version: 6.00 Build 0)  -->
<svg version="1.1" id="Layer_1" xmlns="http://www.w3.org/2000/svg" xmlns:xlink="http://www.w3.org/1999/xlink" x="0px" y="0px"
	 viewBox="0 0 24 24" style="enable-background:new 0 0 24 24;" xml:space="preserve">
<style type="text/css">
	.st0{fill:#FFFFFF;}
	.st1{fill:none;}
</style>
<path class="st0" d="M13.2,8.5c-0.3,0-0.5-0.1-0.7-0.2c-0.2-0.1-0.3-0.3-0.3-0.6c0-0.3,0.2-0.6,0.5-0.8c0.3-0.2,0.7-0.4,1.1-0.3
	c0.6,0,0.9,0.3,0.9,0.7c0,0.3-0.2,0.6-0.5,0.8C13.9,8.3,13.6,8.5,13.2,8.5z M10.8,17.5c-0.5,0-1-0.2-1.3-0.5
	c-0.3-0.4-0.5-0.8-0.5-1.3c0-0.7,0.2-1.5,0.4-2.2c0.3-0.9,0.7-1.7,1.1-2.4c0.5-0.7,0.9-1,1.4-1c0.2,0,0.3,0,0.4,0.1
	c0.1,0.1,0.2,0.3,0.2,0.4c0,0.2-0.1,0.3-0.2,0.5c-0.1,0.2-0.3,0.5-0.5,0.9c-0.4,0.6-0.7,1.2-1,1.9c-0.2,0.5-0.4,1-0.4,1.5
	c0,0.3,0,0.6,0.2,0.8c0.2,0.2,0.4,0.2,0.7,0.2c1,0,2.1-1,3.1-3.1l0.3,0.3c-0.4,1-1,2-1.8,2.7C12.5,17.1,11.7,17.5,10.8,17.5
	L10.8,17.5z M12,2C6.5,2,2,6.5,2,12s4.5,10,10,10s10-4.5,10-10S17.5,2,12,2z M12,19.9c-4.3,0-7.9-3.5-7.9-7.9S7.7,4.1,12,4.1
	s7.9,3.5,7.9,7.9S16.3,19.9,12,19.9C12,19.9,12,19.9,12,19.9z"/>
<path class="st1" d="M0,0h24v24H0V0z"/>
</svg>
