<?xml version="1.0" encoding="utf-8"?>
<!-- Generator: Adobe Illustrator 23.0.5, SVG Export Plug-In . SVG Version: 6.00 Build 0)  -->
<svg version="1.1" id="Layer_1" xmlns="http://www.w3.org/2000/svg" xmlns:xlink="http://www.w3.org/1999/xlink" x="0px" y="0px"
	 viewBox="0 0 24 24" style="enable-background:new 0 0 24 24;" xml:space="preserve">
<style type="text/css">
	.st0{fill:none;}
	.st1{fill:#FFFFFF;}
</style>
<path class="st0" d="M0,0h24v24H0V0z"/>
<g>
	<path class="st1" d="M22.2,12c0,4-3.1,7.4-7.1,7.8c-0.2,0-0.5,0-0.7,0H8.5c-1,0-1.8-0.8-1.8-1.8V6.3H7c1,0,1.8,0.8,1.8,1.8v9.6h5.6
		c3.2,0,5.7-2.6,5.7-5.7s-2.6-5.7-5.7-5.7H1.8V6c0-1,0.8-1.8,1.8-1.8h10.8c0.2,0,0.5,0,0.7,0C19.1,4.6,22.2,8,22.2,12z"/>
</g>
</svg>
