<?xml version="1.0" encoding="utf-8"?>
<!-- Generator: Adobe Illustrator 23.0.5, SVG Export Plug-In . SVG Version: 6.00 Build 0)  -->
<svg version="1.1" id="Layer_1" xmlns="http://www.w3.org/2000/svg" xmlns:xlink="http://www.w3.org/1999/xlink" x="0px" y="0px"
	 viewBox="0 0 901 628.1" style="enable-background:new 0 0 901 628.1;" xml:space="preserve">
<style type="text/css">
	.st0{opacity:0.44;fill:#FFFFFF;enable-background:new    ;}
	.st1{fill:#606161;}
	.st2{fill:url(#SVGID_1_);}
	.st3{fill:url(#SVGID_2_);}
	.st4{fill:#78B2F7;}
	.st5{fill:url(#SVGID_3_);}
	.st6{opacity:0.24;fill:#78B2F7;enable-background:new    ;}
	.st7{opacity:0.5;fill:#78B2F7;enable-background:new    ;}
	.st8{fill:#FFFFFF;}
	.st9{opacity:0.45;fill:url(#SVGID_4_);enable-background:new    ;}
	.st10{opacity:0.45;fill:url(#SVGID_5_);enable-background:new    ;}
	.st11{fill:url(#SVGID_6_);}
	.st12{fill:url(#SVGID_7_);}
	.st13{fill:url(#SVGID_8_);}
	.st14{fill:url(#SVGID_9_);}
	.st15{fill:url(#SVGID_10_);}
	.st16{fill:url(#SVGID_11_);}
	.st17{fill:url(#SVGID_12_);}
	.st18{fill:url(#SVGID_13_);}
	.st19{fill:url(#SVGID_14_);}
	.st20{fill:url(#SVGID_15_);}
	.st21{fill:url(#SVGID_16_);}
	.st22{fill:url(#SVGID_17_);}
	.st23{fill:url(#SVGID_18_);}
	.st24{fill:url(#SVGID_19_);}
	.st25{fill:url(#SVGID_20_);}
	.st26{fill:url(#SVGID_21_);}
	.st27{fill:url(#SVGID_22_);}
	.st28{fill:url(#SVGID_23_);}
	.st29{fill:url(#SVGID_24_);}
	.st30{fill:url(#SVGID_25_);}
	.st31{fill:url(#SVGID_26_);}
	.st32{fill:url(#SVGID_27_);}
	.st33{fill:url(#SVGID_28_);}
	.st34{fill:url(#SVGID_29_);}
	.st35{fill:url(#SVGID_30_);}
	.st36{fill:url(#SVGID_31_);}
	.st37{fill:url(#SVGID_32_);}
	.st38{fill:url(#SVGID_33_);}
	.st39{fill:url(#SVGID_34_);}
	.st40{fill:url(#SVGID_35_);}
	.st41{fill:url(#SVGID_36_);}
	.st42{fill:url(#SVGID_37_);}
	.st43{fill:url(#SVGID_38_);}
	.st44{fill:url(#SVGID_39_);}
	.st45{fill:url(#SVGID_40_);}
	.st46{fill:url(#SVGID_41_);}
	.st47{fill:url(#SVGID_42_);}
	.st48{fill:url(#SVGID_43_);}
	.st49{fill:url(#SVGID_44_);}
	.st50{fill:url(#SVGID_45_);}
	.st51{fill:url(#SVGID_46_);}
	.st52{fill:url(#SVGID_47_);}
	.st53{fill:url(#SVGID_48_);}
	.st54{fill:url(#SVGID_49_);}
	.st55{fill:url(#SVGID_50_);}
	.st56{fill:url(#SVGID_51_);}
	.st57{fill:url(#SVGID_52_);}
	.st58{fill:url(#SVGID_53_);}
	.st59{fill:url(#SVGID_54_);}
	.st60{fill:url(#SVGID_55_);}
	.st61{fill:url(#SVGID_56_);}
	.st62{fill:url(#SVGID_57_);}
	.st63{fill:url(#SVGID_58_);}
	.st64{fill:url(#SVGID_59_);}
	.st65{fill:url(#SVGID_60_);}
	.st66{fill:url(#SVGID_61_);}
	.st67{fill:url(#SVGID_62_);}
</style>
<g transform="translate(4.508 0.02)">
	<g transform="matrix(1, 0, 0, 1, -4.51, -0.02)">
		<path class="st0" d="M878.8,266.5c-16.7,33.7-44.8,63.1-45.9,101.8c-1,31.4,16.6,60,19,91.3c0.6,7.4,0.3,14.9-0.8,22.3
			c-2.6,16.9-8.4,33.2-17.3,47.8C808,573.2,764,599,719,609.8s-91.4,8.2-137.2,5.5l-291-16.7c-39.1-2.2-78.6-4.5-116.5-15.6
			c-30.9-9.1-59.9-23.4-85.9-42.3c-17-12.2-32.2-26.6-45.4-42.8c-16.6-20.5-29.3-44.5-35-71.5C-3.9,371,16,311.2,50.2,269.8
			c7.6-9.2,16.2-18,20.8-29.6c9.7-24.3-0.3-52.5,1-79.1c1.5-30.6,19.5-59.3,44.5-70.5c18.2-8.2,38.5-7.4,58.1-6.4
			c43.2,2.1,101,17.7,140.8-4.5c42.8-23.8,74.4-49.2,125.2-42.8c23.3,2.9,45.8,11.4,69.1,13.4c65.4,5.6,125.8-40,190.9-48.9
			c59.7-8.1,123.3,18,161.2,71.5S908.4,206.6,878.8,266.5z"/>
	</g>
	<path class="st1" d="M330.7,141.2c-4,2.2-7.5,5.2-10.2,8.8c-9.5,13.6-0.9,34.2-10.3,48c-2.3,3.4-5.5,6-8.1,9.1
		c-5.9,7.1-8.7,16.4-9.3,25.6s0.6,18.4,1.9,27.6c0.3,2.5,0.8,5.1,2.4,7s4.6,2.7,7.2,3.3c23.8,5.2,48.2,7,72.5,5.5
		c4.2-0.3,8.6-0.7,12.1-3.1c8.3-5.5,7.4-17.6,9.7-27.2c2-8.1,6.8-15.3,9.6-23.1c3.3-9,4-18.8,4.6-28.4c0.8-13.2,0.7-28.6-9.5-37.1
		c-3.3-2.7-7.3-4.4-11.2-6.1c-10.3-4.3-21.3-7.3-31.5-11.7C350.2,134.7,340.8,135.2,330.7,141.2z"/>
	
		<linearGradient id="SVGID_1_" gradientUnits="userSpaceOnUse" x1="-2087.8579" y1="18.2038" x2="-2086.8574" y2="18.2038" gradientTransform="matrix(36.7446 0 0 86.84 77090.5391 -1357.9644)">
		<stop  offset="0.12" style="stop-color:#010101;stop-opacity:0"/>
		<stop  offset="0.67" style="stop-color:#010101;stop-opacity:0.671"/>
		<stop  offset="0.95" style="stop-color:#010101"/>
	</linearGradient>
	<path class="st2" d="M392,172c0,0,17.2,12,17.8,31.1c0.4,11.8-4.5,27.7-10.5,38c-3.8,31.8-12.3,32.6-12.3,32.6l-14-14.8L392,172z"
		/>
	
		<linearGradient id="SVGID_2_" gradientUnits="userSpaceOnUse" x1="-2089.7322" y1="31.2226" x2="-2088.7322" y2="31.2226" gradientTransform="matrix(37.9682 0 0 50.0345 79650.1641 -1330.9707)">
		<stop  offset="0.12" style="stop-color:#010101;stop-opacity:0"/>
		<stop  offset="0.67" style="stop-color:#010101;stop-opacity:0.671"/>
		<stop  offset="0.95" style="stop-color:#010101"/>
	</linearGradient>
	<path class="st3" d="M322.4,203c-3.1,3.3-5,8-6.7,12.6c-5.3,14.9-8.3,31-8.9,47.4l27.5,0.4c0.9,0.1,1.9-0.1,2.7-0.6
		c1-0.9,1.7-2.3,2-3.9c2.9-10,5.8-20.4,5.7-31.1C344.7,214.3,335,189.5,322.4,203z"/>
	<path class="st4" d="M543.6,206.6c9.6-0.2,19.2,0.5,28.8,1.2c5.8,0.4,11.7,0.9,17.2,2.6c4.5,1.5,8.8,3.6,12.8,6
		c20.2,11.5,39,25.4,55.9,41.5c3.1,2.9,7.2,5.9,11.3,6.9s9.1,0.1,11.7-3.3c1.6-2,2.1-4.5,2.8-7c2.1-7.2,6.6-14.8,14-16.5
		c7.2-1.6,14.7,3.2,18.2,9.7s3.8,14.2,3.3,21.6c-0.9,12.3-3.4,24.3-7.4,35.9c-1.8,5.1-3.9,10.3-8.1,13.7s-9.6,4.4-15,4.8
		c-30.1,2.3-58.8-12.1-85.6-26.1c-0.3,14.4,2.9,28.7,3.7,43.1s-1.4,29.9-11,40.7c-12.2,13.7-32.7,16.2-51.1,15.4
		c-15.8-0.7-31.5-3.1-46.8-7.2c-4.2-1.1-8.4-2.4-11.8-5.2c-2.6-2.3-4.6-5.3-5.9-8.5c-9.9-23.1-0.8-59.2-10.6-82.4
		c-51,10.5-100.3,12.7-148.1-7.9c-2.1-0.9-4.4-2-5.7-3.9c-1.5-2.2-1.5-5.1-1.2-7.8c0.6-7.8,2.3-15.4,4.8-22.7
		c19.3,9.1,38.9,18.4,59.9,21.7s23.4-1.1,39.8-14.7c11.9-9.9,40.1-23.1,52-33C490.9,209.1,518.7,207.1,543.6,206.6z"/>
	
		<linearGradient id="SVGID_3_" gradientUnits="userSpaceOnUse" x1="-2140.2861" y1="8.9013" x2="-2140.2192" y2="8.1964" gradientTransform="matrix(404.7695 0 0 190.4073 866819.9375 -1323.4419)">
		<stop  offset="0" style="stop-color:#FFFFFF;stop-opacity:0"/>
		<stop  offset="0.95" style="stop-color:#FFFFFF"/>
	</linearGradient>
	<path class="st5" d="M543.6,206.6c9.6-0.2,19.2,0.5,28.8,1.2c5.8,0.4,11.7,0.9,17.2,2.6c4.5,1.5,8.8,3.6,12.8,6
		c20.2,11.5,39,25.4,55.9,41.5c3.1,2.9,7.2,5.9,11.3,6.9s9.1,0.1,11.7-3.3c1.6-2,2.1-4.5,2.8-7c2.1-7.2,6.6-14.8,14-16.5
		c7.2-1.6,14.7,3.2,18.2,9.7s3.8,14.2,3.3,21.6c-0.9,12.3-3.4,24.3-7.4,35.9c-1.8,5.1-3.9,10.3-8.1,13.7s-9.6,4.4-15,4.8
		c-30.1,2.3-58.8-12.1-85.6-26.1c-0.3,14.4,2.9,28.7,3.7,43.1s-1.4,29.9-11,40.7c-12.2,13.7-32.7,16.2-51.1,15.4
		c-15.8-0.7-31.5-3.1-46.8-7.2c-4.2-1.1-8.4-2.4-11.8-5.2c-2.6-2.3-4.6-5.3-5.9-8.5c-9.9-23.1-0.8-59.2-10.6-82.4
		c-51,10.5-100.3,12.7-148.1-7.9c-2.1-0.9-4.4-2-5.7-3.9c-1.5-2.2-1.5-5.1-1.2-7.8c0.6-7.8,2.3-15.4,4.8-22.7
		c19.3,9.1,38.9,18.4,59.9,21.7s23.4-1.1,39.8-14.7c11.9-9.9,40.1-23.1,52-33C490.9,209.1,518.7,207.1,543.6,206.6z"/>
	<path class="st6" d="M850,491.6c-2.6,15.9-8.6,31-17.4,44.4c-26,40.4-70.3,64.3-115.6,74.3s-92.1,7.6-138.3,5.1l-293.3-15.5
		c-39.4-2.1-79.2-4.2-117.4-14.4c-30.8-8.3-60.1-21.6-86.6-39.3c-17-11.2-32.4-24.5-45.8-39.8c29.9-4.3,66.6,0.3,87.4-0.2l177.1-3.6
		c116.4-2.3,232.8-4.7,349.1-7.1L850,491.6z"/>
	<path class="st7" d="M156.4,512.6c22.7,20.2,59.6,7.4,87.5,19.6c-9.2,5.5-17,13.2-22.6,22.4c38.7,1.4,77.3,1.9,116,1.4
		c-4.9,3.4-8.3,8.5-9.5,14.4c112.1,3.5,224.2,2.6,336.3-2.6c7.9-0.4,16.2-0.9,22.8-5.2s10.6-13.7,6.3-20.3c-3-4.7-8.9-6.4-13.9-8.9
		s-9.9-7.5-8.4-12.9c2.9-10.2,24-7.6,23.4-18.1c-0.3-4.7-5.4-7.4-9.8-9.2l10.1-3.8l-275.9-2.1c-48.7-0.4-97.5-0.8-145.9,5.8
		C236,498,190.6,498.1,156.4,512.6z"/>
	<path class="st8" d="M749.4,380.8c8.6-5.5,18-11.2,28.1-10.5s20,11.4,15.8,20.7c-1.3,2.8-3.6,5.1-5,7.9c-2,4.3-1.4,9.2-0.8,13.9
		c3.5,24.4,8.5,50,0.3,73.3c-3.1,8.6-8,17-7.9,26.2c0,4.6,1.3,9.1,0.9,13.6s-3.2,9.4-7.7,10c-6.7,0.8-10.3-7.5-15.7-11.7
		c-8.2-6.5-20.1-2.8-30.5-3.6c-11.8-0.9-22.2-8.1-33.4-11.8c-14.1-4.7-29.9-4-43.2-10.7c-15.1-7.6-24.5-24-27.6-40.6
		s-0.9-33.8,1.9-50.6c3.8-22.4,11.2-65.4,40.4-66.6c13.8-0.6,30,7.1,42.1,12.8C711.4,355.1,749.7,380.7,749.4,380.8z"/>
	
		<linearGradient id="SVGID_4_" gradientUnits="userSpaceOnUse" x1="-2105.9016" y1="12.6703" x2="-2109.6067" y2="13.3423" gradientTransform="matrix(55.7536 0 0 123.4126 118132.9609 -1162.7148)">
		<stop  offset="0.12" style="stop-color:#010101;stop-opacity:0"/>
		<stop  offset="0.67" style="stop-color:#010101;stop-opacity:0.671"/>
		<stop  offset="0.95" style="stop-color:#010101"/>
	</linearGradient>
	<path class="st9" d="M652.5,445.5c-0.2,4.2-0.2,8.5,1.2,12.4c4.7,12.5,23.1,17.5,23.9,30.8c-16.4,6-36.6-1.9-44.6-17.4
		c-4.2-8.2-5.1-17.6-5.9-26.7c-1.7-19.2-3.8-38.4-5.1-57.7c-0.8-11.2,0.3-21,14.1-19.4C666.1,371,653.3,426.3,652.5,445.5z"/>
	<path class="st8" d="M122.7,389.8c-9.3,3.8-18.5,9.3-28.5,8.7c-6-0.3-11.9-2.9-18-2.6s-12.7,5.4-11.1,11.3c0.7,2.6,2.9,4.6,4.4,6.8
		c4.3,6.3,3.4,14.5,3.3,22.1c-0.3,14.6,2.4,29.1,7.9,42.6c4.1,10,9.8,19.5,11.6,30.1c1.7,9.5,1.4,21.5,10,25.8
		c14.4-11.8,35.3-8.4,53.8-10.5c21.9-2.5,41.8-13.3,61-24c2.1-0.9,3.9-2.4,5.3-4.1c1.3-2.2,1.9-4.8,1.8-7.4c0.2-10.6-2.6-21-6.2-31
		c-7.9-22.3-19.2-43.1-33.5-61.9c-7.4-9.6-10.7-16.2-23.1-14.8C148.2,382.5,134.9,384.8,122.7,389.8z"/>
	
		<linearGradient id="SVGID_5_" gradientUnits="userSpaceOnUse" x1="-2117.2109" y1="13.6565" x2="-2114.2" y2="13.8626" gradientTransform="matrix(72.8361 0 0 115.8673 154331.2969 -1136.7251)">
		<stop  offset="0.12" style="stop-color:#010101;stop-opacity:0"/>
		<stop  offset="0.67" style="stop-color:#010101;stop-opacity:0.671"/>
		<stop  offset="0.95" style="stop-color:#010101"/>
	</linearGradient>
	<path class="st10" d="M163.7,408.5c-1.4,3.1-2.9,6.3-2.8,9.7c0,9.5,10.6,15.3,14.7,23.9c-13,9.6-17.1,29.4-9,43.4
		c2.6,4.5,6.4,8.9,6.1,14.1c-0.2,3.2-1.9,6.6-0.4,9.4c8,0.5,15.5-3.6,22.9-6.8c12.3-5.3,25.5-8.2,38.5-11.1c-1.3-6.9-5-13-8.6-19
		c-13.2-22-26.7-44.2-43.9-63.4c-4-4.5-5.8-12.1-9.9-15.6C167.8,396.7,165.9,403.8,163.7,408.5z"/>
	<path class="st1" d="M664.2,505.7c2.5,2.9,4.9,6.4,4.4,10.3c-0.5,4.4-4.6,7.4-8.6,8.4c-5.4,1.3-10.9,0.2-16.4-0.9l-44.6-9.1
		c-1.1-0.1-2.1-0.5-2.9-1.1c-0.9-0.9-1.5-2-1.8-3.2c-2.2-7.2-1.6-18.7,3.9-24.4c4.5-4.7,12.2-3.9,17.9-3.6
		C634.7,483.1,652,491.6,664.2,505.7z"/>
	<path class="st1" d="M666.1,506.7c2.4,2.6,4.8,5.8,4.3,9.4c-0.5,4-4.5,6.7-8.4,7.6c-5.3,1.2-10.7,0.2-16-0.8l-43.7-8.3
		c-1-0.1-2-0.5-2.9-1c-0.8-0.8-1.4-1.8-1.7-2.9c-2.1-6.6-1.6-17,3.8-22.1c4.4-4.2,11.9-3.5,17.6-3.3
		C636.9,486.1,653.8,493.7,666.1,506.7z"/>
	
		<linearGradient id="SVGID_6_" gradientUnits="userSpaceOnUse" x1="-2117.0327" y1="40.3274" x2="-2116.4697" y2="38.9674" gradientTransform="matrix(73.9878 0 0 39.1313 157243.5 -1044.8718)">
		<stop  offset="0.12" style="stop-color:#010101;stop-opacity:0"/>
		<stop  offset="0.67" style="stop-color:#010101;stop-opacity:0.671"/>
		<stop  offset="0.95" style="stop-color:#010101"/>
	</linearGradient>
	<path class="st11" d="M661.1,508.7c2.4,2.6,4.8,5.8,4.3,9.4c-0.5,4-4.5,6.7-8.4,7.6c-5.3,1.2-10.7,0.2-16-0.8l-43.7-8.3
		c-1-0.1-2-0.5-2.9-1c-0.8-0.8-1.4-1.8-1.7-2.9c-2.1-6.6-1.6-17,3.8-22.1c4.4-4.2,11.9-3.5,17.6-3.3
		C631.9,488.1,648.8,495.7,661.1,508.7z"/>
	<path class="st4" d="M398.4,288.6c9.3,10.2,13.1,24.5,12.2,38.3s-5.8,26.9-12.3,39c-3.3,6.1,1.2,23.3,0.3,30.1
		c-1.1,8.4-2,8.6-3.2,16.9c-1.3,9.4-11.9,14.2-18.5,21c-8.9,9-18.5,17.4-28.6,25.2c-13.7,10.5-30.2,20.1-47.1,16.9
		c-7.1-1.4-13.6-4.9-19.8-8.6c-7.6-4.5-15.2-9.2-22.5-14c-3.9-1.8-6.3-5.9-5.9-10.2c-0.8-14.1-1.6-28.5,1.5-42.3
		c2.7-11.9,8.2-23.1,10.8-35c5.3-23.3-0.5-48.3,6.3-71.3c1.3-4.3,3.1-8.6,6.5-11.5c2.8-2.4,6.5-3.6,10.1-4.8
		c15.1-4.8,30.3-9.7,46.1-11.7C361,263.2,380.5,269,398.4,288.6z"/>
	
		<linearGradient id="SVGID_7_" gradientUnits="userSpaceOnUse" x1="-2133.8589" y1="7.9484" x2="-2133.7671" y2="7.1514" gradientTransform="matrix(182.3069 0 0 221.3423 389349.6563 -1275.0823)">
		<stop  offset="0" style="stop-color:#FFFFFF;stop-opacity:0"/>
		<stop  offset="0.95" style="stop-color:#FFFFFF"/>
	</linearGradient>
	<path class="st12" d="M407.8,304.3c2.5,13.9,28.4-13,27.6,1.4s-28.3,44.4-34.8,57.2c-3.3,6.4-0.4,28-1.3,35.2
		c-1.1,8.8-1.8,5.6-3,14.4c-1.3,9.8-11.9,11.6-18.5,18.7c-8.9,9.5-18.4,18.3-28.6,26.5c-13.7,11-30.2,21.2-47.1,17.8
		c-7.1-1.4-13.6-5.2-19.8-9c-7.7-4.7-15.2-9.6-22.5-14.8c-1.9-1.1-3.5-2.7-4.7-4.6c-0.8-1.9-1.2-4-1.2-6.1
		c-0.8-14.9-1.6-30,1.5-44.6c2.7-12.6,8.2-24.3,10.8-36.8c5.3-24.6-0.5-50.9,6.3-75c1.3-4.5,3.1-9,6.5-12c2.8-2.6,6.5-3.8,10.1-5
		c15.1-5.1,30.3-10.2,46.1-12.3C361.9,251.6,403.2,278.4,407.8,304.3z"/>
	
		<linearGradient id="SVGID_8_" gradientUnits="userSpaceOnUse" x1="-2051.3796" y1="17.2969" x2="-2055.4937" y2="17.508" gradientTransform="matrix(22.8849 0 0 90.789 47371.8867 -1228.2319)">
		<stop  offset="0.12" style="stop-color:#010101;stop-opacity:0"/>
		<stop  offset="0.67" style="stop-color:#010101;stop-opacity:0.671"/>
		<stop  offset="0.95" style="stop-color:#010101"/>
	</linearGradient>
	<path class="st13" d="M397.5,301.7c0,0,0.9,30.3,8.8,90.8c0,0,13.8-27.1,14-30.8S411.9,301.7,397.5,301.7z"/>
	<path class="st4" d="M299.9,324.2c0,0,22.4,49.8,36.6,57.8s23.2,6.2,23.2,6.2l3.4,20.4c0,0-35.3,11.1-44.7,0
		S299.9,324.2,299.9,324.2z"/>
	
		<linearGradient id="SVGID_9_" gradientUnits="userSpaceOnUse" x1="-2108.1421" y1="17.576" x2="-2109.5645" y2="18.0556" gradientTransform="matrix(57.187 0 0 89.3559 120893.1094 -1205.8469)">
		<stop  offset="0.12" style="stop-color:#010101;stop-opacity:0"/>
		<stop  offset="0.67" style="stop-color:#010101;stop-opacity:0.671"/>
		<stop  offset="0.95" style="stop-color:#010101"/>
	</linearGradient>
	<path class="st14" d="M299.9,324.2c0,0,22.4,49.8,36.6,57.8s23.2,6.2,23.2,6.2l3.4,20.4c0,0-35.3,11.1-44.7,0
		S299.9,324.2,299.9,324.2z"/>
	<path class="st4" d="M173,378.2c-1.8,3.8-3.4,7.8-3.7,12c-0.1,4.5,1,8.9,3.2,12.9c5.3,10.7,14.2,19.1,25.2,23.7
		c11.5,4.8,24.3,5.1,36.7,5.2c4,0,8.4,0,11.6-2.4c4.9-3.6,5.3-10.6,5.2-16.7c-8.6-4-16.6-9.2-23.8-15.5c-1.8-1.4-3.3-3.2-4.3-5.3
		c-1.3-3.4,0-7.2,1.3-10.7c7.3-17.7,17.8-33.8,31.1-47.5c10.5-10.8,23.5-21.7,24.6-36.7c0.4-3.6-0.3-7.2-2.1-10.3
		c-2-3.2-5.2-5.3-8.6-6.9c-11.7-5.6-19.1-7.2-27.9,2.5s-17.6,19.8-26,30.1C199.3,332.9,184.1,354.4,173,378.2z"/>
	
		<linearGradient id="SVGID_10_" gradientUnits="userSpaceOnUse" x1="-2125.6628" y1="10.4974" x2="-2126.6099" y2="10.1174" gradientTransform="matrix(111.1328 0 0 156.444 236525.0625 -1254.4546)">
		<stop  offset="0" style="stop-color:#FFFFFF;stop-opacity:0"/>
		<stop  offset="0.95" style="stop-color:#FFFFFF"/>
	</linearGradient>
	<path class="st15" d="M173,378.2c-1.8,3.8-3.4,7.8-3.7,12c-0.1,4.5,1,8.9,3.2,12.9c5.3,10.7,14.2,19.1,25.2,23.7
		c11.5,4.8,24.3,5.1,36.7,5.2c4,0,8.4,0,11.6-2.4c4.9-3.6,5.3-10.6,5.2-16.7c-8.6-4-16.6-9.2-23.8-15.5c-1.8-1.4-3.3-3.2-4.3-5.3
		c-1.3-3.4,0-7.2,1.3-10.7c7.3-17.7,17.8-33.8,31.1-47.5c10.5-10.8,23.5-21.7,24.6-36.7c0.4-3.6-0.3-7.2-2.1-10.3
		c-2-3.2-5.2-5.3-8.6-6.9c-11.7-5.6-19.1-7.2-27.9,2.5s-17.6,19.8-26,30.1C199.3,332.9,184.1,354.4,173,378.2z"/>
	<path class="st4" d="M235.5,341.2c-4.8,12.8-5.6,26.7-5.7,40.4c-0.1,15.4,1,31.6,8.8,44.9c11.1,18.7,35.8,27.9,56.4,21.2
		c6-2,11.9-5.4,15.4-10.8c4.4-6.8,4.1-15.5,3.3-23.6c-1.2-11.5-3.3-22.9-3.9-34.4c-0.7-12.9,0.4-26-2.5-38.7s-11.1-25.1-23.6-28.4
		C261,305.9,243.1,320.6,235.5,341.2z"/>
	<path class="st4" d="M312.2,426.9c0,0,56.9-28,63.7-11s-41.6,51.8-50.1,56.1s-34,6.8-34,6.8s-71.3-16.1-65.4-33.1
		S305.4,427.8,312.2,426.9z"/>
	
		<linearGradient id="SVGID_11_" gradientUnits="userSpaceOnUse" x1="-2131.3811" y1="21.9401" x2="-2131.2512" y2="23.4072" gradientTransform="matrix(150.4398 0 0 68.3185 320935.3125 -1118.9365)">
		<stop  offset="0.12" style="stop-color:#010101;stop-opacity:0"/>
		<stop  offset="0.67" style="stop-color:#010101;stop-opacity:0.671"/>
		<stop  offset="0.95" style="stop-color:#010101"/>
	</linearGradient>
	<path class="st16" d="M312.2,427.6c0,0,56.9-28,63.7-11s-41.6,51.8-50.1,56.1s-34,6.8-34,6.8s-71.3-16.1-65.4-33.1
		S305.4,428.4,312.2,427.6z"/>
	
		<linearGradient id="SVGID_12_" gradientUnits="userSpaceOnUse" x1="-2119.4749" y1="12.6155" x2="-2121.5708" y2="13.5485" gradientTransform="matrix(83.2771 0 0 124.6139 176788.0938 -1204.1002)">
		<stop  offset="0.12" style="stop-color:#010101;stop-opacity:0"/>
		<stop  offset="0.67" style="stop-color:#010101;stop-opacity:0.671"/>
		<stop  offset="0.95" style="stop-color:#010101"/>
	</linearGradient>
	<path class="st17" d="M257,325.9c0,0-44.6,30.6-45.9,76s22.5,45.2,33.1,48.4s50.1-32.7,50.1-32.7l-14.4-18.3c0,0-28.5,15-31.6,8.9
		C240.5,392.6,257,325.9,257,325.9z"/>
	<path class="st4" d="M251.8,318.4c0,0-48.6,30.6-49.9,76s22.1,38,32.7,41.2s50.6-25.5,50.6-25.5l-14.4-18.3c0,0-28.5,15-31.6,8.9
		C231.2,385.1,251.8,318.4,251.8,318.4z"/>
	
		<linearGradient id="SVGID_13_" gradientUnits="userSpaceOnUse" x1="-2070.6118" y1="48.114" x2="-2069.6118" y2="48.114" gradientTransform="matrix(27.1394 8.8718 -9.9668 30.4892 56935.5273 17210.1348)">
		<stop  offset="0" style="stop-color:#E5C6D6"/>
		<stop  offset="0.42" style="stop-color:#EAD4D0"/>
		<stop  offset="1" style="stop-color:#F0E9CB"/>
	</linearGradient>
	<path class="st18" d="M261.1,307.4c-1.2,4.4-1.7,9.6,0.7,13.5c3,5.1,9.3,6.9,15,7.4c2.2,0.2,4.8,0.2,6.5-1.3s2.2-3.7,2.5-5.8
		c0.6-3.5,1-7,1.4-10.6c0.3-1.5,0.1-3-0.2-4.4c-0.6-1.7-1.6-3.1-2.8-4.2c-3.3-3.2-11.5-9.8-16.5-8.4
		C263.6,294.7,262,304.1,261.1,307.4z"/>
	
		<linearGradient id="SVGID_14_" gradientUnits="userSpaceOnUse" x1="-2000.1079" y1="104.9581" x2="-1999.1088" y2="104.9581" gradientTransform="matrix(14.0254 4.5849 -4.543 13.8975 28777.4648 7984.9365)">
		<stop  offset="0" style="stop-color:#E5C6D6"/>
		<stop  offset="0.42" style="stop-color:#EAD4D0"/>
		<stop  offset="1" style="stop-color:#F0E9CB"/>
	</linearGradient>
	<path class="st19" d="M253.2,268c-1.2,0-2.4,0.6-3.3,1.3c-1.3,1.5-1.2,3.7-0.9,5.6c0.1,1.8,0.7,3.7,1.6,5.3
		c0.7,0.8,1.4,1.4,2.3,1.9c1.1,0.8,2.4,1.3,3.8,1.6s2.8-0.2,3.8-1.3c0.5-0.7,0.8-1.4,0.9-2.2C262.5,273.8,260.8,267.6,253.2,268z"/>
	
		<linearGradient id="SVGID_15_" gradientUnits="userSpaceOnUse" x1="-1845.219" y1="196.0612" x2="-1847.7589" y2="196.6382" gradientTransform="matrix(6.8252 2.2311 -2.4256 7.4201 13328.7275 2938.5339)">
		<stop  offset="0.12" style="stop-color:#010101;stop-opacity:0"/>
		<stop  offset="0.95" style="stop-color:#010101"/>
	</linearGradient>
	<path class="st20" d="M256,272c-0.6-0.2-1.1-0.1-1.7,0.2c-0.3,0.2-0.5,0.4-0.8,0.7c-0.5,0.7-1,1.4-1,2.2c-0.1,0.6,0.1,1.3,0.3,1.9
		c0.7,1.7,2.3,3.1,4,3.4c0.3,0.1,0.6,0.1,0.9,0c0.7-0.2,0.8-1,1-1.7c0.3-1.6,0.3-3.3,0.2-4.9C258.6,272.6,257,272.3,256,272z"/>
	
		<linearGradient id="SVGID_16_" gradientUnits="userSpaceOnUse" x1="-2081.0046" y1="28.5132" x2="-2080.0046" y2="28.5132" gradientTransform="matrix(32.8712 0 0 54.6171 68743.8516 -1313.6837)">
		<stop  offset="0" style="stop-color:#E5C6D6"/>
		<stop  offset="0.42" style="stop-color:#EAD4D0"/>
		<stop  offset="1" style="stop-color:#F0E9CB"/>
	</linearGradient>
	<path class="st21" d="M370.2,261.5c-1.2,4.6-4.8,8.9-9.5,9.4c-3.9,0.4-7.5-1.8-10.6-4.2c-2.9-2.1-5.4-4.7-7.5-7.7
		c-5.2-7.9-4.3-18.2-2.9-27.6c0.8-5.2,2.1-10.9,6.4-13.9c1-0.7,2.1-1.1,3.3-1.2c0.9,0,1.8,0.2,2.6,0.6c6,2.3,10.6,7.3,13.6,12.9
		C371,239.5,373.2,250.8,370.2,261.5z"/>
	
		<linearGradient id="SVGID_17_" gradientUnits="userSpaceOnUse" x1="-2074.1023" y1="48.3881" x2="-2072.6565" y2="46.2088" gradientTransform="matrix(29.729 0 0 32.3873 62003.7969 -1306.3564)">
		<stop  offset="0.12" style="stop-color:#010101;stop-opacity:0"/>
		<stop  offset="0.67" style="stop-color:#010101;stop-opacity:0.671"/>
		<stop  offset="0.95" style="stop-color:#010101"/>
	</linearGradient>
	<path class="st22" d="M341.9,223.6c0,0,3.7,28,15.3,31.3s14.1-2.2,14.1-2.2l0.3-20.6L341.9,223.6z"/>
	<path class="st1" d="M542.3,464.5c-4.8,0.3-9.8,0.1-14.2-1.8c-12.3-5.4-15-21.3-16.1-34.7c-0.6-8.2-1.2-16.9,2.6-24.2
		c5.2-10.1,15.7-13.2,24.8-18.5c11.3-6.6,15.7-13.5,24.6-22.5c16.1-16.4,43.9-14.4,57.6,5.3C653.4,414.2,581.2,462.5,542.3,464.5z"
		/>
	
		<linearGradient id="SVGID_18_" gradientUnits="userSpaceOnUse" x1="-2127.4146" y1="13.4989" x2="-2127.3806" y2="14.2019" gradientTransform="matrix(117.8913 0 0 112.8828 251371.1406 -1178.1976)">
		<stop  offset="0.12" style="stop-color:#010101;stop-opacity:0"/>
		<stop  offset="0.67" style="stop-color:#010101;stop-opacity:0.671"/>
		<stop  offset="0.95" style="stop-color:#010101"/>
	</linearGradient>
	<path class="st23" d="M542.3,464.5c-4.8,0.3-9.8,0.1-14.2-1.8c-12.3-5.4-15-21.3-16.1-34.7c-0.6-8.2-1.2-16.9,2.6-24.2
		c5.2-10.1,15.7-13.2,24.8-18.5c11.3-6.6,15.7-13.5,24.6-22.5c16.1-16.4,43.9-14.4,57.6,5.3C653.4,414.2,581.2,462.5,542.3,464.5z"
		/>
	
		<linearGradient id="SVGID_19_" gradientUnits="userSpaceOnUse" x1="-2109.3777" y1="23.5765" x2="-2108.3774" y2="23.5765" gradientTransform="matrix(55.8559 18.2591 -20.5652 62.9105 118563.5156 37301.9023)">
		<stop  offset="0" style="stop-color:#E5C6D6"/>
		<stop  offset="0.42" style="stop-color:#EAD4D0"/>
		<stop  offset="1" style="stop-color:#F0E9CB"/>
	</linearGradient>
	<path class="st24" d="M313.4,287.3c-1.5,3.7-3.2,7.4-4.9,11c-1.2,2.8-2.8,5.3-4.6,7.6c-5.3,6.3-14.5,8.6-22.4,6.5
		c-8-2.4-14.4-8.3-17.6-16.1c-1.8-4.6-2.8-9.3-3.3-14.2c-0.9-4.8-1.2-9.6-1.2-14.5c0.3-7.6,3.1-15.5,9.3-20c2.2-1.6,4.7-2.7,7.3-3.2
		c4.7-0.9,9.4,0.1,14.1,1.3c3.5,0.7,6.9,2,10.1,3.6c2.4,1.4,4.4,3.1,6.3,5.2c4,4.2,8.1,10.1,9.3,15.9
		C317,276,315.4,282.4,313.4,287.3z"/>
	
		<linearGradient id="SVGID_20_" gradientUnits="userSpaceOnUse" x1="-2097.7397" y1="26.4128" x2="-2096.7397" y2="26.4128" gradientTransform="matrix(44.266 0 0 59.0433 93358.0625 -1357.5516)">
		<stop  offset="0" style="stop-color:#E5C6D6"/>
		<stop  offset="0.42" style="stop-color:#EAD4D0"/>
		<stop  offset="1" style="stop-color:#F0E9CB"/>
	</linearGradient>
	<path class="st25" d="M538.7,196.2c2.4,6.1,6,12.3,4.9,18.8c-1,5.7-5.7,10.1-10.7,12.9c-4.4,2.5-9.6,4.2-14.6,3.3
		c-6.2-1-11.3-5.8-14.1-11.4s-3.8-12-4.3-18.2c-0.5-4.1-0.4-8.2,0.3-12.2c1.6-6.8,6.3-12.4,12.7-15.1c5.3-2.3,14.9-3.1,19.6,1.4
		C537.3,180.3,536.3,190.2,538.7,196.2z"/>
	
		<linearGradient id="SVGID_21_" gradientUnits="userSpaceOnUse" x1="-2076.7239" y1="50.9679" x2="-2076.4604" y2="48.8329" gradientTransform="matrix(30.993 0 0 30.789 64879.8945 -1348.3511)">
		<stop  offset="0.12" style="stop-color:#010101;stop-opacity:0"/>
		<stop  offset="0.67" style="stop-color:#010101;stop-opacity:0.671"/>
		<stop  offset="0.95" style="stop-color:#010101"/>
	</linearGradient>
	<path class="st26" d="M534.7,179c0,0,2,16.7-8.1,26.8c-4.7,4.7-14.4,6.6-14.4,6.6l-6.8-22.5L534.7,179z"/>
	
		<linearGradient id="SVGID_22_" gradientUnits="userSpaceOnUse" x1="-2088.6501" y1="26.2205" x2="-2087.6511" y2="26.2205" gradientTransform="matrix(37.0779 0 0 59.4879 78140.8047 -1344.2742)">
		<stop  offset="0" style="stop-color:#E5C6D6"/>
		<stop  offset="0.42" style="stop-color:#EAD4D0"/>
		<stop  offset="1" style="stop-color:#F0E9CB"/>
	</linearGradient>
	<path class="st27" d="M709.2,245.2c1.2,0.1,2.5,0,3.6-0.5c3.8-1.6,4.6-6.5,5.8-10.5c2.4-7.9,8-14.4,12-21.5s6.5-16.4,2.3-23.5
		c-3.7,2.1-7.2,4.6-10.2,7.7c-1.3,1.3-2.8,2.8-4.6,2.6c-1.4-0.3-2.5-1.1-3.4-2.2l-8.8-9.5c-1-1.1-2.3-2.3-3.8-1.9
		c-2,0.5-2.1,3.3-1.4,5.2c1.2,2.9,3.4,5.4,4.3,8.4c1.5,5-0.9,10-2.6,14.6c-1.6,4.3-2.6,8.7-3.8,13.1
		C696.4,234.9,700.1,244.6,709.2,245.2z"/>
	
		<linearGradient id="SVGID_23_" gradientUnits="userSpaceOnUse" x1="-2111.0767" y1="18.5023" x2="-2110.0637" y2="18.5023" gradientTransform="matrix(64.4581 0 0 84.9868 136521.5938 -1367.1847)">
		<stop  offset="0" style="stop-color:#E5C6D6"/>
		<stop  offset="0.42" style="stop-color:#EAD4D0"/>
		<stop  offset="1" style="stop-color:#F0E9CB"/>
	</linearGradient>
	<path class="st28" d="M379.2,247.2c-3.2,2.3-16.7-2.8-20.2-4.4c-3.6-1.6-6.9-3.8-9.6-6.6c-1.5-1.7-2.9-3.6-4.2-5.5
		c-1.6-2.1-2.8-4.4-3.7-6.8c-0.5-1.7-0.7-3.4-1.3-5.1c-1.5-3.8-9.6-8-9.6-12.6c0-2.3,0.2-4.7,1.6-6.6s4.3-2.7,6-1.2
		c-0.9-3-1.1-16.4,0.4-19.2c1.6-2.7,3.6-5.1,6.1-7c7.7-6.4,17.8-10.3,27.8-9.3c6.5,0.7,12.6,3.6,17.3,8.2
		C394.9,176.8,401.8,230.7,379.2,247.2z"/>
	<path class="st1" d="M319.5,234.8c-1.2-2.8-3.1-5.4-5.4-7.3c-2.9-2.1-6.5-2.6-9.8-3.7c-2.4-0.9-4.9-2.2-7.3-3.1
		c-9.4-3.4-19.8-2.1-28,3.7c-8,5.9-13.3,14.8-14.2,24.8c-0.4,4-0.2,7.9,0.4,11.8c0.8,5.9,2.8,11.7,5.8,16.8l7.3-23.9
		c3.1,2.3,7.1,3.1,10.8,2.1c3.7-0.9,7.1-2.7,9.9-5.3c0.4-0.4,1.1-0.9,1.7-0.7s0.9,1.1,1,1.9c0.7,5.7,4.1,10.7,8.4,14.4
		c4.4,3.7,9.7,6,14.9,8.1c1.2,0.5,2.6,1,3.7,0.3c0.7-0.5,1.2-1.2,1.5-2C326.1,259.3,325.8,247.4,319.5,234.8z"/>
	
		<linearGradient id="SVGID_24_" gradientUnits="userSpaceOnUse" x1="-2115.5706" y1="23.8235" x2="-2114.5706" y2="23.8235" gradientTransform="matrix(67.2147 21.9723 -20.3434 62.2318 142938.3125 45242.707)">
		<stop  offset="0.12" style="stop-color:#010101;stop-opacity:0"/>
		<stop  offset="0.67" style="stop-color:#010101;stop-opacity:0.671"/>
		<stop  offset="0.95" style="stop-color:#010101"/>
	</linearGradient>
	<path class="st29" d="M319.5,234.5c-1.2-2.8-3.1-5.4-5.4-7.3c-2.9-2.1-6.5-2.6-9.8-3.7c-2.4-0.9-4.9-2.2-7.3-3.1
		c-9.4-3.4-19.8-2.1-28,3.7c-8,5.9-13.3,14.8-14.2,24.8c-0.4,4-0.2,7.9,0.4,11.8c0.8,5.9,2.8,11.7,5.8,16.8l7.3-23.9
		c3.1,2.3,7.1,3.1,10.8,2.1c3.7-0.9,7.1-2.7,9.9-5.3c0.4-0.4,1.1-0.9,1.7-0.7c0.6,0.2,0.9,1.1,1,1.9c0.7,5.7,4.1,10.7,8.4,14.4
		c4.4,3.7,9.7,6,14.9,8.1c1.2,0.5,2.6,1,3.7,0.3c0.7-0.5,1.2-1.2,1.5-2C326.1,259,325.8,247.1,319.5,234.5z"/>
	<path class="st1" d="M454.2,458.5c-9.8,7.6-20.6,14.2-28.2,24s-11.5,23.8-5.4,34.6c7.6,13.5,25.9,15.6,41.4,16.1
		c45.5,1.4,91.4,2.5,136.1-5.9c0.8-10.4-0.5-20.9-3.9-30.8c-0.3-1.1-0.8-2.1-1.6-3c-1.6-1.5-4-1.2-6.2-1
		c-18.8,2.2-37.8-0.2-55.5-6.9L546,473c8.6-7.2,17.9-15.5,19.6-26.6c2.3-14.9-10.6-28.7-25.1-32.8c-13.6-3.9-38.9-4.3-49.2,6.1
		C478.4,432.7,469,447.2,454.2,458.5z"/>
	
		<linearGradient id="SVGID_25_" gradientUnits="userSpaceOnUse" x1="-2133.7124" y1="13.615" x2="-2133.6323" y2="12.382" gradientTransform="matrix(180.6977 0 0 123.2182 386060.625 -1118.8787)">
		<stop  offset="0.12" style="stop-color:#010101;stop-opacity:0"/>
		<stop  offset="0.67" style="stop-color:#010101;stop-opacity:0.671"/>
		<stop  offset="0.95" style="stop-color:#010101"/>
	</linearGradient>
	<path class="st30" d="M454.2,458.5c-9.8,7.6-20.6,14.2-28.2,24s-11.5,23.8-5.4,34.6c7.6,13.5,25.9,15.6,41.4,16.1
		c45.5,1.4,91.4,2.5,136.1-5.9c0.8-10.4-0.5-20.9-3.9-30.8c-0.3-1.1-0.8-2.1-1.6-3c-1.6-1.5-4-1.2-6.2-1
		c-18.8,2.2-37.8-0.2-55.5-6.9L546,473c8.6-7.2,17.9-15.5,19.6-26.6c2.3-14.9-10.6-28.7-25.1-32.8c-13.6-3.9-38.9-4.3-49.2,6.1
		C478.4,432.7,469,447.2,454.2,458.5z"/>
	
		<linearGradient id="SVGID_26_" gradientUnits="userSpaceOnUse" x1="-2125.8811" y1="27.8012" x2="-2124.8804" y2="27.8012" gradientTransform="matrix(106.129 0 0 56.046 226042.2344 -1109.6995)">
		<stop  offset="0.12" style="stop-color:#010101;stop-opacity:0"/>
		<stop  offset="0.67" style="stop-color:#010101;stop-opacity:0.671"/>
		<stop  offset="0.95" style="stop-color:#010101"/>
	</linearGradient>
	<path class="st31" d="M527,470.4c-1.7-0.8-3.2-1.9-4.4-3.3c-4.6-4.6-9.6-9-14.8-13c-1.4-1.2-3-2.1-4.8-2.7
		c-3.3-0.7-6.5,1.1-9.5,2.6c-7.8,3.9-16.4,6-25.2,6c-2.1-0.1-4.3,0-6.4,0.5c-2.2,0.8-4.3,1.9-6.2,3.3c-9.4,6.2-20,10.5-31.1,12.6
		c1.7-4.9,6.5-7.8,10.7-10.8c4.6-3.3,8.7-7.2,12.3-11.5c4-4.8,7.4-10.3,12.2-14.4c4-3.4,8.9-5.7,13.6-7.9l20.1-9.4
		c1.9-1,4-1.7,6.1-1.9c4.9-0.2,8.9,3.9,11.8,7.9c5.3,7.2,9.9,15,13.5,23.2C526.6,454.6,535.9,473.6,527,470.4z"/>
	<path class="st1" d="M613.3,494.1c-1.6-0.1-3.1,0.3-4.5,1.1c-1.2,1.1-2,2.5-2.3,4c-3.1,10.2-2.8,21.1-2.4,31.7
		c-0.1,1.7,0.3,3.4,0.9,5c0.9,1.4,2.1,2.7,3.6,3.5c11.3,7.5,24.5,11.8,38.1,12.3c3.4,0.1,7.1-0.1,9.5-2.5s2.7-6.5,2.2-10.1
		c-0.7-5.4-2.6-10.5-5.4-15.2c-2.9-4.8-6.8-8.9-10-13.4c-3-4.3-4-13.7-8.3-16.5S618.5,493.8,613.3,494.1z"/>
	
		<linearGradient id="SVGID_27_" gradientUnits="userSpaceOnUse" x1="-2107.0588" y1="26.3892" x2="-2106.0576" y2="26.3892" gradientTransform="matrix(54.8558 0 0 59.0971 116187.9531 -1042.9982)">
		<stop  offset="0.12" style="stop-color:#010101;stop-opacity:0"/>
		<stop  offset="0.67" style="stop-color:#010101;stop-opacity:0.671"/>
		<stop  offset="0.95" style="stop-color:#010101"/>
	</linearGradient>
	<path class="st32" d="M613,488.5c-1.6-0.1-3.1,0.3-4.5,1.1c-1.2,1.1-2,2.5-2.3,4c-3.1,10.2-2.8,21.1-2.4,31.7
		c-0.1,1.7,0.3,3.4,0.9,4.9c0.9,1.5,2.2,2.7,3.7,3.5c11.3,7.5,24.5,11.8,38.1,12.3c3.4,0.1,7.1-0.2,9.5-2.5s2.7-6.5,2.2-10.1
		c-0.8-5.4-2.6-10.6-5.4-15.2c-2.9-4.8-6.8-8.9-10-13.4c-3-4.3-4-13.7-8.3-16.5C630.2,485.5,618.2,488.2,613,488.5z"/>
	<path class="st1" d="M215.8,445.9c-10.8-3.4-24.1-5.6-32.1,2.3c-5,4.9-6.3,12.6-5,19.4c1.7,8.9,7.4,16.6,14.4,22.4
		s15.3,9.6,23.6,13.2c29.9,12.9,61.3,22.2,92.5,31.3c4.8,1.4,9.8,2.8,14.7,1.8c9.2-1.9,14.4-11.5,18.4-20.1c1.4-2.1,0.9-4.9-1.1-6.3
		c-0.2-0.1-0.3-0.2-0.5-0.3c-16.8-15.1-36.1-24.5-56.2-34.7C262.4,463.8,239.6,453,215.8,445.9z"/>
	
		<linearGradient id="SVGID_28_" gradientUnits="userSpaceOnUse" x1="-2133.0596" y1="16.7911" x2="-2132.0601" y2="16.7911" gradientTransform="matrix(164.942 0 0 93.9112 352009.3438 -1087.1462)">
		<stop  offset="0.12" style="stop-color:#010101;stop-opacity:0"/>
		<stop  offset="0.67" style="stop-color:#010101;stop-opacity:0.671"/>
		<stop  offset="0.95" style="stop-color:#010101"/>
	</linearGradient>
	<path class="st33" d="M215.8,445.9c-10.8-3.4-24.1-5.6-32.1,2.3c-5,4.9-6.3,12.6-5,19.4c1.7,8.9,7.4,16.6,14.4,22.4
		s15.3,9.6,23.6,13.2c29.9,12.9,61.3,22.2,92.5,31.3c4.8,1.4,9.8,2.8,14.7,1.8c9.2-1.9,14.4-11.5,18.4-20.1c1.4-2.1,0.9-4.9-1.1-6.3
		c-0.2-0.1-0.3-0.2-0.5-0.3c-16.8-15.1-36.1-24.5-56.2-34.7C262.4,463.8,239.6,453,215.8,445.9z"/>
	<path class="st4" d="M249,525.9c-2.1,1.9-4.2,4-5,6.7c-1.3,4.4,1.2,9.2,4.9,11.8s8.5,3.3,13.1,3.3c10.3,0.2,49.6-17.4,48.5-20
		c-2.5-5.8-11.8-20.5-18.9-21.2C282.1,505.5,255.6,520.1,249,525.9z"/>
	<path class="st1" d="M249,525.9c-2.1,1.9-4.2,4-5,6.7c-1.3,4.4,1.2,9.2,4.9,11.8s8.5,3.3,13.1,3.3c10.3,0.2,49.6-17.4,48.5-20
		c-2.5-5.8-11.8-20.5-18.9-21.2C282.1,505.5,255.6,520.1,249,525.9z"/>
	
		<linearGradient id="SVGID_29_" gradientUnits="userSpaceOnUse" x1="-2114.0852" y1="37.608" x2="-2113.0859" y2="37.608" gradientTransform="matrix(66.9271 0 0 41.2331 141733.2344 -1023.6167)">
		<stop  offset="0.12" style="stop-color:#010101;stop-opacity:0"/>
		<stop  offset="0.67" style="stop-color:#010101;stop-opacity:0.671"/>
		<stop  offset="0.95" style="stop-color:#010101"/>
	</linearGradient>
	<path class="st34" d="M249,525.9c-2.1,1.9-4.2,4-5,6.7c-1.3,4.4,1.2,9.2,4.9,11.8s8.5,3.3,13.1,3.3c10.3,0.2,49.6-17.4,48.5-20
		c-2.5-5.8-11.8-20.5-18.9-21.2C282.1,505.5,255.6,520.1,249,525.9z"/>
	
		<linearGradient id="SVGID_30_" gradientUnits="userSpaceOnUse" x1="-2098.2148" y1="50.2821" x2="-2097.2717" y2="50.2821" gradientTransform="matrix(40.836 0 0 30.7341 85778.3984 -1028.2874)">
		<stop  offset="0" style="stop-color:#E5C6D6"/>
		<stop  offset="0.42" style="stop-color:#EAD4D0"/>
		<stop  offset="1" style="stop-color:#F0E9CB"/>
	</linearGradient>
	<path class="st35" d="M287.3,510.8c-2.4,1.1-5,2.3-6,4.7c-0.6,1.5-0.7,3.1-0.4,4.7c0.7,5.2,3.8,10.6,8.9,11.9
		c4.3,1.1,8.8-0.9,12.8-2.9c6-3,12.2-6.1,16.6-11.2c1.6-1.9,2.9-4.3,2.3-6.6c-0.5-1.4-1.3-2.6-2.4-3.6c-3.9-4.1-7.7-7.5-13.1-5.4
		C299.5,504.8,293.4,508,287.3,510.8z"/>
	<path class="st1" d="M366.8,507.9c7.6,2.4,14.5,6.7,22.2,9c7.6,2.3,16.7,2.3,22.7-3c1.1-1,2-2.1,2.7-3.5c0.7-2.1,1-4.4,0.6-6.7
		c-0.6-7.1-1.8-14.2-3.6-21.1c-0.5-2.5-1.6-4.9-3.3-6.9c-3.1-3.2-8.2-3.2-12.6-2.9l-23.7,1.2c-7.9,0.4-17,1.5-21.3,8.1
		c-1.3,2.2-2.2,4.7-2.8,7.2c-1.3,4.8-5.2,11.6,0.3,14.6c2.4,1.3,6,1.2,8.7,1.6C359.9,506.1,363.7,507.9,366.8,507.9z"/>
	
		<linearGradient id="SVGID_31_" gradientUnits="userSpaceOnUse" x1="-2115.4639" y1="34.0469" x2="-2114.4661" y2="34.0469" gradientTransform="matrix(69.9464 0 0 45.6054 148314.2344 -1057.203)">
		<stop  offset="0.12" style="stop-color:#010101;stop-opacity:0"/>
		<stop  offset="0.67" style="stop-color:#010101;stop-opacity:0.671"/>
		<stop  offset="0.95" style="stop-color:#010101"/>
	</linearGradient>
	<path class="st36" d="M366.8,507.9c7.6,2.4,14.5,6.7,22.2,9c7.6,2.3,16.7,2.3,22.7-3c1.1-1,2-2.1,2.7-3.5c0.7-2.1,1-4.4,0.6-6.7
		c-0.6-7.1-1.8-14.2-3.6-21.1c-0.5-2.5-1.6-4.9-3.3-6.9c-3.1-3.2-8.2-3.2-12.6-2.9l-23.7,1.2c-7.9,0.4-17,1.5-21.3,8.1
		c-1.3,2.2-2.2,4.7-2.8,7.2c-1.3,4.8-5.2,11.6,0.3,14.6c2.4,1.3,6,1.2,8.7,1.6C359.9,506.1,363.7,507.9,366.8,507.9z"/>
	<path class="st1" d="M355.2,545.1c5.2,1.2,10.6,1.8,16,1.7c5.4-0.3,11-1.8,15.1-5.1s6.5-8.6,5-13.1c-1.9-5.9-9.1-8.9-15.7-10.8
		c-6.4-1.8-13.8-3.1-19.9,0c-2.6,1.5-5,3.5-6.9,5.8c-1.9,1.8-3.6,3.9-4.9,6.2C339.8,538.1,347.1,543.4,355.2,545.1z"/>
	
		<linearGradient id="SVGID_32_" gradientUnits="userSpaceOnUse" x1="-2101.3853" y1="50.4692" x2="-2102.3083" y2="49.7192" gradientTransform="matrix(49.0787 0 0 30.9337 103529.4141 -1014.0381)">
		<stop  offset="0.12" style="stop-color:#010101;stop-opacity:0"/>
		<stop  offset="0.67" style="stop-color:#010101;stop-opacity:0.671"/>
		<stop  offset="0.95" style="stop-color:#010101"/>
	</linearGradient>
	<path class="st37" d="M355.2,545.1c5.2,1.2,10.6,1.8,16,1.7c5.4-0.3,11-1.8,15.1-5.1s6.5-8.6,5-13.1c-1.9-5.9-9.1-8.9-15.7-10.8
		c-6.4-1.8-13.8-3.1-19.9,0c-2.6,1.5-5,3.5-6.9,5.8c-1.9,1.8-3.6,3.9-4.9,6.2C339.8,538.1,347.1,543.4,355.2,545.1z"/>
	
		<linearGradient id="SVGID_33_" gradientUnits="userSpaceOnUse" x1="-2076.0256" y1="68.3977" x2="-2075.0256" y2="68.3977" gradientTransform="matrix(30.5331 0 0 22.5354 63721.3164 -1014.4036)">
		<stop  offset="0" style="stop-color:#E5C6D6"/>
		<stop  offset="0.42" style="stop-color:#EAD4D0"/>
		<stop  offset="1" style="stop-color:#F0E9CB"/>
	</linearGradient>
	<path class="st38" d="M333.9,528.7c3.4,6.5,11.1,10,18.4,9.5c3.8-0.3,7.7-1.6,10.2-4.5c4.4-5.3,1.8-13-13.1-17.8
		C343.4,513.9,332.8,526.5,333.9,528.7z"/>
	
		<linearGradient id="SVGID_34_" gradientUnits="userSpaceOnUse" x1="-1821.1827" y1="90.6536" x2="-1820.1807" y2="90.6536" gradientTransform="matrix(6.5735 0 0 16.9851 12505.2334 -1404.4019)">
		<stop  offset="0" style="stop-color:#E5C6D6"/>
		<stop  offset="0.42" style="stop-color:#EAD4D0"/>
		<stop  offset="1" style="stop-color:#F0E9CB"/>
	</linearGradient>
	<path class="st39" d="M534,130c0.4-1.5,1.5-3.1,3.1-3.1c1,0.1,1.9,0.7,2.3,1.6c0.4,0.9,0.7,1.8,0.7,2.8c0.3,2.5,0.2,5-0.1,7.4
		c-0.1,1.9-0.9,3.7-2.3,5c-0.2,0.2-0.4,0.2-0.6,0.1c-0.1-0.1-0.1-0.1-0.1-0.2c-1.3-2-2.2-4.3-2.6-6.7C534,134.6,533.4,132.3,534,130
		z"/>
	
		<linearGradient id="SVGID_35_" gradientUnits="userSpaceOnUse" x1="-1986.3026" y1="110.3319" x2="-1985.3011" y2="110.3319" gradientTransform="matrix(13.3988 0 0 13.9241 27078.4922 -1381.5128)">
		<stop  offset="0" style="stop-color:#E5C6D6"/>
		<stop  offset="0.42" style="stop-color:#EAD4D0"/>
		<stop  offset="1" style="stop-color:#F0E9CB"/>
	</linearGradient>
	<path class="st40" d="M467,147.8c-0.8,0-1.5,0.3-2,0.9c-0.4,0.5-0.6,1.2-0.5,1.8c-0.1,4.4,3.5,8,7.3,10.2c1.6,0.9,3.8,1.6,5.2,0.4
		s0.9-3.5,0.2-5.2C475.4,151.3,472.5,147.2,467,147.8z"/>
	
		<linearGradient id="SVGID_36_" gradientUnits="userSpaceOnUse" x1="-2117.2722" y1="17.2479" x2="-2116.2722" y2="17.2479" gradientTransform="matrix(74.3419 0 0 91.3515 157866.5 -1428.2675)">
		<stop  offset="0" style="stop-color:#E5C6D6"/>
		<stop  offset="0.42" style="stop-color:#EAD4D0"/>
		<stop  offset="1" style="stop-color:#F0E9CB"/>
	</linearGradient>
	<path class="st41" d="M475,154.2c5.4,11.3,11.1,22.9,20,31.7c5.2,5.8,13.1,8.3,20.6,6.6c5.3-0.7,10.7-2.4,14.4-6.2
		c2-2.2,3.6-4.8,4.7-7.6c8.1-18.8,3.2-40.9-6.4-59.1c-3-5.6-6.6-11.2-12-14.4c-7.6-4.7-17.4-4.1-25.9-1.6
		c-7.5,2.2-24.1,7.8-25.7,16.8C463,131.1,470.5,144.9,475,154.2z"/>
	<path class="st1" d="M455.3,122c-1.6-2.5-2.8-5.3-3.5-8.2c-0.5-2.9,0.3-6.3,2.7-8.1c0.6-0.4,1.1-0.8,1.6-1.3
		c0.4-0.8,0.6-1.6,0.5-2.5c0.4-8.2,7.2-15,14.9-18.1s16.2-3,24.4-3s16.8-0.2,24.3-3.5c0.8,2.6,0.8,5.3-0.1,7.9
		c2-1.2,4.6,0.8,4.9,3.1s-1,4.4-2.3,6.4c4.8,1.2,7.3,6.6,7.8,11.6s-0.4,10,0.8,14.8c0.4,1.3,0.8,2.6,0.9,4c0.2,1.4-0.5,2.8-1.7,3.6
		c-2.2-7.2-6.8-13.4-11.4-19.4c-1.3-1.9-2.9-3.6-4.7-5c-1.9-1.4-4.3-1.8-6.5-1.1c-1.4,0.8-2.8,1.7-4,2.7c-1.6,0.9-3.4,1.5-5.2,1.7
		c-10.3,1.9-21.5,1.8-30.2,7.8c-1.1,0.7-2,1.6-2.6,2.8c-0.4,1.3-0.5,2.7-0.2,4l1.8,13.8c0.4,3,1,6.2,3.2,8.4
		C464.3,138.1,459.7,129.9,455.3,122z"/>
	
		<linearGradient id="SVGID_37_" gradientUnits="userSpaceOnUse" x1="-2119.5325" y1="23.3846" x2="-2118.5325" y2="23.3846" gradientTransform="matrix(80.6907 0 0 67.116 171478.2031 -1458.6301)">
		<stop  offset="0.12" style="stop-color:#010101;stop-opacity:0"/>
		<stop  offset="0.67" style="stop-color:#010101;stop-opacity:0.671"/>
		<stop  offset="0.95" style="stop-color:#010101"/>
	</linearGradient>
	<path class="st42" d="M455.3,122c-1.6-2.5-2.8-5.3-3.5-8.2c-0.5-2.9,0.3-6.3,2.7-8.1c0.6-0.4,1.1-0.8,1.6-1.3
		c0.4-0.8,0.6-1.6,0.5-2.5c0.4-8.2,7.2-15,14.9-18.1s16.2-3,24.4-3s16.8-0.2,24.3-3.5c0.8,2.6,0.8,5.3-0.1,7.9
		c2-1.2,4.6,0.8,4.9,3.1s-1,4.4-2.3,6.4c4.8,1.2,7.3,6.6,7.8,11.6s-0.4,10,0.8,14.8c0.4,1.3,0.8,2.6,0.9,4c0.2,1.4-0.5,2.8-1.7,3.6
		c-2.2-7.2-6.8-13.4-11.4-19.4c-1.3-1.9-2.9-3.6-4.7-5c-1.9-1.4-4.3-1.8-6.5-1.1c-1.4,0.8-2.8,1.7-4,2.7c-1.6,0.9-3.4,1.5-5.2,1.7
		c-10.3,1.9-21.5,1.8-30.2,7.8c-1.1,0.7-2,1.6-2.6,2.8c-0.4,1.3-0.5,2.7-0.2,4l1.8,13.8c0.4,3,1,6.2,3.2,8.4
		C464.3,138.1,459.7,129.9,455.3,122z"/>
	
		<linearGradient id="SVGID_38_" gradientUnits="userSpaceOnUse" x1="-2065.9392" y1="43.0844" x2="-2064.9373" y2="43.0844" gradientTransform="matrix(26.6869 0 0 35.9273 55325.7344 -1142.54)">
		<stop  offset="0" style="stop-color:#E5C6D6"/>
		<stop  offset="0.42" style="stop-color:#EAD4D0"/>
		<stop  offset="1" style="stop-color:#F0E9CB"/>
	</linearGradient>
	<path class="st43" d="M200.1,387.5c3.2-0.2,6.4-0.1,9.6,0.1c2.4,0.2,5.5,1,5.8,3.5c0.3,1.9-1.5,3.6-3.3,4.2s-3.8,0.7-5.6,1.3
		c3.6-0.2,7.2,0.7,10.3,2.6c0.5,0.2,0.8,0.6,1.1,1c0.6,1.3-0.8,2.7-2.1,3.3c-1.7,0.9-3.5,1.5-5.4,1.9c2.2,0.1,4.4,0.6,6.4,1.7
		c0.8,0.4,1.5,1,1.9,1.9c0.4,1.6-0.3,3.2-1.8,3.9c-1.4,0.6-3,0.9-4.6,0.7c1.4,0.4,2.6,1,3.7,2c1.1,0.9,1.5,2.5,1,3.8
		c-0.7,1.5-2.6,2-4.3,2.2l-10.1,1.5c-1,0.2-2.1,0.3-3.1,0.2c-1.3-0.2-2.5-0.8-3.5-1.8c-3.6-3.3-3.9-8.8-3.9-13.7l-0.1-11.3
		C192.2,391.5,194.8,387.9,200.1,387.5z"/>
	<path class="st1" d="M385.5,426.4c7.9-5.9,16-11.8,25.2-15.3s20-4.2,28.7,0.3s14.7,15.2,11.8,24.6c-1.2,4-3.9,7.5-6.5,10.8
		c-16.8,20.8-36.6,39.3-59.7,52.6s-49.9,21-76.5,19.7c-2,0.3-3.9-1.1-4.2-3.1l-4-10.6c-0.9-2-1.4-4.2-1.3-6.4c0.3-3.5,3-6.2,5.6-8.6
		C329.6,466.8,358,446.7,385.5,426.4z"/>
	
		<linearGradient id="SVGID_39_" gradientUnits="userSpaceOnUse" x1="-2132.0491" y1="14.2996" x2="-2131.0493" y2="14.2996" gradientTransform="matrix(153.0066 0 0 110.8748 326516.5625 -1121.7245)">
		<stop  offset="0.12" style="stop-color:#010101;stop-opacity:0"/>
		<stop  offset="0.67" style="stop-color:#010101;stop-opacity:0.671"/>
		<stop  offset="0.95" style="stop-color:#010101"/>
	</linearGradient>
	<path class="st44" d="M385.5,426.4c7.9-5.9,16-11.8,25.2-15.3s20-4.2,28.7,0.3s14.7,15.2,11.8,24.6c-1.2,4-3.9,7.5-6.5,10.8
		c-16.8,20.8-36.6,39.3-59.7,52.6s-49.9,21-76.5,19.7c-2,0.3-3.9-1.1-4.2-3.1l-4-10.6c-0.9-2-1.4-4.2-1.3-6.4c0.3-3.5,3-6.2,5.6-8.6
		C329.6,466.8,358,446.7,385.5,426.4z"/>
	
		<linearGradient id="SVGID_40_" gradientUnits="userSpaceOnUse" x1="-2124.6689" y1="34.1198" x2="-2123.6699" y2="34.1198" gradientTransform="matrix(100.1071 0 0 45.5146 213187.5313 -1225.8066)">
		<stop  offset="0" style="stop-color:#E5C6D6"/>
		<stop  offset="0.42" style="stop-color:#EAD4D0"/>
		<stop  offset="1" style="stop-color:#F0E9CB"/>
	</linearGradient>
	<path class="st45" d="M531.1,326.5c9.2,1.7,18.3-2.6,26.7-6.7l20.2-9.9c2.4-1.4,5.2-2.3,8-2.6c2.8-0.1,5.9,1.2,6.9,3.9
		c1.1,2.9-0.7,6.2-3.2,8.1s-5.5,2.8-8.2,4.3c-7.9,4.3-12.6,12.8-19.8,18.2c-4.5,3.2-9.7,5.4-15.1,6.5c-14,3.3-29.8,1.6-40.9-7.5
		c-6.8-5.6-19.8-29.4-7.2-35.7c6.4-3.2,10.6,5.8,14.2,9.6C517.7,320,523.5,325.1,531.1,326.5z"/>
	<path class="st1" d="M414.8,385.2c0,0-11,19.7-0.8,37.4s53.5,23.2,61.4,16.5s22.4-18.9,22.4-18.9s-3.5-8.3,3.1-21.3
		s12.8-13.6,15.6-12s18.7,17.5,21,27.4s17.7,13,22.4,13.4s19.3-6.7,19.3-6.7s-2-22-9.8-30.3s-24.4-35.8-48-25.2
		c-23.6,10.6-40.1,16.5-40.1,16.5L414.8,385.2z"/>
	
		<linearGradient id="SVGID_41_" gradientUnits="userSpaceOnUse" x1="-2133.0745" y1="18.9297" x2="-2132.8276" y2="20.7208" gradientTransform="matrix(169.6232 0 0 78.7419 362286.8438 -1166.8411)">
		<stop  offset="0.12" style="stop-color:#010101;stop-opacity:0"/>
		<stop  offset="0.45" style="stop-color:#010101;stop-opacity:0.349"/>
		<stop  offset="0.67" style="stop-color:#010101;stop-opacity:0.671"/>
		<stop  offset="0.95" style="stop-color:#010101"/>
	</linearGradient>
	<path class="st46" d="M414.8,385.2c0,0-11,19.7-0.8,37.4s53.5,23.2,61.4,16.5s22.4-18.9,22.4-18.9s-3.5-8.3,3.1-21.3
		s12.4-13.7,15.2-12.1s19,17.7,21.4,27.5s17.7,13,22.4,13.4s19.3-6.7,19.3-6.7s-2-22-9.8-30.3s-24.4-35.8-48-25.2
		c-23.6,10.6-40.1,16.5-40.1,16.5L414.8,385.2z"/>
	<path class="st4" d="M420.3,311.6c-3.1,11.1-1.7,23-4,34.3c-1.4,7.1-4.3,13.8-5.4,21s-0.2,15.2,5,20.3c3.1,2.8,7,4.7,11.1,5.5
		c9.3,2,19,0.6,28-2.4s17.3-7.7,25.6-12.3c2.2-1.1,4.2-2.5,5.9-4.2c3.3-3.6,3.7-9,3.8-13.9c0.2-9.8-0.5-19.7,1.4-29.3
		c1.3-6.8,4-13.5,3.7-20.5c-0.4-9-5.5-17.1-13.5-21.4c-7-3.6-14.9-3.7-22.5-5.2c-6.3-1.2-9.5-2.1-15.8,0.9
		C432.3,289.6,423.8,299.5,420.3,311.6z"/>
	
		<linearGradient id="SVGID_42_" gradientUnits="userSpaceOnUse" x1="-2120.8359" y1="14.244" x2="-2119.835" y2="14.244" gradientTransform="matrix(84.8649 0 0 111.3361 180394.8438 -1247.864)">
		<stop  offset="0" style="stop-color:#FFFFFF;stop-opacity:0"/>
		<stop  offset="0.95" style="stop-color:#FFFFFF"/>
	</linearGradient>
	<path class="st47" d="M420.3,311.6c-3.1,11.1-1.7,23-4,34.3c-1.4,7.1-4.3,13.8-5.4,21s-0.2,15.2,5,20.3c3.1,2.8,7,4.7,11.1,5.5
		c9.3,2,19,0.6,28-2.4s17.3-7.7,25.6-12.3c2.2-1.1,4.2-2.5,5.9-4.2c3.3-3.6,3.7-9,3.8-13.9c0.2-9.8-0.5-19.7,1.4-29.3
		c1.3-6.8,4-13.5,3.7-20.5c-0.4-9-5.5-17.1-13.5-21.4c-7-3.6-14.9-3.7-22.5-5.2c-6.3-1.2-9.5-2.1-15.8,0.9
		C432.3,289.6,423.8,299.5,420.3,311.6z"/>
	
		<linearGradient id="SVGID_43_" gradientUnits="userSpaceOnUse" x1="-2103.291" y1="25.4069" x2="-2102.217" y2="25.4069" gradientTransform="matrix(47.2308 0 0 61.4251 99633.1953 -1194.4479)">
		<stop  offset="0" style="stop-color:#E5C6D6"/>
		<stop  offset="0.42" style="stop-color:#EAD4D0"/>
		<stop  offset="1" style="stop-color:#F0E9CB"/>
	</linearGradient>
	<path class="st48" d="M412.3,375.1c-0.4,7-0.1,15.2,5.7,19.1c2.5,1.5,5.4,2.4,8.4,2.5c5.8,0.5,11.6,0.1,17.2-1.2
		c2-0.5,15.9-5.8,15.9-5.8c-0.6-0.9-19.7-6.6-22.9-9.3c-5-4.2-4.8-12-3.4-18.4s3.4-13.4,0.6-19.3s-14.8-11.2-17.5-3.2
		C412.5,350.1,412.9,364.1,412.3,375.1z"/>
	<path class="st1" d="M433.6,198.7c-2,2.4-3.3,5.2-3.9,8.2c-1.4,5.9-1.8,12-1.1,18c1,8.2,4,16.9,0.8,24.5c-1,2.4-2.6,4.4-3.6,6.8
		c-1.3,2.3-1.5,5-0.7,7.4c0.3,0.8,0.8,1.4,1.5,1.9c1.4,0.6,3,0.3,4.1-0.7c1.1-1.1,1.9-2.3,2.4-3.7c-1,1.7,0.4,4,2.3,4.5
		c2,0.4,4-0.3,5.2-1.8s2.2-3.2,2.8-5.1c0.2,1.2,0.8,2.3,1.5,3.3c3.6-0.9,5.7-4.7,7-8.2c3.7-9.7,6-20.2,4.8-30.6
		C455.9,215.3,444.7,186.5,433.6,198.7z"/>
	
		<linearGradient id="SVGID_44_" gradientUnits="userSpaceOnUse" x1="-2080.3062" y1="22.3104" x2="-2079.3062" y2="22.3104" gradientTransform="matrix(32.5204 0 0 70.1507 68077.0234 -1334.3204)">
		<stop  offset="0.12" style="stop-color:#010101;stop-opacity:0"/>
		<stop  offset="0.45" style="stop-color:#010101;stop-opacity:0.349"/>
		<stop  offset="0.67" style="stop-color:#010101;stop-opacity:0.671"/>
		<stop  offset="0.95" style="stop-color:#010101"/>
	</linearGradient>
	<path class="st49" d="M433.6,198.7c-2,2.4-3.3,5.2-3.9,8.2c-1.4,5.9-1.8,12-1.1,18c1,8.2,4,16.9,0.8,24.5c-1,2.4-2.6,4.4-3.6,6.8
		c-1.3,2.3-1.5,5-0.7,7.4c0.3,0.8,0.8,1.4,1.5,1.9c1.4,0.6,3,0.3,4.1-0.7c1.1-1.1,1.9-2.3,2.4-3.7c-1,1.7,0.4,4,2.3,4.5
		c2,0.4,4-0.3,5.2-1.8s2.2-3.2,2.8-5.1c0.2,1.2,0.8,2.3,1.5,3.3c3.6-0.9,5.7-4.7,7-8.2c3.7-9.7,6-20.2,4.8-30.6
		C455.9,215.3,444.7,186.5,433.6,198.7z"/>
	
		<linearGradient id="SVGID_45_" gradientUnits="userSpaceOnUse" x1="-2063.259" y1="32.4722" x2="-2062.0811" y2="32.4722" gradientTransform="matrix(23.7971 0 0 47.8536 49389.4219 -1270.0643)">
		<stop  offset="0" style="stop-color:#E5C6D6"/>
		<stop  offset="0.42" style="stop-color:#EAD4D0"/>
		<stop  offset="1" style="stop-color:#F0E9CB"/>
	</linearGradient>
	<path class="st50" d="M479.9,289.2c0.2,4.1,0.6,8.4-0.7,12.5s-5.1,7.3-7.9,5.6c-1.2-1-2.1-2.2-2.7-3.6l-9.9-19.4
		c-0.7-1.2-1.1-2.5-1.3-3.9c-0.1-2.4,0.9-5.9,0.9-8.2c0-3.8-0.9-9,0-11.2s6.5,2.2,7.9,0.4s4-1.8,5.9-0.8c4,1.9,6.9,6.4,7.9,11.8
		c0.2,1.2,0.5,2.3,0.7,3.5c0.4,2,0.6,1,0.1,3.2C480.2,282.3,479.8,285.7,479.9,289.2z"/>
	
		<linearGradient id="SVGID_46_" gradientUnits="userSpaceOnUse" x1="-2043.4905" y1="67.019" x2="-2042.9015" y2="63.5161" gradientTransform="matrix(20.9399 0 0 22.9931 43260.293 -1263.5112)">
		<stop  offset="0.12" style="stop-color:#010101;stop-opacity:0"/>
		<stop  offset="0.67" style="stop-color:#010101;stop-opacity:0.671"/>
		<stop  offset="0.95" style="stop-color:#010101"/>
	</linearGradient>
	<path class="st51" d="M463,275.4c2.8,5.4,6,11.2,11.7,13.7c0.6,0.3,1.3,0.5,2,0.4c0.5-0.1,1-0.4,1.3-0.8c1.8-1.8,2.1-4.6,2.3-7.1
		l0.5-5.9c0.1-0.5,0-1-0.2-1.5c-0.2-0.3-0.6-0.5-0.9-0.6l-13.6-6c-1.6-0.7-5.1-2-6,0.3C459.3,269.5,462.2,273.8,463,275.4z"/>
	
		<linearGradient id="SVGID_47_" gradientUnits="userSpaceOnUse" x1="-2104.864" y1="21.8887" x2="-2103.8633" y2="21.8887" gradientTransform="matrix(51.9295 0 0 71.531 109760.125 -1323.0385)">
		<stop  offset="0" style="stop-color:#E5C6D6"/>
		<stop  offset="0.42" style="stop-color:#EAD4D0"/>
		<stop  offset="1" style="stop-color:#F0E9CB"/>
	</linearGradient>
	<path class="st52" d="M478.8,278c-7.8-2.3-14.6-7.2-19.1-14c-1.3-1.8-2.3-3.8-3-5.9c-0.7-2.5-1.1-5-1.1-7.6
		c-0.2-10.2,1.9-20.4,6.3-29.6c1-2.3,2.4-4.5,4.1-6.4c3.6-3.9,9.1-5.7,14.4-6.6c4.1-0.6,8.2-1,12.3-1c2.3-0.2,4.7,0.2,6.9,1
		c1.6,0.8,3,1.9,4.1,3.3c3.1,3.4,3.1,8.1,3.8,12.7C508.2,228.9,502.3,284.4,478.8,278z"/>
	<path class="st1" d="M516.5,213.1c-0.9-6.1-3.5-11.8-6.4-17.2c-1.3-2.5-2.8-5-5.2-6.5c-1.9-1.1-4-1.8-6.1-2.1l-12.9-2.7
		c-3.6-0.9-7.3-1.4-11.1-1.5c-12.3,0-23.8,9.1-27.9,20.7s-1.3,25.1,6,35.1c0.4,0.8,1.2,1.3,2,1.5c1.4,0.2,2.3-1.3,2.9-2.6
		c1.7-4.2,2.8-8.5,4.8-12.5s5.1-7.7,9.3-9.2c2.1-0.6,4.3-1,6.4-1.3c3.6-0.7,7-2.3,9.9-4.6c0.5-0.5,1.2-0.8,1.9-0.7
		c0.6,0.2,1,0.8,1.3,1.4c2.3,3.8,7.5,4.8,10.6,8.1c1.8,1.9,2.8,4.3,4.1,6.5C513.9,237.5,517.3,219.4,516.5,213.1z"/>
	
		<linearGradient id="SVGID_48_" gradientUnits="userSpaceOnUse" x1="-2116.1606" y1="27.2" x2="-2115.1602" y2="27.2" gradientTransform="matrix(71.5789 0 0 57.3033 151917.4688 -1346.8934)">
		<stop  offset="0" style="stop-color:#010101;stop-opacity:0"/>
		<stop  offset="0.12" style="stop-color:#010101;stop-opacity:0"/>
		<stop  offset="0.67" style="stop-color:#010101;stop-opacity:0.671"/>
		<stop  offset="0.95" style="stop-color:#010101"/>
		<stop  offset="1" style="stop-color:#5D5C5C"/>
	</linearGradient>
	<path class="st53" d="M516.5,213.1c-0.9-6.1-3.5-11.8-6.4-17.2c-1.3-2.5-2.8-5-5.2-6.5c-1.9-1.1-4-1.8-6.1-2.1l-12.9-2.7
		c-3.6-0.9-7.3-1.4-11.1-1.5c-12.3,0-23.8,9.1-27.9,20.7s-1.3,25.1,6,35.1c0.4,0.8,1.2,1.3,2,1.5c1.4,0.2,2.3-1.3,2.9-2.6
		c1.7-4.2,2.8-8.5,4.8-12.5s5.1-7.7,9.3-9.2c2.1-0.6,4.3-1,6.4-1.3c3.6-0.7,7-2.3,9.9-4.6c0.5-0.5,1.2-0.8,1.9-0.7
		c0.6,0.2,1,0.8,1.3,1.4c2.3,3.8,7.5,4.8,10.6,8.1c1.8,1.9,2.8,4.3,4.1,6.5C513.9,237.5,517.3,219.4,516.5,213.1z"/>
	<path class="st4" d="M503,304.8c3,3.9,6.2,8.1,6.2,13c-0.1,2.3-0.6,4.5-1.4,6.7c-1.3,3.8-2.7,7.5-4.4,11.1
		c-0.8,1.8-1.9,3.8-3.8,4.4c-4.3-2-6.7-6.7-7.4-11.3s0-9.4,0.3-14c0.2-3.3,0.3-6.6,0.2-9.9c0-1.9-1.4-8.2-0.4-9.6
		C494.8,291.8,501.5,302.9,503,304.8z"/>
	
		<linearGradient id="SVGID_49_" gradientUnits="userSpaceOnUse" x1="-2022.5884" y1="34.2525" x2="-2020.1024" y2="33.9485" gradientTransform="matrix(17.1904 0 0 45.5176 35245.918 -1235.4634)">
		<stop  offset="0" style="stop-color:#FFFFFF;stop-opacity:0"/>
		<stop  offset="0.66" style="stop-color:#FFFFFF"/>
	</linearGradient>
	<path class="st54" d="M503,304.8c3,3.9,6.2,8.1,6.2,13c-0.1,2.3-0.6,4.5-1.4,6.7c-1.3,3.8-2.7,7.5-4.4,11.1
		c-0.8,1.8-1.9,3.8-3.8,4.4c-4.3-2-6.7-6.7-7.4-11.3s0-9.4,0.3-14c0.2-3.3,0.3-6.6,0.2-9.9c0-1.9-1.4-8.2-0.4-9.6
		C494.8,291.8,501.5,302.9,503,304.8z"/>
	<path class="st4" d="M425.7,297.7c-4,0.6-11.1,10.6-14.1,17.1c-2.9,6.3-3,30.7-1.8,31.1c5.7,2.3,17.1,1.8,23.2,0.5
		c0.8-0.1,1.6-0.5,2.2-1.1c0.6-0.8,0.8-1.8,0.7-2.8c-0.1-7.3-2.9-18.4-2.9-25.7c0.1-3.5-0.2-7.1-1.1-10.5
		C430.8,303.1,430,297.2,425.7,297.7z"/>
	
		<linearGradient id="SVGID_50_" gradientUnits="userSpaceOnUse" x1="-2066.7253" y1="31.1882" x2="-2065.5044" y2="31.0961" gradientTransform="matrix(26.8533 0 0 49.9687 55899.7266 -1232.3142)">
		<stop  offset="0" style="stop-color:#FFFFFF;stop-opacity:0"/>
		<stop  offset="0.95" style="stop-color:#FFFFFF"/>
	</linearGradient>
	<path class="st55" d="M430.3,300.7c-1.2-2.5-4.2-3.7-6.7-2.5c-0.8,0.4-1.4,0.9-2,1.6c-3.6,4.8-7.7,10.2-10,15.2
		c-2.9,6.3-3,30.7-1.8,31.1c5.7,2.3,17.1,1.8,23.2,0.5c0.8-0.1,1.6-0.5,2.2-1.1c0.5-0.8,0.8-1.8,0.7-2.8c-0.1-7.3-2.9-18.4-2.9-25.7
		c0-3.5-0.8-7-1.1-10.5C431.6,304.5,431.1,302.5,430.3,300.7L430.3,300.7z"/>
	<path class="st1" d="M574.6,327.2c5.6-13.9,20.9-25.4,35-20.3c46.4,16.6,25.8,126.8,27.1,174.9c0,3.9-1.8,7.7-5,10
		c-2.2,1.6-17.5-1-20.2-0.7c-8.8,0.9-28.5-103.8-37.8-118.6C565.3,359.2,568.8,341.6,574.6,327.2z"/>
	
		<linearGradient id="SVGID_51_" gradientUnits="userSpaceOnUse" x1="-2116.1062" y1="8.6992" x2="-2115.106" y2="8.6992" gradientTransform="matrix(71.448 0 0 186.6032 151760.1719 -1224.3033)">
		<stop  offset="0.12" style="stop-color:#010101;stop-opacity:0"/>
		<stop  offset="0.67" style="stop-color:#010101;stop-opacity:0.671"/>
		<stop  offset="0.95" style="stop-color:#010101"/>
	</linearGradient>
	<path class="st56" d="M574.6,327.2c5.6-13.9,20.9-25.4,35-20.3c46.4,16.6,25.8,126.8,27.1,174.9c0,3.9-1.8,7.7-5,10
		c-2.2,1.6-17.5-1-20.2-0.7c-8.8,0.9-28.5-103.8-37.8-118.6C565.3,359.2,568.8,341.6,574.6,327.2z"/>
	
		<linearGradient id="SVGID_52_" gradientUnits="userSpaceOnUse" x1="-2068.1702" y1="66.2416" x2="-2067.168" y2="66.2416" gradientTransform="matrix(27.4517 0 0 23.2728 57130.7031 -1136.1205)">
		<stop  offset="0" style="stop-color:#E5C6D6"/>
		<stop  offset="0.42" style="stop-color:#EAD4D0"/>
		<stop  offset="1" style="stop-color:#F0E9CB"/>
	</linearGradient>
	<path class="st57" d="M356,404.8c-0.2,1.9,0.1,3.9,1.6,5.1c0.5,0.4,1.1,0.7,1.8,0.9l6,2.4c0.7,0.4,1.6,0.5,2.4,0.1
		c0.5-0.3,0.7-0.9,1.1-1.3c1.1-1.3,3.2-1,4.6-0.2c1.3,0.7,2.3,1.6,3.2,2.8c0.7,1,1.3,2.2,2.4,2.5c1.2,0.2,2.4-0.3,3-1.4
		c2.4-3.1,1.1-7.8-1.1-11.1c-3.4-5-8.4-8.7-14.1-10.4C360.6,392.3,356.5,399,356,404.8z"/>
	
		<linearGradient id="SVGID_53_" gradientUnits="userSpaceOnUse" x1="-2087.3848" y1="55.2381" x2="-2086.3848" y2="55.2381" gradientTransform="matrix(36.4481 0 0 27.9511 76353.7188 -1141.8496)">
		<stop  offset="0" style="stop-color:#E5C6D6"/>
		<stop  offset="0.42" style="stop-color:#EAD4D0"/>
		<stop  offset="1" style="stop-color:#F0E9CB"/>
	</linearGradient>
	<path class="st58" d="M307.3,390.7c2.5,2.1,1.9,6.2,0.3,9.1c-4.1,7.6-23.6,21-32.5,14.7c-7.8-5.6,3.8-18.3,8.6-21.6
		C289.4,388.9,301.4,385.6,307.3,390.7z"/>
	
		<linearGradient id="SVGID_54_" gradientUnits="userSpaceOnUse" x1="-2112.4893" y1="16.5825" x2="-2111.4885" y2="16.5825" gradientTransform="matrix(63.7398 0 0 95.1277 135148.4688 -1143.6932)">
		<stop  offset="0" style="stop-color:#E5C6D6"/>
		<stop  offset="0.42" style="stop-color:#EAD4D0"/>
		<stop  offset="1" style="stop-color:#F0E9CB"/>
	</linearGradient>
	<path class="st59" d="M509.7,435.4l33.4,39.3c1.4,1.6,2.5,3.6,4.5,4.2c3.4,1,15.5,3.4,15,2c-12.2-34.3-21.5-65.8-39.5-88.4
		c-1.9-2.4-4.1-4.9-7.1-5.9c-4.9-1.6-10.3,1.7-12.9,6.2C494.6,407.6,499.8,423.7,509.7,435.4z"/>
	
		<linearGradient id="SVGID_55_" gradientUnits="userSpaceOnUse" x1="-2101.2349" y1="15.0812" x2="-2100.2349" y2="15.0812" gradientTransform="matrix(47.7211 0 0 104.9318 100812.0781 -1152.8885)">
		<stop  offset="0" style="stop-color:#E5C6D6"/>
		<stop  offset="0.42" style="stop-color:#EAD4D0"/>
		<stop  offset="1" style="stop-color:#F0E9CB"/>
	</linearGradient>
	<path class="st60" d="M539,389.2c0.5-5.3,3.8-10.7,8.9-11.8c2.4-0.5,4.9-0.2,7.2,0.8c8.4,3.3,12.9,12.2,16,20.6
		c8.8,24.1,18.2,56.5,14.8,81.9c-0.3,2.1-8.6,1.2-10.7,1c-1.3-0.1-15.1-31.9-21.4-47C548.5,422,537.7,403.4,539,389.2z"/>
	
		<linearGradient id="SVGID_56_" gradientUnits="userSpaceOnUse" x1="-1914.217" y1="116.7673" x2="-1913.2198" y2="116.7673" gradientTransform="matrix(9.2167 -0.3303 0.4718 13.1629 18035.3477 -1924.3829)">
		<stop  offset="0" style="stop-color:#E5C6D6"/>
		<stop  offset="0.42" style="stop-color:#EAD4D0"/>
		<stop  offset="1" style="stop-color:#F0E9CB"/>
	</linearGradient>
	<path class="st61" d="M451.9,238.3c-0.5-0.1-1.1-0.1-1.6,0.1c-0.8,0.2-1.5,0.9-1.8,1.6c-0.4,0.8-0.5,1.6-0.6,2.4
		c-0.3,2.1,0.2,4.3,1.2,6.2s3.2,3,5.4,2.8c0.4,0,0.8-0.2,1.1-0.4c0.5-0.5,0.7-1.2,0.7-1.8c0.2-2.3,1.2-5.6,0.5-7.8
		C456.1,239.1,453.7,238.5,451.9,238.3z"/>
	
		<linearGradient id="SVGID_57_" gradientUnits="userSpaceOnUse" x1="-1752.1241" y1="201.5766" x2="-1750.0762" y2="200.5826" gradientTransform="matrix(5.4267 0 0 7.6176 9957.1816 -1290.1985)">
		<stop  offset="0.12" style="stop-color:#010101;stop-opacity:0"/>
		<stop  offset="0.67" style="stop-color:#010101;stop-opacity:0.671"/>
		<stop  offset="0.95" style="stop-color:#010101"/>
	</linearGradient>
	<path class="st62" d="M450.6,239.8c-0.9,0-1.7,0.5-2,1.3c-0.1,0.5-0.2,0.9-0.1,1.4c0,1.1,0.4,2.2,1,3.1c0.7,1.1,1.9,1.8,3.3,1.7
		c0.7,0,1.2-0.5,1.2-1.2c0-0.2-0.1-0.4-0.2-0.6c-0.5-1-0.8-2.1-1-3.2C452.6,241.1,452.1,239.8,450.6,239.8z"/>
	
		<linearGradient id="SVGID_58_" gradientUnits="userSpaceOnUse" x1="-1773.3865" y1="196.5502" x2="-1771.3385" y2="195.5562" gradientTransform="matrix(5.4267 0 0 7.6176 9957.1816 -1290.1985)">
		<stop  offset="0.12" style="stop-color:#010101;stop-opacity:0"/>
		<stop  offset="0.67" style="stop-color:#010101;stop-opacity:0.671"/>
		<stop  offset="0.95" style="stop-color:#010101"/>
	</linearGradient>
	<path class="st63" d="M335.2,201.5c-0.9,0-1.7,0.5-2,1.3c-0.1,0.5-0.2,0.9-0.1,1.4c0,1.1,0.4,2.2,1,3.1c0.7,1.1,1.9,1.8,3.3,1.7
		c0.7,0,1.2-0.5,1.2-1.2c0-0.2-0.1-0.4-0.2-0.6c-0.5-1-0.8-2.1-1-3.2C337.2,202.8,336.7,201.5,335.2,201.5z"/>
	<path class="st1" d="M339.4,198.2c1.2,0.3,2.3,0.5,3.6,0.5c4.3,0.2,8.9,0.3,12.4-2.1s5.1-6.7,6.4-10.7s2.8-8.3,6.2-10.8
		c3.6-2.7,8.9-3.1,11.4-6.8c0.7-0.9,1-2,0.9-3.1c-0.3-1.3-1-2.4-2-3.4c-1.3-1.8-3.1-3.2-5.1-4.1c-1.3-0.5-2.7-0.7-4.2-0.7
		c-4.4,0-8.8,0.2-13.1,0.6c-4.4,0.4-8.8,1-12.7,3c-3.8,2.1-7,5-9.5,8.6c-2.4,2.9-4.2,6.3-5.4,9.9c-1.2,4.1-1,9.4,2,12.8
		C332.8,194.6,335.9,196.7,339.4,198.2L339.4,198.2z"/>
	
		<linearGradient id="SVGID_59_" gradientUnits="userSpaceOnUse" x1="-2094.6646" y1="32.1091" x2="-2095.7275" y2="32.9" gradientTransform="matrix(42.3395 0 0 47.948 89093.1172 -1384.988)">
		<stop  offset="0.12" style="stop-color:#010101;stop-opacity:0"/>
		<stop  offset="0.67" style="stop-color:#010101;stop-opacity:0.671"/>
		<stop  offset="0.95" style="stop-color:#010101"/>
	</linearGradient>
	<path class="st64" d="M368.9,145c4.4,0.2,8.5,1.9,12.5,3.6c8.9,4,17.7,9.1,23.6,16.9s8.4,18.8,4,27.5c-3-6.3-6.7-12.2-11-17.7
		c-2.5-3-5.3-5.7-8.4-8c-2.6-1.8-5.7-2.8-7.2-5.6C378.5,155,375.8,149.3,368.9,145z"/>
	
		<linearGradient id="SVGID_60_" gradientUnits="userSpaceOnUse" x1="-2023.9136" y1="63.7753" x2="-2022.9106" y2="63.7753" gradientTransform="matrix(17.5017 0 0 24.181 35911.7344 -1239.2454)">
		<stop  offset="0" style="stop-color:#E5C6D6"/>
		<stop  offset="0.42" style="stop-color:#EAD4D0"/>
		<stop  offset="1" style="stop-color:#F0E9CB"/>
	</linearGradient>
	<path class="st65" d="M489.8,300.9c-0.1,0.7,0,1.7,0.6,2c0.5,0.2,1,0.1,1.4-0.1c1.5-0.7,2.7-1.7,3.6-3c-1.1,2.2-1.5,4.6-1.2,7
		c0.1,0.8,0.4,1.7,1.1,2c0.6,0.1,1.3,0,1.8-0.5c1.3-0.9,2.2-2.3,2.6-3.8c-1,2.8-1.3,5.8-0.9,8.8c0,0.6,0.3,1.2,0.8,1.6
		c0.5,0.2,1.1,0.1,1.6-0.2c2.1-1.2,3.7-3,4.7-5.2c1-1.6,1.4-3.4,1.3-5.2c-0.2-1.8-1.8-3.5-3.6-3.3c0.3,0-5.1-9.6-7.7-10.1
		C490.9,289.9,490.2,297.2,489.8,300.9z"/>
	<path class="st7" d="M92.5,430.2c4.2,6.7,7.9,13.7,11.1,20.9c2.9,7.1,4.9,14.5,5.8,22.1c1.5,12,0,25.2-7.2,34.9
		c-0.1,0.2-0.4,0.4-0.6,0.5c-0.5,0.1-0.8-0.4-1-0.9c-5-11.1-10.1-22.3-15.1-33.4c-2.2-4.9-4.4-9.8-6.2-14.9
		c-4.3-12.5-5.7-25.9-4.1-39c0.5-4,0.7-12.4,6.5-8.4C86.1,415.1,89.8,425.6,92.5,430.2z"/>
	
		<linearGradient id="SVGID_61_" gradientUnits="userSpaceOnUse" x1="-2085.5835" y1="16.1917" x2="-2083.0085" y2="16.0497" gradientTransform="matrix(35.3905 0 0 97.6382 73886.0547 -1119.0221)">
		<stop  offset="0.12" style="stop-color:#010101;stop-opacity:0"/>
		<stop  offset="0.67" style="stop-color:#010101;stop-opacity:0.671"/>
		<stop  offset="0.95" style="stop-color:#010101"/>
	</linearGradient>
	<path class="st66" d="M92.5,430.2c4.2,6.7,7.9,13.7,11.1,20.9c2.9,7.1,4.9,14.5,5.8,22.1c1.5,12,0,25.2-7.2,34.9
		c-0.1,0.2-0.4,0.4-0.6,0.5c-0.5,0.1-0.8-0.4-1-0.9c-5-11.1-10.1-22.3-15.1-33.4c-2.2-4.9-4.4-9.8-6.2-14.9
		c-4.3-12.5-5.7-25.9-4.1-39c0.5-4,0.7-12.4,6.5-8.4C86.1,415.1,89.8,425.6,92.5,430.2z"/>
	<path class="st6" d="M764.3,498.2c1.7-9.6,10-16.8,13.4-25.9c1.2-3.5,1.9-7.1,2.3-10.7c1.8-14.8,2-29.7,0.5-44.5
		c-2.2-21.8-8.9-12.1-14.8,2.7C755.7,444.9,755.2,472.8,764.3,498.2z"/>
	
		<linearGradient id="SVGID_62_" gradientUnits="userSpaceOnUse" x1="-2056.8235" y1="16.5964" x2="-2051.0264" y2="17.4095" gradientTransform="matrix(23.7064 0 0 93.8425 49495.0742 -1125.6433)">
		<stop  offset="0.12" style="stop-color:#010101;stop-opacity:0"/>
		<stop  offset="0.67" style="stop-color:#010101;stop-opacity:0.671"/>
		<stop  offset="0.95" style="stop-color:#010101"/>
	</linearGradient>
	<path class="st67" d="M764.3,498.2c1.7-9.6,10-16.8,13.4-25.9c1.2-3.5,1.9-7.1,2.3-10.7c1.8-14.8,2-29.7,0.5-44.5
		c-2.2-21.8-8.9-12.1-14.8,2.7C755.7,444.9,755.2,472.8,764.3,498.2z"/>
</g>
</svg>
