<svg xmlns="http://www.w3.org/2000/svg" xmlns:xlink="http://www.w3.org/1999/xlink" width="219.619" height="129.643" viewBox="0 0 219.619 129.643">
  <defs>
    <linearGradient id="linear-gradient" x1="-27.174" y1="28.065" x2="-27.171" y2="28.022" gradientUnits="objectBoundingBox">
      <stop offset="0" stop-color="#010101" stop-opacity="0"/>
      <stop offset="0.95" stop-color="#010101"/>
    </linearGradient>
    <linearGradient id="linear-gradient-2" x1="-61.229" y1="25.673" x2="-61.236" y2="25.626" xlink:href="#linear-gradient"/>
    <linearGradient id="linear-gradient-3" x1="-65.103" y1="56.682" x2="-65.097" y2="56.59" xlink:href="#linear-gradient"/>
    <linearGradient id="linear-gradient-4" x1="-143.749" y1="51.753" x2="-143.763" y2="51.654" gradientUnits="objectBoundingBox">
      <stop offset="0" stop-color="#fff" stop-opacity="0"/>
      <stop offset="0.95" stop-color="#fff"/>
    </linearGradient>
    <linearGradient id="linear-gradient-5" x1="-62.666" y1="60.549" x2="-62.66" y2="60.457" xlink:href="#linear-gradient"/>
    <linearGradient id="linear-gradient-6" x1="-137.859" y1="55.231" x2="-137.873" y2="55.131" xlink:href="#linear-gradient-4"/>
    <linearGradient id="linear-gradient-7" x1="-62.993" y1="54.081" x2="-62.986" y2="53.99" xlink:href="#linear-gradient"/>
    <linearGradient id="linear-gradient-8" x1="-138.882" y1="49.148" x2="-138.896" y2="49.049" xlink:href="#linear-gradient-4"/>
    <linearGradient id="linear-gradient-9" x1="-55.845" y1="64.879" x2="-55.839" y2="64.788" xlink:href="#linear-gradient"/>
    <linearGradient id="linear-gradient-10" x1="-125.398" y1="58.983" x2="-125.412" y2="58.884" xlink:href="#linear-gradient-4"/>
    <linearGradient id="linear-gradient-11" x1="-54.182" y1="61.34" x2="-54.176" y2="61.249" xlink:href="#linear-gradient"/>
    <linearGradient id="linear-gradient-12" x1="-121.163" y1="55.506" x2="-121.176" y2="55.407" xlink:href="#linear-gradient-4"/>
    <linearGradient id="linear-gradient-13" x1="-50.272" y1="61.259" x2="-50.265" y2="61.167" xlink:href="#linear-gradient"/>
    <linearGradient id="linear-gradient-14" x1="-112.779" y1="55.086" x2="-112.793" y2="54.987" xlink:href="#linear-gradient-4"/>
  </defs>
  <g id="Layer_2" data-name="Layer 2" transform="translate(0.015 0.035)">
    <g id="Layer_1" data-name="Layer 1">
      <path id="Path_2051" data-name="Path 2051" d="M142.72,89.94l-32.21-18.6,25.2-14.55L117.64,46.36l-16.08,9.28L52.3,27.2,81.56,10.31l1.16.67L54.62,27.2l46.93,27.1L117.63,45,138,56.8,112.8,71.34,142.71,88.6,180.08,67l20.84,12L184,88.84l19.82,11.45,9-5.19,1.16.67-10.14,5.86L181.65,88.84l16.95-9.78L180.08,68.37Z" fill="#412d58"/>
      <path id="Path_2052" data-name="Path 2052" d="M186.36,126.93,146.1,103.68l26.07-15.05L136.25,67.89,111.47,80.68,74.92,59.58l16.73-9.66L74.78,40.18,62.54,47.25l-1.16-.68,13.39-7.73L94,49.92,77.24,59.58l34.29,19.8,24.77-12.8,38.19,22.06-26.07,15,39.1,22.58Z" fill="#412d58"/>
      <path id="Path_2053" data-name="Path 2053" d="M27.7,59.41,7.44,47.71l1.16-.66,19.09,11,16.63-9.6,91.81,53,21.19-12.23,24.26,14L195,95.51l1.16.67-14.59,8.43-24.27-14-21.18,12.23-91.82-53Z" fill="#412d58"/>
      <path id="Path_2054" data-name="Path 2054" d="M63.11,32.15,62,31.48l16.54-9.56L106.37,38,121,29.55l50.1,28.92-1.16.67L121,30.89l-14.66,8.47L78.5,23.26Z" fill="#412d58"/>
      <ellipse id="Ellipse_23" data-name="Ellipse 23" cx="4.55" cy="7.89" rx="4.55" ry="7.89" transform="translate(89.238 75.148) rotate(-89.71)" fill="#f29c5a"/>
      <ellipse id="Ellipse_24" data-name="Ellipse 24" cx="4.55" cy="7.89" rx="4.55" ry="7.89" transform="translate(89.238 73.721) rotate(-89.71)" fill="#ffc91f"/>
      <ellipse id="Ellipse_25" data-name="Ellipse 25" cx="3.53" cy="6.12" rx="3.53" ry="6.12" transform="translate(90.983 72.6) rotate(-89.71)" fill="#f29c5a"/>
      <ellipse id="Ellipse_26" data-name="Ellipse 26" cx="4.55" cy="7.89" rx="4.55" ry="7.89" transform="translate(87.238 72.394) rotate(-89.71)" fill="#f29c5a"/>
      <ellipse id="Ellipse_27" data-name="Ellipse 27" cx="4.55" cy="7.89" rx="4.55" ry="7.89" transform="translate(87.238 70.967) rotate(-89.71)" fill="#ffc91f"/>
      <ellipse id="Ellipse_28" data-name="Ellipse 28" cx="3.53" cy="6.12" rx="3.53" ry="6.12" transform="translate(88.983 69.846) rotate(-89.71)" fill="#f29c5a"/>
      <ellipse id="Ellipse_29" data-name="Ellipse 29" cx="4.55" cy="7.89" rx="4.55" ry="7.89" transform="translate(90.504 68.063) rotate(-89.71)" fill="#f29c5a"/>
      <ellipse id="Ellipse_30" data-name="Ellipse 30" cx="4.55" cy="7.89" rx="4.55" ry="7.89" transform="translate(90.504 66.635) rotate(-89.71)" fill="#ffc91f"/>
      <ellipse id="Ellipse_31" data-name="Ellipse 31" cx="3.53" cy="6.12" rx="3.53" ry="6.12" transform="translate(92.249 65.514) rotate(-89.71)" fill="#f29c5a"/>
      <ellipse id="Ellipse_32" data-name="Ellipse 32" cx="4.55" cy="7.89" rx="4.55" ry="7.89" transform="matrix(0.01, -1, 1, 0.01, 149.892, 70.082)" fill="#f29c5a"/>
      <ellipse id="Ellipse_33" data-name="Ellipse 33" cx="4.55" cy="7.89" rx="4.55" ry="7.89" transform="translate(149.071 68.053) rotate(-89.71)" fill="#ffc91f"/>
      <ellipse id="Ellipse_34" data-name="Ellipse 34" cx="3.53" cy="6.12" rx="3.53" ry="6.12" transform="translate(150.806 66.932) rotate(-89.71)" fill="#f29c5a"/>
      <ellipse id="Ellipse_35" data-name="Ellipse 35" cx="4.55" cy="7.89" rx="4.55" ry="7.89" transform="matrix(0.01, -1, 1, 0.01, 153.236, 66.981)" fill="#f29c5a"/>
      <ellipse id="Ellipse_36" data-name="Ellipse 36" cx="4.55" cy="7.89" rx="4.55" ry="7.89" transform="translate(152.398 64.978) rotate(-89.71)" fill="#ffc91f"/>
      <ellipse id="Ellipse_37" data-name="Ellipse 37" cx="3.53" cy="6.12" rx="3.53" ry="6.12" transform="translate(154.143 63.856) rotate(-89.71)" fill="#f29c5a"/>
      <ellipse id="Ellipse_38" data-name="Ellipse 38" cx="4.55" cy="7.89" rx="4.55" ry="7.89" transform="matrix(0.01, -1, 1, 0.01, 150.337, 62.022)" fill="#f29c5a"/>
      <ellipse id="Ellipse_39" data-name="Ellipse 39" cx="4.55" cy="7.89" rx="4.55" ry="7.89" transform="translate(149.503 60.033) rotate(-89.71)" fill="#ffc91f"/>
      <ellipse id="Ellipse_40" data-name="Ellipse 40" cx="3.53" cy="6.12" rx="3.53" ry="6.12" transform="translate(151.248 58.911) rotate(-89.71)" fill="#f29c5a"/>
      <ellipse id="Ellipse_41" data-name="Ellipse 41" cx="4.55" cy="7.89" rx="4.55" ry="7.89" transform="translate(96.193 50.112) rotate(-89.71)" fill="#f29c5a"/>
      <ellipse id="Ellipse_42" data-name="Ellipse 42" cx="4.55" cy="7.89" rx="4.55" ry="7.89" transform="translate(96.193 48.685) rotate(-89.71)" fill="#ffc91f"/>
      <ellipse id="Ellipse_43" data-name="Ellipse 43" cx="3.53" cy="6.12" rx="3.53" ry="6.12" transform="translate(97.938 47.563) rotate(-89.71)" fill="#f29c5a"/>
      <ellipse id="Ellipse_44" data-name="Ellipse 44" cx="4.55" cy="7.89" rx="4.55" ry="7.89" transform="translate(137.261 85.954) rotate(-89.71)" fill="#f29c5a"/>
      <ellipse id="Ellipse_45" data-name="Ellipse 45" cx="4.55" cy="7.89" rx="4.55" ry="7.89" transform="translate(137.271 84.516) rotate(-89.71)" fill="#ffc91f"/>
      <ellipse id="Ellipse_46" data-name="Ellipse 46" cx="3.53" cy="6.12" rx="3.53" ry="6.12" transform="translate(139.006 83.405) rotate(-89.71)" fill="#f29c5a"/>
      <path id="Path_2056" data-name="Path 2056" d="M140.82,71c-6.07,3.5-15.94,3.48-22,0-3-1.77-4.57-4.07-4.6-6.38,0-.87.25-13,.16-12.59-.3,1.52,2.48,7.33,4.37,6.24,6.07-3.51,15.94-3.49,22,0,1.52.89,3.76-6.67,4.52-5.59,0,0-.14,10.22,0,11.08C145.72,66.35,144.23,69,140.82,71Z" fill="#412d58"/>
      <path id="Path_2057" data-name="Path 2057" d="M140.82,71c-6.07,3.5-15.94,3.48-22,0-3-1.77-4.57-4.07-4.6-6.38,0-.87.25-13,.16-12.59-.3,1.52,2.48,7.33,4.37,6.24,6.07-3.51,15.94-3.49,22,0,1.52.89,3.76-6.67,4.52-5.59,0,0-.14,10.22,0,11.08C145.72,66.35,144.23,69,140.82,71Z" fill="url(#linear-gradient)"/>
      <ellipse id="Ellipse_47" data-name="Ellipse 47" cx="9" cy="15.59" rx="9" ry="15.59" transform="translate(114.131 62.021) rotate(-89.71)" fill="#412d58"/>
      <path id="Path_2058" data-name="Path 2058" d="M145.34,59.83c.14,2.4-1.37,4.83-4.52,6.66-6.1,3.5-15.94,3.48-22,0-3.2-1.84-4.72-4.27-4.57-6.69.19,2.17,1.72,4.3,4.57,5.93,6.09,3.56,16,3.56,22,0C143.64,64.09,145.16,62,145.34,59.83Z" fill="#412d58"/>
      <ellipse id="Ellipse_48" data-name="Ellipse 48" cx="6.94" cy="12.02" rx="6.94" ry="12.02" transform="translate(117.812 59.848) rotate(-89.71)" fill="url(#linear-gradient-2)"/>
      <path id="Path_2073" data-name="Path 2073" d="M217.47,101a11.41,11.41,0,0,1-10.26,0,3.66,3.66,0,0,1-2.14-3c0-.4.11-6,.07-5.85-.14.71,1.16,3.4,2,2.9a11.41,11.41,0,0,1,10.26,0c.71.41,1.74-3.1,2.1-2.59,0,0-.07,4.75,0,5.15C219.74,98.81,219.05,100.05,217.47,101Z" fill="#412d58"/>
      <path id="Path_2074" data-name="Path 2074" d="M217.47,101a11.41,11.41,0,0,1-10.26,0,3.66,3.66,0,0,1-2.14-3c0-.4.11-6,.07-5.85-.14.71,1.16,3.4,2,2.9a11.41,11.41,0,0,1,10.26,0c.71.41,1.74-3.1,2.1-2.59,0,0-.07,4.75,0,5.15C219.74,98.81,219.05,100.05,217.47,101Z" fill="url(#linear-gradient-3)"/>
      <ellipse id="Ellipse_49" data-name="Ellipse 49" cx="4.19" cy="7.25" rx="4.19" ry="7.25" transform="translate(205.062 96.794) rotate(-89.71)" fill="#412d58"/>
      <path id="Path_2075" data-name="Path 2075" d="M219.57,95.78c.07,1.11-.64,2.24-2.11,3.09a11.38,11.38,0,0,1-10.25,0c-1.49-.86-2.2-2-2.13-3.11a3.72,3.72,0,0,0,2.13,2.76,11.26,11.26,0,0,0,10.25,0A3.67,3.67,0,0,0,219.57,95.78Z" fill="#412d58"/>
      <ellipse id="Ellipse_50" data-name="Ellipse 50" cx="3.23" cy="5.59" rx="3.23" ry="5.59" transform="translate(206.767 95.792) rotate(-89.71)" fill="url(#linear-gradient-4)"/>
      <path id="Path_2073-2" data-name="Path 2073" d="M181.35,63.18a11.41,11.41,0,0,1-10.26,0,3.62,3.62,0,0,1-2.13-3c0-.4.11-6.05.07-5.85-.15.71,1.15,3.4,2,2.9a11.38,11.38,0,0,1,10.25,0c.72.41,1.75-3.1,2.11-2.59,0,0-.07,4.75,0,5.15C183.63,61,182.94,62.26,181.35,63.18Z" fill="#412d58"/>
      <path id="Path_2074-2" data-name="Path 2074" d="M181.35,63.18a11.41,11.41,0,0,1-10.26,0,3.62,3.62,0,0,1-2.13-3c0-.4.11-6.05.07-5.85-.15.71,1.15,3.4,2,2.9a11.38,11.38,0,0,1,10.25,0c.72.41,1.75-3.1,2.11-2.59,0,0-.07,4.75,0,5.15C183.63,61,182.94,62.26,181.35,63.18Z" fill="url(#linear-gradient-5)"/>
      <ellipse id="Ellipse_49-2" data-name="Ellipse 49" cx="4.19" cy="7.25" rx="4.19" ry="7.25" transform="translate(168.94 59.003) rotate(-89.71)" fill="#412d58"/>
      <path id="Path_2075-2" data-name="Path 2075" d="M183.45,58c.07,1.12-.63,2.24-2.1,3.1a11.47,11.47,0,0,1-10.26,0c-1.48-.87-2.19-2-2.13-3.12a3.72,3.72,0,0,0,2.13,2.76,11.28,11.28,0,0,0,10.26,0,3.66,3.66,0,0,0,2.1-2.74Z" fill="#412d58"/>
      <ellipse id="Ellipse_50-2" data-name="Ellipse 50" cx="3.23" cy="5.59" rx="3.23" ry="5.59" transform="translate(170.645 57.991) rotate(-89.71)" fill="url(#linear-gradient-6)"/>
      <path id="Path_2076" data-name="Path 2076" d="M188.86,128.39a11.41,11.41,0,0,1-10.26,0,3.64,3.64,0,0,1-2.14-3c0-.4.11-6.05.08-5.86-.14.71,1.15,3.41,2,2.9a11.41,11.41,0,0,1,10.26,0c.71.41,1.74-3.1,2.1-2.59,0,0-.07,4.76,0,5.15C191.14,126.24,190.45,127.47,188.86,128.39Z" fill="#412d58"/>
      <path id="Path_2077" data-name="Path 2077" d="M188.86,128.39a11.41,11.41,0,0,1-10.26,0,3.64,3.64,0,0,1-2.14-3c0-.4.11-6.05.08-5.86-.14.71,1.15,3.41,2,2.9a11.41,11.41,0,0,1,10.26,0c.71.41,1.74-3.1,2.1-2.59,0,0-.07,4.76,0,5.15C191.14,126.24,190.45,127.47,188.86,128.39Z" fill="url(#linear-gradient-7)"/>
      <ellipse id="Ellipse_51" data-name="Ellipse 51" cx="4.19" cy="7.25" rx="4.19" ry="7.25" transform="translate(176.447 124.233) rotate(-89.71)" fill="#412d58"/>
      <path id="Path_2078" data-name="Path 2078" d="M191,123.2c.07,1.12-.63,2.25-2.1,3.1a11.41,11.41,0,0,1-10.26,0c-1.48-.86-2.19-2-2.13-3.11A3.79,3.79,0,0,0,178.6,126a11.28,11.28,0,0,0,10.26,0A3.76,3.76,0,0,0,191,123.2Z" fill="#412d58"/>
      <ellipse id="Ellipse_52" data-name="Ellipse 52" cx="3.23" cy="5.59" rx="3.23" ry="5.59" transform="translate(178.162 123.211) rotate(-89.71)" fill="url(#linear-gradient-8)"/>
      <path id="Path_2079" data-name="Path 2079" d="M89.86,12.51a11.38,11.38,0,0,1-10.25,0,3.65,3.65,0,0,1-2.15-3c0-.4.12-6,.08-5.85-.14.71,1.15,3.41,2,2.9a11.41,11.41,0,0,1,10.26,0c.71.41,1.74-3.1,2.1-2.59,0,0-.07,4.75,0,5.15C92.14,10.35,91.45,11.59,89.86,12.51Z" fill="#412d58"/>
      <path id="Path_2080" data-name="Path 2080" d="M89.86,12.51a11.38,11.38,0,0,1-10.25,0,3.65,3.65,0,0,1-2.15-3c0-.4.12-6,.08-5.85-.14.71,1.15,3.41,2,2.9a11.41,11.41,0,0,1,10.26,0c.71.41,1.74-3.1,2.1-2.59,0,0-.07,4.75,0,5.15C92.14,10.35,91.45,11.59,89.86,12.51Z" fill="url(#linear-gradient-9)"/>
      <ellipse id="Ellipse_53" data-name="Ellipse 53" cx="4.19" cy="7.25" rx="4.19" ry="7.25" transform="translate(77.447 8.345) rotate(-89.71)" fill="#412d58"/>
      <path id="Path_2081" data-name="Path 2081" d="M92,7.32c.07,1.12-.63,2.24-2.1,3.1a11.47,11.47,0,0,1-10.26,0c-1.48-.87-2.19-2-2.13-3.12a3.75,3.75,0,0,0,2.13,2.76,11.38,11.38,0,0,0,10.26,0A3.8,3.8,0,0,0,92,7.32Z" fill="#412d58"/>
      <ellipse id="Ellipse_54" data-name="Ellipse 54" cx="3.23" cy="5.59" rx="3.23" ry="5.59" transform="translate(79.163 7.333) rotate(-89.71)" fill="url(#linear-gradient-10)"/>
      <path id="Path_2082" data-name="Path 2082" d="M66.37,50a11.39,11.39,0,0,1-10.25,0A3.64,3.64,0,0,1,54,47c0-.41.12-6.05.08-5.86-.14.71,1.15,3.41,2,2.9a11.38,11.38,0,0,1,10.25,0c.72.41,1.75-3.1,2.11-2.59,0,0-.07,4.76,0,5.15C68.65,47.83,68,49.08,66.37,50Z" fill="#412d58"/>
      <path id="Path_2083" data-name="Path 2083" d="M66.37,50a11.39,11.39,0,0,1-10.25,0A3.64,3.64,0,0,1,54,47c0-.41.12-6.05.08-5.86-.14.71,1.15,3.41,2,2.9a11.38,11.38,0,0,1,10.25,0c.72.41,1.75-3.1,2.11-2.59,0,0-.07,4.76,0,5.15C68.65,47.83,68,49.08,66.37,50Z" fill="url(#linear-gradient-11)"/>
      <ellipse id="Ellipse_55" data-name="Ellipse 55" cx="4.19" cy="7.25" rx="4.19" ry="7.25" transform="translate(53.958 45.825) rotate(-89.71)" fill="#412d58"/>
      <path id="Path_2084" data-name="Path 2084" d="M68.49,44.8a3.53,3.53,0,0,1-2.11,3.1,11.42,11.42,0,0,1-10.25,0c-1.49-.86-2.2-2-2.14-3.12a3.76,3.76,0,0,0,2.14,2.76,11.32,11.32,0,0,0,10.25,0,3.87,3.87,0,0,0,2.11-2.74Z" fill="#412d58"/>
      <ellipse id="Ellipse_56" data-name="Ellipse 56" cx="3.23" cy="5.59" rx="3.23" ry="5.59" transform="translate(55.663 44.813) rotate(-89.71)" fill="url(#linear-gradient-12)"/>
      <path id="Path_2085" data-name="Path 2085" d="M12.4,51.49a11.41,11.41,0,0,1-10.26,0,3.67,3.67,0,0,1-2.14-3c0-.4.12-6.05.08-5.85-.14.71,1.15,3.4,2,2.9a11.37,11.37,0,0,1,10.26,0c.71.41,1.74-3.1,2.1-2.59,0,0-.07,4.75,0,5.15C14.66,49.33,14,50.57,12.4,51.49Z" fill="#412d58"/>
      <path id="Path_2086" data-name="Path 2086" d="M12.4,51.49a11.41,11.41,0,0,1-10.26,0,3.67,3.67,0,0,1-2.14-3c0-.4.12-6.05.08-5.85-.14.71,1.15,3.4,2,2.9a11.37,11.37,0,0,1,10.26,0c.71.41,1.74-3.1,2.1-2.59,0,0-.07,4.75,0,5.15C14.66,49.33,14,50.57,12.4,51.49Z" fill="url(#linear-gradient-13)"/>
      <ellipse id="Ellipse_57" data-name="Ellipse 57" cx="4.19" cy="7.25" rx="4.19" ry="7.25" transform="translate(-0.015 47.322) rotate(-89.71)" fill="#412d58"/>
      <path id="Path_2087" data-name="Path 2087" d="M14.5,46.3a3.53,3.53,0,0,1-2.1,3.1,11.41,11.41,0,0,1-10.26,0c-1.48-.86-2.2-2-2.13-3.12A3.72,3.72,0,0,0,2.14,49,11.38,11.38,0,0,0,12.4,49a3.8,3.8,0,0,0,2.1-2.7Z" fill="#412d58"/>
      <ellipse id="Ellipse_58" data-name="Ellipse 58" cx="3.23" cy="5.59" rx="3.23" ry="5.59" transform="translate(1.68 46.31) rotate(-89.71)" fill="url(#linear-gradient-14)"/>
    </g>
  </g>
</svg>
