<svg xmlns="http://www.w3.org/2000/svg" xmlns:xlink="http://www.w3.org/1999/xlink" width="115.928" height="137.907" viewBox="0 0 115.928 137.907">
  <defs>
    <linearGradient id="linear-gradient" x1="0.932" y1="0.523" x2="0.23" y2="0.546" gradientUnits="objectBoundingBox">
      <stop offset="0" stop-color="#fff"/>
      <stop offset="0.473" stop-color="#fff"/>
      <stop offset="1" stop-color="#bfb6ca"/>
    </linearGradient>
    <filter id="Path_2279" x="0" y="0" width="115.928" height="92.228" filterUnits="userSpaceOnUse">
      <feOffset dy="3" input="SourceAlpha"/>
      <feGaussianBlur stdDeviation="3" result="blur"/>
      <feFlood flood-color="#4b306a" flood-opacity="0.749"/>
      <feComposite operator="in" in2="blur"/>
      <feComposite in="SourceGraphic"/>
    </filter>
    <linearGradient id="linear-gradient-2" y1="0.5" x2="1" y2="0.5" gradientUnits="objectBoundingBox">
      <stop offset="0" stop-color="#fff"/>
      <stop offset="1" stop-color="#e3e1ff"/>
    </linearGradient>
    <filter id="Path_2284" x="4.896" y="12.381" width="98.293" height="67.138" filterUnits="userSpaceOnUse">
      <feOffset dy="3" input="SourceAlpha"/>
      <feGaussianBlur stdDeviation="3" result="blur-2"/>
      <feFlood flood-color="#4b306a" flood-opacity="0.502"/>
      <feComposite operator="in" in2="blur-2"/>
      <feComposite in="SourceGraphic"/>
    </filter>
    <linearGradient id="linear-gradient-3" y1="0.5" x2="1" y2="0.5" gradientUnits="objectBoundingBox">
      <stop offset="0" stop-color="#fff"/>
      <stop offset="1" stop-color="#e3e1ff"/>
      <stop offset="1" stop-color="#78b2f7"/>
    </linearGradient>
  </defs>
  <g id="Group_358" data-name="Group 358" transform="translate(-556.243 526.272)">
    <path id="Path_1847" data-name="Path 1847" d="M-53.167-23.8a11.013,11.013,0,0,1,7.718,2.591,9.078,9.078,0,0,1,2.839,7.056A9.078,9.078,0,0,1-45.449-7.1a11.013,11.013,0,0,1-7.718,2.591H-63.172v-.276h.358a1.672,1.672,0,0,0,1.227-.51,1.774,1.774,0,0,0,.537-1.227V-21.953a1.409,1.409,0,0,0-.537-1.116,1.846,1.846,0,0,0-1.227-.455h-.358V-23.8Zm-.358,18.109a5.8,5.8,0,0,0,3.432-1.02,6.4,6.4,0,0,0,2.219-2.935,11.072,11.072,0,0,0,.772-4.176,14.094,14.094,0,0,0-.455-3.845,8.206,8.206,0,0,0-1.282-2.687,5.53,5.53,0,0,0-4.686-2.288h-3.39V-5.691ZM-22.71-20.768H-23.1a1.283,1.283,0,0,0-.882.317,1.125,1.125,0,0,0-.386.813v9.123a6.073,6.073,0,0,1-1.819,4.672,7.686,7.686,0,0,1-5.416,1.7,8.537,8.537,0,0,1-5.6-1.654,5.709,5.709,0,0,1-2-4.658V-19.61a1.06,1.06,0,0,0-.372-.827,1.3,1.3,0,0,0-.9-.331h-.386v-.276H-33.6v.276h-.386a1.252,1.252,0,0,0-.882.331,1.079,1.079,0,0,0-.358.827v8.958a6.1,6.1,0,0,0,1.171,3.969A4.015,4.015,0,0,0-30.758-5.25,4.3,4.3,0,0,0-27.409-6.6a5.372,5.372,0,0,0,1.227-3.749V-19.61a1.154,1.154,0,0,0-.386-.841,1.283,1.283,0,0,0-.882-.317h-.358v-.276h5.1Zm8.324.854h-.882V-6.243a1.343,1.343,0,0,0,.455,1.061,1.523,1.523,0,0,0,1.034.4h.3v.276h-7.58v-.276h.331A1.432,1.432,0,0,0-19.692-5.2a1.363,1.363,0,0,0,.427-1.02v-13.12a1.363,1.363,0,0,0-.427-1.02,1.4,1.4,0,0,0-1.006-.413h-.358v-.276h8.462a8.253,8.253,0,0,1,4.162.965,3.774,3.774,0,0,1,1.874,3.556,4.67,4.67,0,0,1-.965,2.88,4.153,4.153,0,0,1-2.867,1.557,4.052,4.052,0,0,1,1.475.937A6.992,6.992,0,0,1-7.744-9.743,27.757,27.757,0,0,0-5.9-6.863a7.293,7.293,0,0,0,1.557,1.7,2.6,2.6,0,0,0,1.447.386v.276H-5.208a8.852,8.852,0,0,1-3.514-.551,5.2,5.2,0,0,1-2.191-2.095A14.835,14.835,0,0,1-12.76-10.9a3.317,3.317,0,0,0-.786-1.24,1.666,1.666,0,0,0-.868-.469v-.221h.689q2.343-.028,2.867-2.756a2.841,2.841,0,0,0,.11-.717q0-.3-.028-.841a3.309,3.309,0,0,0-.345-1.213,2.192,2.192,0,0,0-.813-.978,3.544,3.544,0,0,0-1.764-.551Q-14-19.914-14.386-19.914ZM-3.141-4.782h.331a1.618,1.618,0,0,0,1.13-.427,1.348,1.348,0,0,0,.469-1.034V-19.307a1.348,1.348,0,0,0-.469-1.034,1.618,1.618,0,0,0-1.13-.427h-.331v-.276H4.687v.276H4.356a1.613,1.613,0,0,0-1.1.413,1.4,1.4,0,0,0-.5,1.02V-6.243a1.424,1.424,0,0,0,.5,1.047,1.613,1.613,0,0,0,1.1.413h.331v.276H-3.141ZM21.583-17.13v-.248a2.593,2.593,0,0,0-.662-1.874,2.526,2.526,0,0,0-1.847-.717h-3.2V-6.215a1.437,1.437,0,0,0,.469,1.02,1.479,1.479,0,0,0,1.047.413h.3v.276H10.09v-.276h.276A1.514,1.514,0,0,0,11.44-5.2a1.374,1.374,0,0,0,.441-1.047V-19.969H8.711a2.562,2.562,0,0,0-1.874.717,2.593,2.593,0,0,0-.662,1.874v.248H5.9v-4.355a7.74,7.74,0,0,0,1.282.276,10.707,10.707,0,0,0,1.612.138H18.965a9.223,9.223,0,0,0,2-.179,7.283,7.283,0,0,0,.9-.234v4.355Zm19.79-3.638h-.358a2.625,2.625,0,0,0-1.364.386,3.46,3.46,0,0,0-1.061.965l-4.906,7.552v5.623a1.486,1.486,0,0,0,.469,1.034,1.521,1.521,0,0,0,1.1.427h.3v.276H27.84v-.276h.331a1.487,1.487,0,0,0,1.075-.427,1.486,1.486,0,0,0,.469-1.034v-5.623l-4.879-7.552A2.936,2.936,0,0,0,23.8-20.4a2.748,2.748,0,0,0-1.392-.372h-.331v-.276h8.379v.276h-.3a.85.85,0,0,0-.758.345,1.106,1.106,0,0,0-.234.579.846.846,0,0,0,.11.427l3.666,6.339,3.721-6.339a1.074,1.074,0,0,0,.083-.427,1.106,1.106,0,0,0-.234-.579.85.85,0,0,0-.758-.345h-.276v-.276h5.9Z" transform="translate(625.172 -384.217)" fill="#fff"/>
    <g id="Group_357" data-name="Group 357" transform="translate(565.243 -520.272)">
      <g transform="matrix(1, 0, 0, 1, -9, -6)" filter="url(#Path_2279)">
        <path id="Path_2279-2" data-name="Path 2279" d="M97.92,37.111A37.113,37.113,0,0,1,64.033,74.088c-1.061.093-2.141.14-3.233.14H31.721l-7.633-7.644V20.1a7.638,7.638,0,0,1,7.638,7.638V66.584H60.606a29.473,29.473,0,0,0,0-58.946H0A7.638,7.638,0,0,1,7.638,0h53.17q1.619,0,3.239.14A37.111,37.111,0,0,1,97.928,37.117Z" transform="translate(9 6)" fill="url(#linear-gradient)"/>
      </g>
      <path id="Path_2281" data-name="Path 2281" d="M95.766,33.389a33.2,33.2,0,0,1-33.2,33.2c-.332,0-.664,0-.991-.016q1.242-.04,2.459-.181A29.473,29.473,0,0,0,60.612,7.638H0A7.638,7.638,0,0,1,7.638,0h53.17q1.619,0,3.239.14c.753.062,1.5.151,2.237.27A36.917,36.917,0,0,1,83.37,7.646q1.244.95,2.4,2h0A33.087,33.087,0,0,1,95.766,33.389Z" transform="translate(0 0)" fill="url(#linear-gradient-2)"/>
      <path id="Path_2282" data-name="Path 2282" d="M142.051,74.463H137.39a.669.669,0,0,1,.356-.1h3.949A.669.669,0,0,1,142.051,74.463Z" transform="translate(-100.308 -54.29)" fill="#fff"/>
      <g transform="matrix(1, 0, 0, 1, -9, -6)" filter="url(#Path_2284)">
        <path id="Path_2284-2" data-name="Path 2284" d="M98.433,71.061A24.811,24.811,0,0,1,91.751,88a24.456,24.456,0,0,1-14.81,7.636H57.64a7.806,7.806,0,0,1-7.579-7.7H50V68.5h-.459a.677.677,0,0,1-.677-.677v-.81a.677.677,0,0,1,.677-.672H50V54.7a.677.677,0,0,1,.321-.575h4.661a.677.677,0,0,1,.321.575v3.239h4.858a.677.677,0,0,1,.677.677v.723a.677.677,0,0,1-.677.677H58.657v2.094h1.509a.677.677,0,0,1,.677.68v.721a.677.677,0,0,1-.677.68H55.308v2.159h.459a.677.677,0,0,1,.677.677v.81a.677.677,0,0,1-.677.677h-.459V87.946l2.391.065H74.15a16.938,16.938,0,1,0,0-33.875l-19.163,0a.669.669,0,0,0-.356-.1H50.682a.669.669,0,0,0-.356.1H18.14A7.635,7.635,0,0,1,25.778,46.5H76.94A24.456,24.456,0,0,1,91.75,54.138,24.8,24.8,0,0,1,98.433,71.061Z" transform="translate(-4.24 -28.12)" fill="#fff"/>
      </g>
      <path id="Path_2285" data-name="Path 2285" d="M142.051,74.463H137.39a.669.669,0,0,1,.356-.1h3.949A.669.669,0,0,1,142.051,74.463Z" transform="translate(-100.308 -54.29)" fill="#fff"/>
      <path id="Path_2283" data-name="Path 2283" d="M97.062,67.8a20.766,20.766,0,0,1-25.676,20.17H74.15a16.938,16.938,0,1,0,0-33.875l-56.01,0a7.635,7.635,0,0,1,7.638-7.638H76.94a24.037,24.037,0,0,1,7.738,2.351A24.688,24.688,0,0,1,91.75,54.1a25.129,25.129,0,0,1,1.87,2.262A20.639,20.639,0,0,1,97.062,67.8Z" transform="translate(-13.244 -34.079)" fill="url(#linear-gradient-3)"/>
      <path id="Path_2280" data-name="Path 2280" d="M96.888,82.1v46.488h0l-7.638-7.638V74.46A7.638,7.638,0,0,1,96.888,82.1Z" transform="translate(-65.161 -54.363)" fill="#fff"/>
    </g>
  </g>
</svg>
