<svg xmlns="http://www.w3.org/2000/svg" xmlns:xlink="http://www.w3.org/1999/xlink" width="32.413" height="36.185" viewBox="0 0 32.413 36.185"><defs><linearGradient id="a" x1="0.915" y1="6.612" x2="-0.383" y2="5.943" gradientUnits="objectBoundingBox"><stop offset="0" stop-color="#00a0ff"/><stop offset="0.01" stop-color="#00a1ff"/><stop offset="0.26" stop-color="#00beff"/><stop offset="0.51" stop-color="#00d2ff"/><stop offset="0.76" stop-color="#00dfff"/><stop offset="1" stop-color="#00e3ff"/></linearGradient><linearGradient id="b" x1="1.08" y1="17.07" x2="-1.311" y2="17.07" gradientUnits="objectBoundingBox"><stop offset="0" stop-color="#ffe000"/><stop offset="0.41" stop-color="#ffbd00"/><stop offset="0.78" stop-color="orange"/><stop offset="1" stop-color="#ff9c00"/></linearGradient><linearGradient id="c" x1="0.862" y1="10.856" x2="-0.501" y2="9.088" gradientUnits="objectBoundingBox"><stop offset="0" stop-color="#ff3a44"/><stop offset="1" stop-color="#ff3a44"/></linearGradient><linearGradient id="d" x1="-0.188" y1="13.575" x2="0.421" y2="12.785" gradientUnits="objectBoundingBox"><stop offset="0" stop-color="#32a071"/><stop offset="0.07" stop-color="#2da771"/><stop offset="0.48" stop-color="#15cf74"/><stop offset="0.8" stop-color="#06e775"/><stop offset="1" stop-color="#00f076"/></linearGradient></defs><g transform="translate(0.004 0.009)"><g transform="translate(-0.004 -0.009)"><path d="M.648.432A2.812,2.812,0,0,0,0,2.4V33.5a2.812,2.812,0,0,0,.647,1.968l.112.112L18.18,18.147v-.422L.761.32Z" transform="translate(0.004 0.142)" fill="url(#a)"/><path d="M18.736,20.619,12.93,14.8v-.422L18.736,8.57l.127.084,6.819,3.923c1.968,1.111,1.968,2.938,0,4.049l-6.875,3.908Z" transform="translate(5.255 3.491)" fill="url(#b)"/><path d="M23.925,18.793,17.992,12.86.46,30.378a2.278,2.278,0,0,0,2.924.084L23.925,18.793" transform="translate(0.193 5.233)" fill="url(#c)"/><path d="M23.925,12.151,3.384.482A2.278,2.278,0,0,0,.46.566L17.992,18.084Z" transform="translate(0.193 0.009)" fill="url(#d)"/><path d="M23.8,17,3.384,28.585a2.334,2.334,0,0,1-2.812,0h0l-.112.1h0l.112.112h0a2.32,2.32,0,0,0,2.812,0L23.925,17.127Z" transform="translate(0.193 6.913)" opacity="0.2"/><path d="M.648,25.752A2.812,2.812,0,0,1,0,23.77v.211a2.812,2.812,0,0,0,.647,1.968l.112-.1Z" transform="translate(0.004 9.661)" opacity="0.12"/><path d="M24.03,14.688,17,18.666l.127.127,6.9-3.908a2.46,2.46,0,0,0,1.476-2.025h0A2.615,2.615,0,0,1,24.03,14.688Z" transform="translate(6.907 5.233)" opacity="0.12"/><path d="M3.571.675,30.931,16.253a2.615,2.615,0,0,1,1.476,1.828h0a2.46,2.46,0,0,0-1.476-2.025L3.571.478C1.6-.647,0,.281,0,2.531v.281C0,.492,1.6-.436,3.571.675Z" transform="translate(0.006 0.012)" fill="#fff" opacity="0.25"/></g></g></svg>