<svg xmlns="http://www.w3.org/2000/svg" xmlns:xlink="http://www.w3.org/1999/xlink" width="366.41" height="371" viewBox="0 0 366.41 371">
  <defs>
    <linearGradient id="linear-gradient" x1="0.528" y1="-3.285" x2="0.464" y2="5.371" gradientUnits="objectBoundingBox">
      <stop offset="0.01"/>
      <stop offset="0.13" stop-opacity="0.69"/>
      <stop offset="1" stop-opacity="0"/>
    </linearGradient>
    <linearGradient id="linear-gradient-2" x1="0.423" y1="0.237" x2="0.875" y2="1.528" xlink:href="#linear-gradient"/>
    <linearGradient id="linear-gradient-3" x1="0.292" y1="-0.067" x2="0.707" y2="0.976" xlink:href="#linear-gradient"/>
    <linearGradient id="linear-gradient-4" x1="0.292" y1="-0.067" x2="0.707" y2="0.975" xlink:href="#linear-gradient"/>
    <linearGradient id="linear-gradient-5" x1="1.778" y1="0.669" x2="-0.704" y2="0.392" xlink:href="#linear-gradient"/>
    <linearGradient id="linear-gradient-6" x1="-0.304" y1="0.981" x2="2.216" y2="-0.271" xlink:href="#linear-gradient"/>
    <linearGradient id="linear-gradient-7" x1="0.399" y1="1.1" x2="0.49" y2="0.161" xlink:href="#linear-gradient"/>
    <linearGradient id="linear-gradient-8" x1="0.596" y1="-1.208" x2="0.342" y2="2.127" xlink:href="#linear-gradient"/>
    <linearGradient id="linear-gradient-9" x1="0.402" y1="-4.378" x2="0.565" y2="3.659" xlink:href="#linear-gradient"/>
  </defs>
  <g id="super_dad" transform="translate(-0.007 0.004)">
    <path id="Path_2143" data-name="Path 2143" d="M39.693,346.526s49.411,42.453,156.89,23.4S340.5,321.386,348.351,258.1s6.063-104.027,20.8-132.637S337.95,24.873,267.728,26.645s-45.941,18.2-94.494-8.675S46.624,2.373,44.021,53.519s-7.8,194.184-32.07,229.724S39.693,346.526,39.693,346.526Z" transform="translate(-5.49 -3.85)" fill="#412d58" opacity="0.41"/>
    <ellipse id="Ellipse_59" data-name="Ellipse 59" cx="101.425" cy="13.871" rx="101.425" ry="13.871" transform="translate(61.068 327.07)" fill="url(#linear-gradient)"/>
    <path id="Path_2144" data-name="Path 2144" d="M164.992,112.072a23.026,23.026,0,0,1,6.663-40.542,35.069,35.069,0,0,1,11.305-1.274c25.066.572,49.337,14.1,74.1,10.152a30.879,30.879,0,0,1,6.552-.692,7.558,7.558,0,0,1,5.777,2.769,6.968,6.968,0,0,1,.655,6.276,14.692,14.692,0,0,1-3.692,5.371,34.212,34.212,0,0,1-10.041,7.042c-2.436,1.117-5.03,1.957-7.272,3.452-2.99,1.984-5.14,4.984-7.8,7.383-6.82,6.146-16.612,8.011-25.767,7.263s-17.922-3.812-26.764-6.46-17.969-4.79-27.087-3.692" transform="translate(-17.062 -8.968)" fill="#412d58"/>
    <path id="Path_2145" data-name="Path 2145" d="M164.992,112.072a23.026,23.026,0,0,1,6.663-40.542,35.069,35.069,0,0,1,11.305-1.274c25.066.572,49.337,14.1,74.1,10.152a30.879,30.879,0,0,1,6.552-.692,7.558,7.558,0,0,1,5.777,2.769,6.968,6.968,0,0,1,.655,6.276,14.692,14.692,0,0,1-3.692,5.371,34.212,34.212,0,0,1-10.041,7.042c-2.436,1.117-5.03,1.957-7.272,3.452-2.99,1.984-5.14,4.984-7.8,7.383-6.82,6.146-16.612,8.011-25.767,7.263s-17.922-3.812-26.764-6.46-17.969-4.79-27.087-3.692" transform="translate(-17.062 -8.968)" fill="url(#linear-gradient-2)"/>
    <path id="Path_2146" data-name="Path 2146" d="M178.044,132.294c-9.866-1.375-19.464,4.845-25.352,12.874s-8.924,17.719-12.634,26.957a184.645,184.645,0,0,1-15.2,29.781c-3.821,6.063-8.075,12.071-9.727,19.039-1.569,6.608-.664,13.557.849,20.174,2.021,8.8,5.177,17.479,10.641,24.659s13.456,12.736,22.408,13.843c9.866,1.264,19.537-2.769,29.3-4.725,20.23-3.987,40.967,1.237,61.446,3.636,10.253,1.2,20.811,1.67,30.769-1.089s19.316-9.173,23.506-18.615c4.107-9.229,2.769-19.879,3.692-29.957,1.08-12.136,5.648-24.124,13.843-33.132,6.46-7.079,14.877-12.117,21.383-19.141s10.992-17.359,7.162-26.136c-16.51,2.215-33.473,4.411-49.651.489-9.506-2.307-18.365-6.654-27.539-10.032a142.743,142.743,0,0,0-30.021-7.5c-9.3-1.274-19.058-1.578-27.807,1.846-4.7,1.846-9.995.6-14.978-.166C186.194,134.527,181.948,132.848,178.044,132.294Z" transform="translate(-13.881 -13.741)" fill="#412d58"/>
    <path id="Path_2147" data-name="Path 2147" d="M178.044,132.294c-9.866-1.375-19.464,4.845-25.352,12.874s-8.924,17.719-12.634,26.957a184.645,184.645,0,0,1-15.2,29.781c-3.821,6.063-8.075,12.071-9.727,19.039-1.569,6.608-.664,13.557.849,20.174,2.021,8.8,5.177,17.479,10.641,24.659s13.456,12.736,22.408,13.843c9.866,1.264,19.537-2.769,29.3-4.725,20.23-3.987,40.967,1.237,61.446,3.636,10.253,1.2,20.811,1.67,30.769-1.089s19.316-9.173,23.506-18.615c4.107-9.229,2.769-19.879,3.692-29.957,1.08-12.136,5.648-24.124,13.843-33.132,6.46-7.079,14.877-12.117,21.383-19.141s10.992-17.359,7.162-26.136c-16.51,2.215-33.473,4.411-49.651.489-9.506-2.307-18.365-6.654-27.539-10.032a142.743,142.743,0,0,0-30.021-7.5c-9.3-1.274-19.058-1.578-27.807,1.846-4.7,1.846-9.995.6-14.978-.166C186.194,134.527,181.948,132.848,178.044,132.294Z" transform="translate(-13.881 -13.741)" fill="url(#linear-gradient-3)"/>
    <path id="Path_2148" data-name="Path 2148" d="M183.214,141.985c-9.044-1.264-17.858,4.448-23.257,11.813s-8.2,16.261-11.591,24.733a169.813,169.813,0,0,1-13.954,27.336c-3.507,5.537-7.383,11.075-8.924,17.461-1.44,6.063-.609,12.44.784,18.513,1.846,8.066,4.753,16.04,9.764,22.629s12.348,11.693,20.553,12.736c9.063,1.163,17.932-2.566,26.893-4.338,18.559-3.692,37.589,1.135,56.379,3.341,9.413,1.1,19.1,1.532,28.24-1s17.719-8.426,21.568-17.092c3.765-8.491,2.566-18.236,3.387-27.484.987-11.139,5.177-22.149,12.708-30.4,5.916-6.46,13.64-11.121,19.621-17.535s10.078-15.966,6.525-23.995c-15.145,2.04-30.7,4.061-45.554.452-8.721-2.113-16.852-6.1-25.269-9.229a131.16,131.16,0,0,0-27.548-6.876c-8.537-1.172-17.489-1.449-25.509,1.707-4.31,1.689-9.173.554-13.751-.157C190.7,144.034,186.813,142.493,183.214,141.985Z" transform="translate(-14.685 -14.489)" fill="url(#linear-gradient-4)"/>
    <path id="Path_2149" data-name="Path 2149" d="M159.337,136.6c-4.679,1-8.371,4.485-11.794,7.817l-16.473,16.04c-1.763,1.717-3.581,3.516-4.365,5.842-1.015,3.018-.092,6.34,1.227,9.229,1.394,3.036,3.452,6.036,6.589,7.171a15.646,15.646,0,0,0,6.617.388l21.476-1.846,1.726,33.879a4.439,4.439,0,0,0,.923,2.962,4.282,4.282,0,0,0,2.03.923,78.879,78.879,0,0,0,32.116,1.707,7.18,7.18,0,0,0,3.544-1.246c1.237-1.024,1.67-2.7,2-4.273a111.309,111.309,0,0,0,2.123-30.9c4.55,5.75,7.6-6.709,14.471-4.19,3.295,1.209,6.719,2.372,10.216,2.132s7.106-2.243,8.177-5.537-.544-6.811-2.28-9.8c-6.432-11.028-16.99-19.842-27.419-27.225-.978-3.064-3.8-.1-6.931-.858-1.052-.258-3.544,3.821-4.614,3.756-1.846-.129,1.846,3.59,0,3.461C187.42,138.288,172.719,133.766,159.337,136.6Z" transform="translate(-14.804 -14.022)" fill="#412d58"/>
    <path id="Path_2150" data-name="Path 2150" d="M200.064,160.646q.351,9.69.683,19.381a25.2,25.2,0,0,0,1.172,8.02,8.417,8.417,0,0,0,5.537,5.463,4.254,4.254,0,0,0,3.83-.784,5.871,5.871,0,0,0,1.43-4.033c.434-5.916-.461-11.914.563-17.747.323-1.846.923-3.848,2.547-4.864,2-1.283,4.614-.526,6.9.1a49.041,49.041,0,0,0,13.6,1.726c-2.612-3.692-7.78-4.43-11.573-6.931-5.537-3.692-8.038-11.075-14.083-13.843a22.3,22.3,0,0,0-5.759-1.477c-2.621-.425-12.2-1.5-10.918,3.83.48,1.975,3.165,2.538,4.319,4.088C199.86,155.6,199.971,158.246,200.064,160.646Z" transform="translate(-20.017 -14.757)" fill="url(#linear-gradient-5)"/>
    <path id="Path_2151" data-name="Path 2151" d="M143.28,166.182a27.816,27.816,0,0,1,20.156-15.265,4.7,4.7,0,0,1,3.147.268c1.255.729,1.643,2.326,1.9,3.756,3.046,17.046,3.978,34.4,4.107,51.682a12.163,12.163,0,0,1-.812,5.473c-.821,1.67-2.7,2.981-4.5,2.51a4.31,4.31,0,0,1-2.842-3.692,17.008,17.008,0,0,1,.314-4.873c1.477-10.7-2.169-21.226-2.769-31.812-.175-3.082.129-7.263-3.6-8.214C157.2,165.748,143.363,166,143.28,166.182Z" transform="translate(-16.115 -15.18)" fill="url(#linear-gradient-6)"/>
    <path id="Path_2152" data-name="Path 2152" d="M237.906,30.464a1.984,1.984,0,0,0,.268-.868,2.575,2.575,0,0,0-.369-1.043c-.923-1.846-.655-4.079-.2-6.109a3.4,3.4,0,0,1,.784-1.744,1.264,1.264,0,0,1,1.735-.129c-.231-1.135.988-2.132,2.141-2.141a5.962,5.962,0,0,1,3.147,1.3c1.458.923,3.064,2.178,3.165,3.922a5.62,5.62,0,0,1-.8,2.769,17.166,17.166,0,0,1-2.639,4.31c-.775.84-1.726,1.532-2.436,2.446a12.09,12.09,0,0,0-1.6,3.2l-1.071,2.769a4.042,4.042,0,0,1-.812,1.477c-1.67,1.634-5.057-.323-5.3-2.381-.129-1.172.923-2.28,1.467-3.2a45.972,45.972,0,0,0,2.519-4.577Z" transform="translate(-23.104 -4.975)" fill="#f3bd8f"/>
    <path id="Path_2153" data-name="Path 2153" d="M139.529,32.814a1.966,1.966,0,0,1-.258-.868,2.51,2.51,0,0,1,.36-1.043c.923-1.846.664-4.079.2-6.109a3.387,3.387,0,0,0-.775-1.744,1.274,1.274,0,0,0-1.735-.138c.222-1.126-1-2.123-2.15-2.132a5.916,5.916,0,0,0-3.147,1.3c-1.449.923-3.055,2.178-3.156,3.913a5.666,5.666,0,0,0,.794,2.769,17.211,17.211,0,0,0,2.639,4.3c.784.849,1.735,1.541,2.436,2.455a11.822,11.822,0,0,1,1.634,3.175l1.071,2.769a3.931,3.931,0,0,0,.821,1.477c1.661,1.634,5.057-.323,5.288-2.381.138-1.181-.923-2.28-1.467-3.2a49.075,49.075,0,0,1-2.556-4.541Z" transform="translate(-15.004 -5.156)" fill="#f3bd8f"/>
    <path id="Path_2154" data-name="Path 2154" d="M174.445,71.073c-11.075-4.614-18.19-15.228-24.623-25.324a16.658,16.658,0,0,0-3.433-4.282,5.685,5.685,0,0,0-5.14-1.255c-2.215.72-3.461,3.193-3.488,5.537a16.605,16.605,0,0,0,1.846,6.672c3.692,8.694,7.475,17.433,12.607,25.379a60.636,60.636,0,0,1,4.079,6.7,43.14,43.14,0,0,1,3.046,11.287q1.2,6.839,2.372,13.686c.923,5.288,1.984,10.964,5.851,14.683,4.559,4.384,11.555,4.707,17.885,4.614a18.845,18.845,0,0,0,7.291-1.08c3.553-1.541,5.842-5.039,7.383-8.564,5.537-12.21,5.02-26.228,8.407-39.186s17.6-20.793,23.137-33a7.023,7.023,0,0,0,.831-2.981c-.046-2.981-3.747-4.771-6.626-4.042s-5.039,3.082-7,5.325L203.3,62.97c-1.79,2.04-3.692,4.135-6.137,5.233a18.8,18.8,0,0,1-6.368,1.218C185.427,69.818,179.419,73.149,174.445,71.073Z" transform="translate(-15.689 -6.619)" fill="#412d58"/>
    <path id="Path_2155" data-name="Path 2155" d="M174.445,71.073c-11.075-4.614-18.19-15.228-24.623-25.324a16.658,16.658,0,0,0-3.433-4.282,5.685,5.685,0,0,0-5.14-1.255c-2.215.72-3.461,3.193-3.488,5.537a16.605,16.605,0,0,0,1.846,6.672c3.692,8.694,7.475,17.433,12.607,25.379a60.636,60.636,0,0,1,4.079,6.7,43.14,43.14,0,0,1,3.046,11.287q1.2,6.839,2.372,13.686c.923,5.288,1.984,10.964,5.851,14.683,4.559,4.384,11.555,4.707,17.885,4.614a18.845,18.845,0,0,0,7.291-1.08c3.553-1.541,5.842-5.039,7.383-8.564,5.537-12.21,5.02-26.228,8.407-39.186s17.6-20.793,23.137-33a7.023,7.023,0,0,0,.831-2.981c-.046-2.981-3.747-4.771-6.626-4.042s-5.039,3.082-7,5.325L203.3,62.97c-1.79,2.04-3.692,4.135-6.137,5.233a18.8,18.8,0,0,1-6.368,1.218C185.427,69.818,179.419,73.149,174.445,71.073Z" transform="translate(-15.689 -6.619)" fill="url(#linear-gradient-7)"/>
    <path id="Path_2156" data-name="Path 2156" d="M179.043,70.938a1.966,1.966,0,0,1,.4.545c1.071,2.03.452,4.614,1.846,6.525a4.864,4.864,0,0,0,2.9,1.744,5.971,5.971,0,0,0,6.46-2.63c1.218-2.178.674-4.864,2.058-7,.7-1.08,1.615-1.993,2.4-3.009,3.848-4.984,3.839-12.274,3.258-18.245-.351-3.535-1.467-7.383-4.255-9.543s-6.525-2.418-9.986-1.984a12.274,12.274,0,0,0-4.1,1.107,10.429,10.429,0,0,0-4.993,6.866,30.981,30.981,0,0,0-.517,8.721l.222,6.359a22.877,22.877,0,0,0,.812,6.294,6.9,6.9,0,0,0,1.578,2.769C177.723,70.1,178.489,70.394,179.043,70.938Z" transform="translate(-18.516 -6.42)" fill="#f3bd8f"/>
    <path id="Path_2157" data-name="Path 2157" d="M171.291,38.538a15.366,15.366,0,0,0-.664,4.448,14.083,14.083,0,0,0,.48,4.974c.314.923.8,1.846,1.126,2.769.757,2.206.775,4.947,2.658,6.322a39.961,39.961,0,0,1,1.486-11.582,7.7,7.7,0,0,0,6.589,1.652c1.541-.332,2.935-1.135,4.43-1.615a5.113,5.113,0,0,1,4.541.3c.729.526,1.311,1.394,2.206,1.458a5.251,5.251,0,0,1,1.32,0c.609.212.8.923.923,1.606l1.163,7.042a1.421,1.421,0,0,0,.757-.711c1.846-3,1.846-6.737,1.624-10.253a16.159,16.159,0,0,0-1.421-6.3,18.07,18.07,0,0,0-2.261-3.175c-1.394-1.68-2.87-3.424-4.9-4.227a13.068,13.068,0,0,0-4.753-.609,12.726,12.726,0,0,0-3.839.378c-2.492.784-4.181,2.935-6.82,3.322C173.432,34.727,172.1,36.129,171.291,38.538Z" transform="translate(-18.22 -5.914)" fill="#3e3e54"/>
    <path id="Path_2158" data-name="Path 2158" d="M179.43,73.678s7.466,3.064,13.1-.978c0,0-1.227,8.518-5.537,8.814S181,79.345,181,79.345,181.35,75.118,179.43,73.678Z" transform="translate(-18.903 -9.16)" fill="url(#linear-gradient-8)"/>
    <path id="Path_2159" data-name="Path 2159" d="M162.1,135.659a47.418,47.418,0,0,0-.849,11.878,2.076,2.076,0,0,0,1.846,2.51,45.165,45.165,0,0,0,8.952,1.375,6.875,6.875,0,0,0,2.676-.24,6.562,6.562,0,0,0,2.769-2.353,28.073,28.073,0,0,0,3.812-6.663c.452-1.117.923-2.39,2.076-2.769a4.042,4.042,0,0,1,1.523-.148c2.667.1,5.694.378,7.3,2.5a13.143,13.143,0,0,1,1.449,3.165,11.923,11.923,0,0,0,4.984,6.008,13.6,13.6,0,0,0,7.854,1.421,21.613,21.613,0,0,0,7.152-1.846,1.67,1.67,0,0,0,1.209-2.335,129.664,129.664,0,0,0-6.894-20.451,11.212,11.212,0,0,0-1.486-2.686c-2.233-2.769-6.285-2.861-9.8-2.769-5.62.148-11.25.3-16.852.923a82.72,82.72,0,0,0-8.638,1.329c-2.861.6-4.171,1-5.842,3.452a22.943,22.943,0,0,0-3.239,7.7Z" transform="translate(-17.496 -12.98)" fill="#3e3e54"/>
    <path id="Path_2160" data-name="Path 2160" d="M180.7,144.923a9.229,9.229,0,0,0,.258,2.473,7.882,7.882,0,0,0,1.643,2.769,5.324,5.324,0,0,0,1.329,1.246,4.4,4.4,0,0,0,2.169.517,10.373,10.373,0,0,0,6.875-2.842,5.177,5.177,0,0,0,1.781-2.584,5.593,5.593,0,0,0-.166-2.584c-.36-1.514-.868-2.981-1.375-4.448a2.316,2.316,0,0,0-.406-.794,2.279,2.279,0,0,0-1.772-.517q-3.544,0-7.079.332a8.361,8.361,0,0,0-2.658.4c-.766.378-.646,1.172-.637,1.92C180.659,142.2,180.677,143.548,180.7,144.923Z" transform="translate(-18.997 -14.206)" fill="#f3bd8f"/>
    <path id="Path_2161" data-name="Path 2161" d="M191.548,146.787a7.171,7.171,0,0,0,2.981-.729,5.14,5.14,0,0,0,2.289-3.295,15.3,15.3,0,0,0,.286-4.107,2.427,2.427,0,0,0-.277-1.3,2.326,2.326,0,0,0-1.117-.757c-3.941-1.587-12.69-3.082-14.508,2.418C179.144,145.273,187.173,147.156,191.548,146.787Z" transform="translate(-19.014 -13.975)" fill="url(#linear-gradient-9)"/>
    <path id="Path_2162" data-name="Path 2162" d="M184.983,77.55a11,11,0,0,0-7.743,6.156l-2.63-2.316a.72.72,0,0,0-.425-.231.738.738,0,0,0-.48.231,12.745,12.745,0,0,0-4.374,9.626,1.431,1.431,0,0,1-.166.858c-.231.341-.7.4-1.107.5-1.634.434-2.6,2.2-2.769,3.885a32.3,32.3,0,0,0,.258,5.076c.083,1.633-.12,3.267.046,4.891a10.927,10.927,0,0,0,6.414,8.7c3.138,1.347,6.719,1.117,10.087.563s6.728-1.421,10.152-1.255a13.354,13.354,0,0,0,4.458-.092,8.1,8.1,0,0,0,2.316-1.227A14.213,14.213,0,0,0,203.5,108.3a15.375,15.375,0,0,0,1.467-7.457,17.664,17.664,0,0,0-.868-6.054,35.787,35.787,0,0,1-1.587-3.9c-.212-.923-.24-1.846-.48-2.769-.766-2.889-3.645-4.827-6.58-5.38a15.818,15.818,0,0,0-4.227-.166c-1.172.092-3.009.812-4.144.572S184.042,77.735,184.983,77.55Z" transform="translate(-17.811 -9.534)" fill="#3e3e54"/>
    <path id="Path_2163" data-name="Path 2163" d="M171.919,116.708l.166,3.479a38.513,38.513,0,0,0,.923,7.974,12.727,12.727,0,0,0,4.07,6.783,12.3,12.3,0,0,0,4.614,2.224,18.245,18.245,0,0,0,12-.867,10.152,10.152,0,0,0,3.433-2.289c1.966-2.132,2.418-5.251,2.307-8.14s-.72-5.777-.48-8.666a6.738,6.738,0,0,0,0-1.846,1.763,1.763,0,0,0-1.061-1.394,33.039,33.039,0,0,0,2-10.226c.083-1.846-.092-3.876-1.44-5.131a6.174,6.174,0,0,0-3.129-1.31c-7.217-1.329-14.637,1.172-21.069,4.716a6.174,6.174,0,0,0-2.981,2.769,5.925,5.925,0,0,0-.3,2.483C171.042,110.137,171.744,113.81,171.919,116.708Z" transform="translate(-18.249 -11.029)" fill="#f3bd8f"/>
    <path id="Path_2164" data-name="Path 2164" d="M164.076,148.928l.664,14.582.526,11.61c0,.831.083,1.67.12,2.5a4.689,4.689,0,0,1-.046,2.427c-1.024,1.938-3.636,2.972-5.537,3.765a29.275,29.275,0,0,1-6.036,2.049,5.474,5.474,0,0,0-1.375.351,1.477,1.477,0,0,0-.923,1.043,1.7,1.7,0,0,0,.618,1.421,5.537,5.537,0,0,0,4.254,1.227,41.59,41.59,0,0,0,4.476-.858c3.793-.7,7.835-.148,11.435-1.541a2.316,2.316,0,0,0,1.283-.923,2.694,2.694,0,0,0,.24-1.117c.194-3.165.572-6.276.729-9.478l.923-18.356.526-10.872S168.774,141.775,164.076,148.928Z" transform="translate(-16.747 -14.741)" fill="#f3bd8f"/>
    <path id="Path_2165" data-name="Path 2165" d="M213.727,146.953l1.467,14.489,1.135,11.241c.138,1.366-.083,3.645.415,4.882.729,1.781,3.692,2.436,5.436,2.612a22.989,22.989,0,0,0,6.349-.5c1.052-.194,2.252-.369,3.082.3a2.51,2.51,0,0,1,.1,3.359,6.672,6.672,0,0,1-3.129,1.91,50.925,50.925,0,0,1-10.715,2.63,14.581,14.581,0,0,1-4.864,0,6.008,6.008,0,0,1-3.968-2.6c-1.107-1.846-.609-3.895-.923-5.9-.157-1.061-.425-2.123-.628-3.175L201.6,146.528S208.042,140.557,213.727,146.953Z" transform="translate(-20.613 -14.658)" fill="#f3bd8f"/>
    <path id="Path_2166" data-name="Path 2166" d="M215.562,172.453a2.907,2.907,0,0,0-1.292-.194h-4.956a2.39,2.39,0,0,0-1.6.4,2.3,2.3,0,0,0-.434,2.021,31.7,31.7,0,0,0,1.569,6.792,1.043,1.043,0,0,0,.341.545c1.024.664,4-.222,5.094-.545a4.614,4.614,0,0,0,2.63-1.55C218.008,178.322,217.352,173.32,215.562,172.453Z" transform="translate(-21.045 -16.836)" fill="#fff"/>
    <path id="Path_2167" data-name="Path 2167" d="M167.67,175.653a2.944,2.944,0,0,1,1.3-.194h5.011a2.418,2.418,0,0,1,1.615.4,2.335,2.335,0,0,1,.443,2.049,32.478,32.478,0,0,1-1.587,6.875,1.061,1.061,0,0,1-.351.554c-1.024.664-4.042-.231-5.15-.563a4.615,4.615,0,0,1-2.658-1.56C165.187,181.587,165.852,176.539,167.67,175.653Z" transform="translate(-17.848 -17.083)" fill="#fff"/>
    <path id="Path_2168" data-name="Path 2168" d="M172.426,162.6a3.968,3.968,0,0,1,2.206.175,4.485,4.485,0,0,1,1.846,2.289c.406.849.748,1.993,0,2.612.194.738.711,1.366.923,2.1s-.166,1.744-.923,1.772a2.769,2.769,0,0,1,.581,1.578,1.264,1.264,0,0,1-.923,1.246c.083.4.065.923-.323,1.034a.748.748,0,0,1-.351,0,40.669,40.669,0,0,0-4.116-1.144,3.738,3.738,0,0,0-3.775,1.44c-.48.821-.581,2-1.458,2.381a2.409,2.409,0,0,1-1.846-.212,2.5,2.5,0,0,1-2.243-2.529,24.573,24.573,0,0,1,0-3.5c.166-2.178.84-4.771,2.769-6.091a17.9,17.9,0,0,1,7.632-3.156Z" transform="translate(-17.556 -16.086)" fill="#f3bd8f"/>
    <path id="Path_2169" data-name="Path 2169" d="M208.147,161.839a3.913,3.913,0,0,0-2.169.48,4.476,4.476,0,0,0-1.532,2.519c-.286.923-.471,2.086.323,2.6-.092.757-.517,1.449-.6,2.206s.4,1.7,1.163,1.624a2.769,2.769,0,0,0-.36,1.643,1.274,1.274,0,0,0,1.126,1.107c0,.4.065.923.461.978a.923.923,0,0,0,.341-.074,39.692,39.692,0,0,1,3.922-1.707,3.756,3.756,0,0,1,3.941.923c.591.748.849,1.9,1.772,2.16a2.409,2.409,0,0,0,1.753-.461,3.369,3.369,0,0,0,1.846-1.8,3.175,3.175,0,0,0,.055-1.024,24.2,24.2,0,0,0-.48-3.461c-.461-2.132-1.486-4.614-3.535-5.648A17.858,17.858,0,0,0,208.147,161.839Z" transform="translate(-20.81 -16.033)" fill="#f3bd8f"/>
    <path id="Path_2170" data-name="Path 2170" d="M163.6,222.192s-9.589,63.19-9.589,64.057S139,351.562,139,351.562l11.85.572,27.16-80.042,5.786-15.025,12.422,31.5,15.892,66.171h13.843S215.8,284.515,214.4,282.752s-3.415-53.14-9.533-59.2-42.148-4.328-42.148-4.328Z" transform="translate(-15.785 -20.441)" fill="#3e3e54"/>
    <path id="Path_2171" data-name="Path 2171" d="M123.872,369.934a3.507,3.507,0,0,0-1.477,1.615,2.3,2.3,0,0,0,.858,2.363,5.113,5.113,0,0,0,2.455.923c3.987.618,8.011-.563,12-1.329a60.237,60.237,0,0,1,9.367-1.034,3.415,3.415,0,0,0,2.639-.831,3.193,3.193,0,0,0,.508-1.92c.083-1.763.1-3.535.074-5.3a1.846,1.846,0,0,0-2.39-2.141c-3.821,0-8.306-.683-12.044.5C134.134,363.336,123.872,368.338,123.872,369.934Z" transform="translate(-14.5 -31.476)" fill="#3e3e54"/>
    <path id="Path_2172" data-name="Path 2172" d="M244.242,371.655a3.507,3.507,0,0,1,1.467,1.624,2.279,2.279,0,0,1-.849,2.353,5.113,5.113,0,0,1-2.455.923c-4,.618-8.011-.563-12-1.32a57.96,57.96,0,0,0-9.358-1.034,3.378,3.378,0,0,1-2.639-.84,3.184,3.184,0,0,1-.508-1.92c-.083-1.763-.111-3.535-.074-5.3a2.436,2.436,0,0,1,.378-1.541,2.5,2.5,0,0,1,2.012-.6c3.821,0,8.306-.674,12,.5C233.988,365.065,244.242,370.058,244.242,371.655Z" transform="translate(-21.863 -31.609)" fill="#3e3e54"/>
    <path id="Path_2173" data-name="Path 2173" d="M172.453,183.66c-3.35,1.366-7.2-.508-10.742.221a14.9,14.9,0,0,0-3.885,1.624l-5.694,3.082a3.978,3.978,0,0,0-1.846,1.5,2.676,2.676,0,0,0,1.089,3.221,7.134,7.134,0,0,0,3.553.923,110.232,110.232,0,0,0,13.3,0,10.853,10.853,0,0,0,3.581-.563,5.482,5.482,0,0,0,3.3-4.144,5.537,5.537,0,0,0-1.846-5Z" transform="translate(-16.642 -17.717)" fill="#3e3e54"/>
    <path id="Path_2174" data-name="Path 2174" d="M208.293,182.1c3.922.738,7.688-2.141,11.684-2.132a16.52,16.52,0,0,1,4.559.923l6.848,2.03a4.31,4.31,0,0,1,2.289,1.227,2.944,2.944,0,0,1-.471,3.692,7.891,7.891,0,0,1-3.636,1.846,121.136,121.136,0,0,1-14.415,2.9,11.9,11.9,0,0,1-4,.185,5.955,5.955,0,0,1-3.581-9.58Z" transform="translate(-20.974 -17.432)" fill="#3e3e54"/>
  </g>
</svg>
