<svg xmlns="http://www.w3.org/2000/svg" xmlns:xlink="http://www.w3.org/1999/xlink" width="189.177" height="141.187" viewBox="0 0 189.177 141.187"><defs><linearGradient id="a" x1="0.585" y1="-0.522" x2="0.341" y2="3.195" gradientUnits="objectBoundingBox"><stop offset="0.12" stop-color="#010101" stop-opacity="0"/><stop offset="0.95" stop-color="#010101"/></linearGradient><linearGradient id="b" x1="7.175" y1="-0.199" x2="8.169" y2="-0.199" gradientUnits="objectBoundingBox"><stop offset="0" stop-color="#e5c6d6"/><stop offset="0.42" stop-color="#ead4d0"/><stop offset="1" stop-color="#f0e9cb"/></linearGradient><linearGradient id="c" x1="0.386" y1="1.565" x2="0.777" y2="-2.231" xlink:href="#a"/><linearGradient id="d" x1="0.001" y1="0.5" x2="1" y2="0.5" xlink:href="#b"/><linearGradient id="e" x1="14.744" y1="0.5" x2="15.743" y2="0.5" xlink:href="#b"/><linearGradient id="f" x1="0" y1="0.5" x2="1" y2="0.5" xlink:href="#b"/><linearGradient id="g" x1="0" y1="0.5" x2="1" y2="0.5" xlink:href="#b"/><linearGradient id="h" x1="0.001" y1="0.501" x2="1" y2="0.501" xlink:href="#b"/><linearGradient id="i" x1="5.489" y1="0.425" x2="6.451" y2="0.425" xlink:href="#b"/><linearGradient id="j" x1="0" y1="0.499" x2="0.998" y2="0.499" xlink:href="#b"/><linearGradient id="k" x1="0.004" y1="0.499" x2="1.005" y2="0.499" xlink:href="#b"/><linearGradient id="l" x1="-0.006" y1="0.498" x2="0.999" y2="0.498" xlink:href="#b"/><linearGradient id="m" x1="0.001" y1="0.5" x2="1.001" y2="0.5" xlink:href="#b"/><linearGradient id="n" x1="0.188" y1="0.5" x2="1.188" y2="0.5" xlink:href="#b"/><linearGradient id="o" x1="0.001" y1="0.5" x2="1" y2="0.5" xlink:href="#b"/><linearGradient id="p" x1="0" y1="0.501" x2="1" y2="0.501" xlink:href="#b"/><linearGradient id="q" x1="-0.001" y1="0.498" x2="1.002" y2="0.498" xlink:href="#b"/><linearGradient id="r" x1="0.476" y1="1.128" x2="0.578" y2="-1.739" xlink:href="#a"/><linearGradient id="s" x1="0.42" y1="0.089" x2="0.676" y2="1.066" xlink:href="#b"/><linearGradient id="t" x1="0.001" y1="0.5" x2="1.002" y2="0.5" xlink:href="#b"/><linearGradient id="u" x1="-0.001" y1="0.5" x2="0.999" y2="0.5" xlink:href="#b"/><linearGradient id="v" x1="-0.001" y1="0.501" x2="0.999" y2="0.501" xlink:href="#b"/><linearGradient id="w" x1="0" y1="0.5" x2="1" y2="0.5" xlink:href="#b"/><linearGradient id="x" x1="-24.942" y1="3.696" x2="-23.878" y2="3.696" xlink:href="#b"/><linearGradient id="y" x1="-25.851" y1="2.599" x2="-24.93" y2="2.599" xlink:href="#b"/><linearGradient id="z" x1="0" y1="0.499" x2="0.997" y2="0.499" xlink:href="#b"/><linearGradient id="aa" x1="0.298" y1="1.03" x2="1.02" y2="-1.23" xlink:href="#a"/><linearGradient id="ab" x1="-3.605" y1="0.918" x2="-2.605" y2="0.918" xlink:href="#b"/><linearGradient id="ac" x1="-0.001" y1="0.5" x2="1.001" y2="0.5" xlink:href="#b"/><linearGradient id="ad" x1="0" y1="0.5" x2="1" y2="0.5" xlink:href="#b"/></defs><g transform="translate(-0.003 -0.012)"><path d="M184.5,150.627c-5.45,10.356-14.279,18.651-25.525,21.7-14.041,3.8-29.007-.767-43.469.779-9.143.972-17.842,4.372-26.774,6.566-27.428,6.749-59.621.449-77.248-21.61a49.59,49.59,0,0,1-3.114-4.386c-6.428-10.2-9.218-23.045-4.394-33.933,3.665-8.256,10.888-13.911,16.244-20.956C25,92.521,26.9,86.481,28.624,79c3.768-16.346,17.607-27.736,33.063-33.166,14.861-5.211,31.013-5.355,46.705-4.156,11.257.831,22.718,2.408,32.836,7.383,9.342,4.58,17.105,11.861,23.987,19.671,13.725,15.532,24.849,34.648,25.486,55.4A53.775,53.775,0,0,1,184.5,150.627Z" transform="translate(-1.54 -41.05)" fill="#fff" opacity="0.93"/><path d="M202.782,420.74c-.136,1.446-.277,2.909-.452,4.375-5.45,10.356-14.279,18.651-25.525,21.7-14.041,3.8-29.007-.767-43.469.779-9.143.972-17.842,4.372-26.774,6.566-27.428,6.749-59.621.449-77.248-21.61a49.583,49.583,0,0,1-3.114-4.386,9.62,9.62,0,0,1,3.879-1.579c12.354-2.493,28.761,1.2,41.461,1.385q42.436.615,84.8-2.571C160.479,425.084,202.6,422.665,202.782,420.74Z" transform="translate(-19.366 -315.538)" fill="#412d58" opacity="0.24"/><path d="M202.782,420.74c-.136,1.446-.277,2.909-.452,4.375-5.45,10.356-14.279,18.651-25.525,21.7-14.041,3.8-29.007-.767-43.469.779-9.143.972-17.842,4.372-26.774,6.566-27.428,6.749-59.621.449-77.248-21.61a49.583,49.583,0,0,1-3.114-4.386,9.62,9.62,0,0,1,3.879-1.579c12.354-2.493,28.761,1.2,41.461,1.385q42.436.615,84.8-2.571C160.479,425.084,202.6,422.665,202.782,420.74Z" transform="translate(-19.366 -315.538)" fill="#412d58" opacity="0.24"/><path d="M119.184,469.093c8.8.934,17.562-1.837,26.409-2.18,8.663-.335,17.227,1.662,25.846,2.585,6.538.7,13.124.784,19.7.867l36.889.463a13.727,13.727,0,0,0,6.1-.851c1.878-.887,3.35-2.951,2.865-4.959A440.648,440.648,0,0,1,183.6,464.2c-9.018-.6-18.008-1.363-27.024-2.147-7.885-.687-16.26-2.272-24.176-1.471-6.137.621-13.052,3.956-18.482,6.63C115.255,468.53,117.347,468.9,119.184,469.093Z" transform="translate(-82.783 -344.184)" fill="#412d58" opacity="0.55"/><path d="M152.693,176.354a5.5,5.5,0,0,0-2.2-1.74,6.58,6.58,0,0,0-5.541,0,5.7,5.7,0,0,0-3.175,4.472c-.058.648,0,1.3-.039,1.939-.152,2.25-1.532,4.222-2.089,6.408-.313,1.225-.366,2.516-.773,3.715a7.161,7.161,0,0,0-.751,2.771,3.552,3.552,0,0,0,.6,1.576c1.225,1.914,3.663,3.205,5.818,2.48.59-.2,1.128-.537,1.712-.759,1.582-.6,3.341-.313,5.037-.3a4.931,4.931,0,0,0,2.133-.36,3.089,3.089,0,0,0,1.687-3.073,8.385,8.385,0,0,0-.59-1.912,12.335,12.335,0,0,1-.709-5.414c.086-.931.277-1.853.277-2.787,0-1.236-.864-2.161-.682-3.289A4.856,4.856,0,0,0,152.693,176.354Z" transform="translate(-100.278 -137.159)" fill="#606161"/><path d="M152.887,176.262a5.541,5.541,0,0,0-2.194-1.737,6.586,6.586,0,0,0-5.541,0A5.688,5.688,0,0,0,141.98,179c-.061.648,0,1.3-.042,1.939-.15,2.25-1.532,4.222-2.089,6.405-.313,1.227-.366,2.518-.77,3.718a7.1,7.1,0,0,0-.751,2.771,3.485,3.485,0,0,0,.6,1.579c1.222,1.912,3.66,3.205,5.818,2.493.59-.2,1.128-.537,1.712-.759,1.585-.6,3.344-.313,5.037-.3a4.945,4.945,0,0,0,2.136-.36,3.1,3.1,0,0,0,1.687-3.073,8.459,8.459,0,0,0-.593-1.914,12.357,12.357,0,0,1-.709-5.411c.089-.931.277-1.853.277-2.787,0-1.236-.864-2.161-.682-3.291A4.9,4.9,0,0,0,152.887,176.262Z" transform="translate(-100.423 -137.096)" fill="#606161"/><path d="M150.65,206.446c.321-.815.851-1.54,1.108-2.377a12.255,12.255,0,0,0,.241-3.192,3.856,3.856,0,0,1,1.108-2.909,4.112,4.112,0,0,1,2.366-.726,6.223,6.223,0,0,1,3.369.51,5.444,5.444,0,0,1,2.466,4.6,18.693,18.693,0,0,0,.166,2.951,3,3,0,0,1,.141,1.089,1.964,1.964,0,0,1-.5.923,10.169,10.169,0,0,1-7.02,3.194c-.831.072-2.618.377-3.325-.188C149.9,209.591,150.293,207.35,150.65,206.446Z" transform="translate(-109.043 -153.939)" fill="url(#a)"/><path d="M170.66,219.32c.019-.33-.319-1.87-.319-2.2,0-.765.748-.294,1.449-.6s2.047-.4,2.133.357c.213,1.9.055,2.588.457,3.023a.913.913,0,0,1,.139,1.272,2.286,2.286,0,0,1-1.313.831,3.435,3.435,0,0,1-1.762-.3c-.41-.147-1.23-.438-1.335-.942S170.624,219.863,170.66,219.32Z" transform="translate(-123.396 -167.735)" fill="url(#b)"/><path d="M171.22,220.5s.277,1.6,1.59,1.784a3.632,3.632,0,0,0,2.086-.227l.05-1.939Z" transform="translate(-124.208 -170.5)" fill="url(#c)"/><path d="M157.2,409.65a42.376,42.376,0,0,0,.64,6.1,2.064,2.064,0,0,0,1.421,1.626,1.535,1.535,0,0,0,1.385-.6,3.748,3.748,0,0,0,.648-1.43c.554-2.025.152-12.3,1.058-16.479a1.144,1.144,0,0,0-.105-.77,1.329,1.329,0,0,0-.388-.418c-1.244-.953-5.405-1.729-5.887.488C155.673,399.521,157.091,408,157.2,409.65Z" transform="translate(-113.154 -298.181)" fill="url(#d)"/><path d="M190.939,415.263c-.255.712-.676,1.5-1.421,1.626a1.535,1.535,0,0,1-1.385-.6,3.749,3.749,0,0,1-.648-1.43,27.165,27.165,0,0,1-.7-6.245l-.36-10.234a1.543,1.543,0,0,1,.108-.77,1.33,1.33,0,0,1,.388-.418c1.244-.953,4.588-2.047,5.07.169C192.28,398.723,191.84,412.719,190.939,415.263Z" transform="translate(-135.191 -297.701)" fill="url(#e)"/><path d="M122.754,231.59a6.789,6.789,0,0,0-2.549,2.039,13.021,13.021,0,0,0-1.283,2.513c-3.53,8.544-5.328,17.92-10.489,25.591a7.023,7.023,0,0,0-1.238,3.646c-.028.576.022,1.286.554,1.535a1.316,1.316,0,0,0,1.061-.094,5.023,5.023,0,0,0,2.771-3.117,2.7,2.7,0,0,1,.277-.723c.1-.158.247-.277.36-.44a4.5,4.5,0,0,0,.5-2.277,9.638,9.638,0,0,1,1-2.926q2.668-5.721,5.488-11.359a31.78,31.78,0,0,0,1.817-4.084c.377-1.122.623-2.283.942-3.424C123.05,234.5,123.964,231.737,122.754,231.59Z" transform="translate(-77.916 -178.792)" fill="url(#f)"/><path d="M190.422,228.92s6.065,1.806,7.818,6.8,7.151,22.394,7.151,22.394,2.92,3.07,2.809,4.031-.15,2.951-1.549,2.477-3.926-2.191-4.128-3.507a21,21,0,0,1-.1-3.338l-7.106-17.1-2.493-3.136S189.045,230.521,190.422,228.92Z" transform="translate(-137.871 -176.862)" fill="url(#g)"/><path d="M278.239,451.8a3.034,3.034,0,0,0,.191,1.618,1.438,1.438,0,0,0,2.471.111,2.77,2.77,0,0,0,.346-1.02,43.321,43.321,0,0,0,.745-6.123,1.347,1.347,0,0,0-1.574-1.8,3.738,3.738,0,0,0-1.906.346c-.64.421-.388.909-.332,1.612a37.31,37.31,0,0,1,.058,5.25Z" transform="translate(-201.466 -332.771)" fill="url(#h)"/><path d="M298.6,450.172a3.019,3.019,0,0,0,.38,1.585,1.443,1.443,0,0,0,2.469-.186,2.82,2.82,0,0,0,.222-1.053,42.822,42.822,0,0,0,0-6.167,1.338,1.338,0,0,0-1.757-1.6,3.747,3.747,0,0,0-1.853.571c-.587.493-.277.948-.138,1.637a37.485,37.485,0,0,1,.679,5.209Z" transform="translate(-215.657 -331.416)" fill="url(#i)"/><path d="M306.775,373.63c.776,1.535,1.216,3.217,1.909,4.79a8.146,8.146,0,0,1,.884,2.563,2.112,2.112,0,0,1-1.225,2.216,1.535,1.535,0,0,1-1.867-1.02,5.491,5.491,0,0,1-.064-1.227,7.4,7.4,0,0,0-.942-2.771,23.746,23.746,0,0,1-2.216-6.827c-.161-1.5,1.108-.693,1.757-.1A8.1,8.1,0,0,1,306.775,373.63Z" transform="translate(-219.651 -279.216)" fill="url(#j)"/><path d="M280.907,324.475a5.073,5.073,0,0,0-2.466,2.746,15.707,15.707,0,0,0-.49,3.106,10.883,10.883,0,0,1-.679,2.552,4.938,4.938,0,0,0-.6,2.338,2.8,2.8,0,0,0,.77,1.51,5.535,5.535,0,0,0,5.3,1.432,3.017,3.017,0,0,0,1.2-.526,3.189,3.189,0,0,0,.986-2.169,11.9,11.9,0,0,1,.346-2.413,8.123,8.123,0,0,1,.79-1.535,26.591,26.591,0,0,0,1.25-2.377,3.945,3.945,0,0,0,.338-.942,2.577,2.577,0,0,0-1.086-2.493c-.457-.327-1-.515-1.477-.806-.319-.194-.609-.432-.939-.607A3.844,3.844,0,0,0,280.907,324.475Z" transform="translate(-200.433 -245.606)" fill="#606161"/><path d="M346.562,333.7a.446.446,0,0,0-.166.385.8.8,0,0,0,.155.4,1.385,1.385,0,0,0,.662.515.3.3,0,0,0,.294,0,.277.277,0,0,0,.08-.166,1.015,1.015,0,0,0-.075-.554C347.393,333.949,346.995,333.394,346.562,333.7Z" transform="translate(-250.85 -252.548)" fill="url(#k)"/><path d="M375.376,329.985a.463.463,0,0,1,.418-.158.379.379,0,0,1,.238.252.953.953,0,0,1,.025.355,1.571,1.571,0,0,1-.219.8,1.94,1.94,0,0,1-.432.407.233.233,0,0,1-.127.058c-.105,0-.155-.125-.169-.227A1.728,1.728,0,0,1,375.376,329.985Z" transform="translate(-271.576 -249.809)" fill="url(#l)"/><path d="M345.149,441.82l-.709,10.171a3,3,0,0,0,1.873.2c.709-.3,2.427-10.473,2.427-10.473Z" transform="translate(-249.437 -330.705)" fill="url(#m)"/><path d="M376.343,439.81l.706,10.171a2.992,2.992,0,0,1-1.87.2c-.706-.3-2.43-10.473-2.43-10.473Z" transform="translate(-269.904 -329.252)" fill="url(#n)"/><path d="M344.246,412.7s-.488,6.84-.133,7.245,4.6.1,4.6.1l1.416-3.441,1.416,3.793s4.156,0,4.352-.3-.061-8.442-.867-8.8S344.246,412.7,344.246,412.7Z" transform="translate(-249.107 -308.675)" fill="#606161"/><path d="M314.862,386.995a4.743,4.743,0,0,0-.734,1.515,1.61,1.61,0,0,0,.421,1.557,1.853,1.853,0,0,0,1.263.36,1.552,1.552,0,0,0,1.421-.665,3.822,3.822,0,0,0,.213-.978,5.1,5.1,0,0,1,1.7-2.269,8.663,8.663,0,0,0,1.153-1.446,3.47,3.47,0,0,0,.648-2.607,1.784,1.784,0,0,0-1.288-1.277c-.845-.169-1.177.554-1.629,1.153C316.893,383.831,315.876,385.413,314.862,386.995Z" transform="translate(-227.484 -286.923)" fill="url(#o)"/><path d="M337.9,351.2a7.809,7.809,0,0,0-4.075,1.133,6.387,6.387,0,0,0-1.64,1.992c-.978,1.679-1.579,2.945-2.493,4.66-.488.917,2.6,2.748,2.6,2.748a1.574,1.574,0,0,0,.767-.806c.194,2.521.446,4.865.64,7.386a1.075,1.075,0,0,0,.175.61,1.11,1.11,0,0,0,1.022.2l8.974-1.288a.911.911,0,0,0,.981-1.108l.108-6.926a5.7,5.7,0,0,1,.205-1.707,5,5,0,0,1,.862-1.443c.618-.8.934-.144,1.64-.864a.8.8,0,0,0,.277-.477.773.773,0,0,0-.23-.485c-.895-1.108-.54-3.02-1.438-4.131C344.125,351.794,340.316,350.994,337.9,351.2Z" transform="translate(-238.738 -264.903)" fill="#412d58"/><path d="M358.556,343.987a1.884,1.884,0,0,0,.416,1.781,1.688,1.688,0,0,0,.682.3,2.02,2.02,0,0,0,.554.069,1.776,1.776,0,0,0,1.468-1.263,5.231,5.231,0,0,0,.141-2.036,2.7,2.7,0,0,0-.213-1.058,1.6,1.6,0,0,0-1.546-.8C358.254,341.139,358.758,342.693,358.556,343.987Z" transform="translate(-259.608 -257.871)" fill="url(#p)"/><path d="M440.525,333.4a27.288,27.288,0,0,0-.984,6.464q-.851,12.293-1.385,24.6c-.127,2.9.463,6.719-2.067,8.791a10.067,10.067,0,0,0-2.083,1.7.6.6,0,0,0-.136.324c0,.357.471.477.831.479q2.061,0,4.125-.039a2.117,2.117,0,0,0,1.712-.576,2.863,2.863,0,0,0,.319-1.535c.119-1.341,1.233-2.6,1.538-3.909,4.375-18.823,4.912-23.272,6.768-26.68a30.8,30.8,0,0,1,1.82,7.588c.371,4.233,1.144,7.48,1.355,11.736.1,2.047-.019,4.156.2,6.192a33.016,33.016,0,0,0,1.477,6.151.95.95,0,0,0,1.056.831,36.853,36.853,0,0,0,5.361.069,1.447,1.447,0,0,0,.7-.163,1.05,1.05,0,0,0,.163-1.407,4.636,4.636,0,0,0-1.158-1.053,6.065,6.065,0,0,1-2.194-5.239,27.349,27.349,0,0,0,.169-3.28c-.03-1.36-.025-2.723,0-4.087.108-5.452.554-10.9.5-16.346A55.479,55.479,0,0,0,457.674,334a2.045,2.045,0,0,0-.6-1.28,2.024,2.024,0,0,0-1.31-.294H445.334C443.586,332.425,441.941,332.386,440.525,333.4Z" transform="translate(-314.09 -251.692)" fill="#606161"/><path d="M424.67,236.527l1.768-5.649a15.963,15.963,0,0,1,2.577-5.577c2-2.4,5.181-3.4,8.179-4.289a5.286,5.286,0,0,1,2.153-.177c2.493.316,5.765-.382,8.231,1.025a9.839,9.839,0,0,1,3.242,3.6,52.469,52.469,0,0,1,7.594,28.564,1.313,1.313,0,0,1-1.147,1.646,6.959,6.959,0,0,1-2.43-.438,1.768,1.768,0,0,1-1.335-1.593c-.161-2.3.089-4.056-.393-6.616-.745-3.965-1.662-8.065-4.156-11.229l.277,12.348a8.865,8.865,0,0,1-.277,3,5.859,5.859,0,0,1-3.879,3.532,13.68,13.68,0,0,1-5.389.377,41.976,41.976,0,0,1-5.444-.831c-1.463-.319-3.048-.8-3.879-2.036a5.667,5.667,0,0,1-.74-3.264,22.44,22.44,0,0,1,.745-5.56c.712-2.726,1.9-5.79.41-8.184a17.844,17.844,0,0,0-2.671,8.564c-.158,1.682-1.981,7.09-4.114,7.336a3.169,3.169,0,0,1-2.859-1.136c-1.028-1.338-.5-2.942.014-4.364C422.47,241.954,423.52,240.206,424.67,236.527Z" transform="translate(-304.455 -170.988)" fill="#412d58"/><path d="M485.852,214.5a5.047,5.047,0,0,1-1.092,1.554,1.455,1.455,0,0,1-1.338.474,4.582,4.582,0,0,1-3.325-2.3,2.041,2.041,0,0,1-.26-.554,2.446,2.446,0,0,1,.161-1.15,11.181,11.181,0,0,0,.277-2.3h0c0-.114-.014-.244-.014-.388a1.883,1.883,0,0,1,.172-1.164c.532-.864,2.244-.964,3.092-.776a2.319,2.319,0,0,1,1.582,1.047,2.125,2.125,0,0,1,.213.892,9.912,9.912,0,0,1,0,1.15,3.693,3.693,0,0,0,.388,1.884,3.062,3.062,0,0,1,.175.3.784.784,0,0,1,.114.244A1.662,1.662,0,0,1,485.852,214.5Z" transform="translate(-347.313 -161.608)" fill="url(#q)"/><path d="M487.035,218.457a6.21,6.21,0,0,1-3.408.144c-1.682-.33-2.1-2.269-2.2-3.133h0a3.834,3.834,0,0,1-.028-.388h5.073a9.9,9.9,0,0,1,0,1.15,3.694,3.694,0,0,0,.388,1.884,3.044,3.044,0,0,1,.175.3Z" transform="translate(-348.452 -166.856)" fill="url(#r)"/><path d="M470.528,179.07a9.582,9.582,0,0,0,1.768,4.787,4.844,4.844,0,0,0,4.524,1.92,6.927,6.927,0,0,0,1.446-.5,2.494,2.494,0,0,0,.74-.429,2.578,2.578,0,0,0,.521-.856,14.752,14.752,0,0,0,.787-2.045,14.134,14.134,0,0,0,.391-2.6,10.663,10.663,0,0,0,0-2.574,5.646,5.646,0,0,0-1.7-3.186,2.031,2.031,0,0,0-.554-.4,2.469,2.469,0,0,0-.853-.161,12.7,12.7,0,0,0-2.715.028,4.843,4.843,0,0,0-2.471,1.053,5.463,5.463,0,0,0-1.46,2.374c-.147.418-.277.831-.427,1.255A2.9,2.9,0,0,0,470.528,179.07Z" transform="translate(-340.533 -136.409)" fill="url(#s)"/><path d="M467.237,163.321a5.342,5.342,0,0,1,.094-1.172.637.637,0,0,1,.247-.432,1.314,1.314,0,0,1,.277-.094c.474-.141.756-.607,1.044-1.008a6.311,6.311,0,0,1,9.029-1.238,3.43,3.43,0,0,1,.831.884c.252.41.377.892.659,1.283.321.446.831.74,1.139,1.194a2.643,2.643,0,0,1,.155,2.313c-.258.759-.7,1.438-1.025,2.169s-.634,1.607-1.385,1.859a1.175,1.175,0,0,1-.044-.643,11.913,11.913,0,0,0-.122-3.363.435.435,0,0,0-.111-.26.429.429,0,0,0-.277-.066c-.6,0-1.186.1-1.781.083-1.385-.044-2.685-.7-4.056-.925a2.549,2.549,0,0,0-1.662.18,2.829,2.829,0,0,0-.928,1.017,4.466,4.466,0,0,0-.743,1.793,6.843,6.843,0,0,1-.089.831c-.166.676-.49.407-.687-.072a6.589,6.589,0,0,1-.385-1.413A17.056,17.056,0,0,1,467.237,163.321Z" transform="translate(-338.209 -125.597)" fill="#606161"/><path d="M541.468,346.49a1.086,1.086,0,0,0,.244.46.931.931,0,0,0,.831.15,3.2,3.2,0,0,0,1.784-1.153,6.3,6.3,0,0,0,1-1.909,3.994,3.994,0,0,0,.291-1.485,3.378,3.378,0,0,0-.324-1.236,3.421,3.421,0,0,0-1.923-1.939,2.3,2.3,0,0,0-2.807,1.662C540.2,342.855,540.889,344.808,541.468,346.49Z" transform="translate(-391.151 -256.664)" fill="url(#t)"/><path d="M348.9,321.325a4.582,4.582,0,0,0,.917,1.5,2.926,2.926,0,0,0,2.144.853,3.774,3.774,0,0,0,3.028-2.064,8.408,8.408,0,0,0,.848-3.707,5.752,5.752,0,0,0-.224-2.2,3.7,3.7,0,0,0-2.693-2.269,4.666,4.666,0,0,0-3.5.74,3.007,3.007,0,0,0-.864.831,4.115,4.115,0,0,0-.5,1.718,3.2,3.2,0,0,0-.05,1.191c.083.324.158.623.211.959A10.593,10.593,0,0,0,348.9,321.325Z" transform="translate(-251.987 -237.907)" fill="url(#u)"/><path d="M341.716,312.429a5.718,5.718,0,0,1-.756-2.46c0-.321.039-.7.319-.862a2.167,2.167,0,0,1,.324-.122,2.338,2.338,0,0,0,.723-.6,6.714,6.714,0,0,1,1.693-1.108,3.827,3.827,0,0,1,.959-.388,3.7,3.7,0,0,1,.831-.033,4.793,4.793,0,0,1,3.048.87c.119.105.23.224.36.319.4.294.959.341,1.338.668a1.706,1.706,0,0,1,.418.6,3.8,3.8,0,0,1,.316,2.216,7.94,7.94,0,0,1-.235.934l-.3,1.031q-.64-1.6-1.366-3.153a8.082,8.082,0,0,1-1.9.468,8.839,8.839,0,0,0-2.239.155,3.879,3.879,0,0,0-1.316.911,2.236,2.236,0,0,0-.452.532c-.352.643,0,1.435-.31,2.067-.277-.075-.593-.712-.759-.948A11.844,11.844,0,0,1,341.716,312.429Z" transform="translate(-246.921 -233.197)" fill="#606161"/><path d="M392.045,332.507a33.774,33.774,0,0,1-3.441,1.618c-.862.252-.069,4.183.709,4s6.02-4.156,6.425-4.4,1.214-.809,1.214-.809a2.985,2.985,0,0,0,2.43-1.568,2.65,2.65,0,0,0-.255-3.391c-.2-.05-.995-.759-1.5-.59s-1.823,1.923-1.823,1.923S393.807,331.995,392.045,332.507Z" transform="translate(-281.094 -248.012)" fill="url(#v)"/><path d="M418.11,328.438a2.572,2.572,0,0,0,.407,1.51,1.363,1.363,0,0,0,2.2-.066,12.705,12.705,0,0,0,.576-1.524c.249-.485.767-.878.981-1.413a1.961,1.961,0,0,0-2.388-2.427C418.332,325.149,418.049,326.981,418.11,328.438Z" transform="translate(-302.691 -245.899)" fill="url(#w)"/><path d="M338.138,474.661a2.492,2.492,0,0,0-.643.025,1.5,1.5,0,0,0-.421.224l-1.535,1.05c-.227.155-.479.355-.479.629a.554.554,0,0,0,.122.335,1.585,1.585,0,0,0,1.385.374l2.275-.133a.853.853,0,0,0,.9-.526c.277-.471.792-1.208.421-1.745C339.714,474.248,338.748,474.661,338.138,474.661Z" transform="translate(-242.656 -354.426)" fill="#606161"/><path d="M380.17,474.661a2.508,2.508,0,0,1,.646.025,1.583,1.583,0,0,1,.421.224l1.535,1.05c.227.155.477.355.479.629a.554.554,0,0,1-.125.335,1.58,1.58,0,0,1-1.385.374l-2.275-.133a.851.851,0,0,1-.9-.526c-.277-.471-.8-1.208-.424-1.745C378.594,474.248,379.561,474.661,380.17,474.661Z" transform="translate(-273.708 -354.426)" fill="#606161"/><path d="M263.934,371.9a13.386,13.386,0,0,1-.554,2.009c-.779,2.383-1.557,4.765-2.358,7.14a65.2,65.2,0,0,1-2.732,7.1c2.917,1.355,6.04,2.726,9.231,2.308,1.125-.147,2.216-.518,3.344-.662s2.333-.053,3.5-.15a5.1,5.1,0,0,0,3.2-1.233l-1.684-3.291c-.615-1.2-1.23-2.408-1.732-3.663a21.781,21.781,0,0,1-1.529-7.514,21.532,21.532,0,0,0-.224-3.99,3.111,3.111,0,0,0-.831-1.679,3.692,3.692,0,0,0-2.239-.759c-1.153-.111-3.654-.626-4.668.114S264.119,370.806,263.934,371.9Z" transform="translate(-187.155 -276.858)" fill="#412d58"/><path d="M284.621,347.422a.4.4,0,0,0-.191.324.75.75,0,0,0,.094.374,1.26,1.26,0,0,0,.529.526.277.277,0,0,0,.26.025.241.241,0,0,0,.089-.136.908.908,0,0,0,0-.5C285.316,347.73,285.034,347.2,284.621,347.422Z" transform="translate(-206.053 -262.495)" fill="url(#x)"/><path d="M310.251,347.333a.4.4,0,0,1,.388-.094.33.33,0,0,1,.18.247.83.83,0,0,1-.014.319,1.407,1.407,0,0,1-.277.682,1.633,1.633,0,0,1-.424.313.194.194,0,0,1-.122.039c-.091,0-.119-.127-.122-.219A1.479,1.479,0,0,1,310.251,347.333Z" transform="translate(-224.435 -262.389)" fill="url(#y)"/><path d="M291.3,357.793a1.682,1.682,0,0,0,.371,1.585,1.543,1.543,0,0,0,.607.277,1.8,1.8,0,0,0,.5.061,1.6,1.6,0,0,0,1.31-1.122,4.643,4.643,0,0,0,.125-1.815,2.416,2.416,0,0,0-.191-.942,1.43,1.43,0,0,0-1.385-.706C291.031,355.255,291.483,356.637,291.3,357.793Z" transform="translate(-210.989 -268.1)" fill="url(#z)"/><path d="M293.15,361.789a1.613,1.613,0,0,0,.629.152.8.8,0,0,0,.587-.238,1.169,1.169,0,0,0,.205-.831.754.754,0,0,0-.053-.3.612.612,0,0,0-.313-.277,2.28,2.28,0,0,0-.906-.169,6.572,6.572,0,0,0-1.069.053c-.377.047-.574.072-.371.468A2.532,2.532,0,0,0,293.15,361.789Z" transform="translate(-211.365 -271.711)" fill="url(#aa)"/><path d="M286.928,337.71a4.07,4.07,0,0,0,.648,1.421,2.6,2.6,0,0,0,1.8.989,3.362,3.362,0,0,0,2.9-1.5,7.46,7.46,0,0,0,1.15-3.183,5.1,5.1,0,0,0,.039-1.964,3.28,3.28,0,0,0-2.133-2.3,4.131,4.131,0,0,0-3.175.277,2.632,2.632,0,0,0-.845.64,3.7,3.7,0,0,0-.626,1.463,2.828,2.828,0,0,0-.172,1.047,8.589,8.589,0,0,1,.08.87,9.559,9.559,0,0,0,.33,2.233Z" transform="translate(-207.561 -250.649)" fill="url(#ab)"/><path d="M285.435,333.62a1.025,1.025,0,0,0,.452.726,1.189,1.189,0,0,0,.463.091,3.264,3.264,0,0,0,1.352-.116,1.108,1.108,0,0,0,.77-1.022c-.044.247-.053.568.175.67a.554.554,0,0,0,.213.039l1,.044a2.388,2.388,0,0,0,.831-.061.831.831,0,0,0,.579-.554,1.113,1.113,0,0,0,.92.393,1.059,1.059,0,0,0,.526-.072c.327-.166.416-.585.465-.948a3.455,3.455,0,0,0-.028-1.571,3.07,3.07,0,0,0-.978-1.266,4.247,4.247,0,0,0-1.133-.77,4.062,4.062,0,0,0-1.712-.236,9.67,9.67,0,0,0-1.909.252,3.178,3.178,0,0,0-1.557.751c-.49.5-.4.97-.4,1.593A8.937,8.937,0,0,0,285.435,333.62Z" transform="translate(-206.731 -249.183)" fill="#606161"/><path d="M253.317,351.184a22.154,22.154,0,0,0-3.153-3.325,1.593,1.593,0,0,0-.884-.38,1.218,1.218,0,0,0-1.108,1.164,3.282,3.282,0,0,0,.452,1.693,19.028,19.028,0,0,0,6.926,7.605,1.263,1.263,0,0,0,.69.255c.5-.017.8-.554.936-1.025a6.176,6.176,0,0,0,.222-2.283c-.083-.923-.1-1.158-.889-1.455a7.951,7.951,0,0,1-3.192-2.25Z" transform="translate(-179.836 -262.574)" fill="url(#ac)"/><path d="M272.2,473.066a14.512,14.512,0,0,0-1.225,1.031c-.186.155-.393.335-.393.576a.526.526,0,0,0,.3.438,1.42,1.42,0,0,0,.535.133,10.619,10.619,0,0,0,2.635-.064,2.771,2.771,0,0,0,.7-.177,1.97,1.97,0,0,0,.934-.978C276.7,471.839,273.278,472.343,272.2,473.066Z" transform="translate(-196.04 -352.92)" fill="#606161"/><path d="M303.433,473.066a15,15,0,0,1,1.233,1.031c.183.155.391.335.391.576a.521.521,0,0,1-.3.438,1.408,1.408,0,0,1-.535.133,10.622,10.622,0,0,1-2.635-.064,2.771,2.771,0,0,1-.7-.177,1.981,1.981,0,0,1-.934-.978C298.931,471.839,302.356,472.343,303.433,473.066Z" transform="translate(-217.141 -352.92)" fill="#606161"/><path d="M142.567,229.154a10.315,10.315,0,0,1-.831,5.594,19.6,19.6,0,0,0-.975,2.164c-1,3.181,1.3,6.649.513,9.882-2.216,9.107-6.339,17.806-6.669,27.17a1.164,1.164,0,0,0,.119.682,1.216,1.216,0,0,0,.742.416c5.818,1.587,11.913,3.12,17.781,1.8a38.026,38.026,0,0,0,7.566-2.879,2.412,2.412,0,0,0,1.385-1.164,2.294,2.294,0,0,0,.033-1,38.666,38.666,0,0,0-2.07-9.4c-1.222-3.181-3.1-6.059-4.591-9.121s-2.621-6.458-2.169-9.835c.3-2.241,1.263-4.6.33-6.649a13,13,0,0,0-1.274-1.939,9.051,9.051,0,0,1-1.521-4.466c-.047-.72-.064-1.568-.654-1.986-.734-.515-1.729.036-2.416.612s-1.56,1.233-2.388.892a4.371,4.371,0,0,1-1.061-.892A2.024,2.024,0,0,0,142.567,229.154Z" transform="translate(-97.73 -176.356)" fill="#412d58"/><path d="M161.984,464.15l-.144.208" transform="translate(-117.426 -346.921)" fill="none"/><path d="M154.44,464.46a.637.637,0,0,0-.471-.031c-.172.086-.216.3-.263.485a3.956,3.956,0,0,1-1.69,2.216,8.191,8.191,0,0,0-1.061.756,1.441,1.441,0,0,0-.507,1.153.246.246,0,0,0,.042.125.258.258,0,0,0,.18.064,29,29,0,0,0,3.291.019,6.23,6.23,0,0,0,3.208-.69.932.932,0,0,0,.277-.258,1.108,1.108,0,0,0,.122-.626v-1.89c0-.33.18-1.369-.144-1.546s-1.017.3-1.322.355A3.779,3.779,0,0,1,154.44,464.46Z" transform="translate(-109.189 -346.957)" fill="#606161"/><path d="M188.864,462.2a3.462,3.462,0,0,0,2.613-.025c.172-.091.38-.211.554-.114a.424.424,0,0,1,.158.2,15.4,15.4,0,0,1,.371,1.781,3.225,3.225,0,0,0,1.452,1.482,2.066,2.066,0,0,1,.618.5.659.659,0,0,1,.061.743.95.95,0,0,1-.756.3,33.518,33.518,0,0,1-4.253.044,1.352,1.352,0,0,1-.524-.1c-.166-.078-.3-.219-.457-.307a3.645,3.645,0,0,1-.479-.233,1.128,1.128,0,0,1-.349-.59,6.791,6.791,0,0,1-.277-2.74C187.7,462.224,187.928,461.911,188.864,462.2Z" transform="translate(-136.02 -345.388)" fill="#606161"/><path d="M166.434,184.234a2.747,2.747,0,0,1,2.275,2.1c.294,1.806.7,8.035-1.751,8.866s-4.782-2.042-5.247-3.208S159.669,183.359,166.434,184.234Z" transform="translate(-116.976 -144.505)" fill="url(#ad)"/><path d="M158.646,185.439c.133-.524.72-.767,1.23-.956a6.427,6.427,0,0,0,2.1-1.155,2.815,2.815,0,0,0,1.008-2.108,1.615,1.615,0,0,0,.923,1.061c.432.222.909.346,1.333.585a2.818,2.818,0,0,1,1.164,1.28.554.554,0,0,0,.208.291c.227.119.465-.15.554-.391a2.992,2.992,0,0,0-.277-2.305,8.865,8.865,0,0,0-1.449-1.881,4.2,4.2,0,0,0-.959-.831,2.984,2.984,0,0,0-1.956-.255,5.153,5.153,0,0,0-4.239,6" transform="translate(-114.798 -140.562)" fill="#606161"/><path d="M273.422,160.649s2.128-6.957,7.633-6.1,6.439,5.051,6.439,5.051,2.939-7.68,10.6-4.815c8.985,3.358,1.856,13.828.972,14.529s-12.5,11.75-12.5,11.75-12.19-12.218-12.872-13.487A8.6,8.6,0,0,1,273.422,160.649Z" transform="translate(-197.677 -122.807)" fill="red" opacity="0.4"/></g></svg>