<svg xmlns="http://www.w3.org/2000/svg" width="111.033" height="104.094" viewBox="0 0 111.033 104.094"><path d="M13.012,68.047h6.506V87.564H13.012Zm39.035,0h6.506V87.564H52.047Zm13.012,0h6.506V87.564H65.059ZM39.035,94.07h6.506v19.518H39.035ZM26.023,87.564H45.541V68.047H26.023Zm6.506-13.012h6.506v6.506H32.529Zm0,19.518H13.012v19.518H32.529Zm-6.506,13.012H19.518v-6.506h6.506Zm26.023,6.506H71.564V94.07H52.047Zm6.506-13.012h6.506v6.506H58.553ZM87.829,38.771a3.253,3.253,0,1,1-3.253,3.253A3.249,3.249,0,0,1,87.829,38.771ZM84.576,16A26.141,26.141,0,0,0,62.044,29.012H8.414L0,37.426v9.195L9.759,56.38l6.506-6.506L22.77,56.38l6.506-6.506,6.506,6.506,6.506-6.506,5.161,5.161H62.044A26.2,26.2,0,0,0,84.576,68.047c14.356,0,26.457-11.667,26.457-26.023S98.932,16,84.576,16Zm3.253,35.782a9.759,9.759,0,1,1,9.759-9.759A9.773,9.773,0,0,1,87.829,51.782ZM6.506,68.047h6.506V61.541H0V74.553H6.506Zm6.506,45.541H6.506v-6.506H0v13.012H13.012Zm71.564,6.506V107.082H78.07v6.506H71.564v6.506Z" transform="translate(0 -16)" fill="#fff"/></svg>