<svg xmlns="http://www.w3.org/2000/svg" width="112.2" height="112.2" viewBox="0 0 112.2 112.2"><path d="M25.108,35.135H37.131a2,2,0,0,0,0-3.992H25.108a2,2,0,1,0,0,3.992Zm22.05,0H65.193a2,2,0,0,0,0-3.992H47.158a2,2,0,0,0,0,3.992ZM25.108,57.161H89.239a2,2,0,0,0,0-3.992H25.108a2,2,0,1,0,0,3.992Zm0,8.031H53.169a2,2,0,0,0,0-3.992H25.108a2,2,0,0,0,0,3.992Zm0,16.015H53.169a2,2,0,0,0,0-3.992H25.108a2,2,0,0,0,0,3.992Zm0,16.039H53.169a2,2,0,0,0,0-3.992H25.108a2,2,0,1,0,0,3.992Zm0,16.039H53.169a2,2,0,0,0,0-3.992H25.108a2,2,0,0,0,0,3.992Zm0-94.189a1.994,1.994,0,0,1,2-2h76.154a1.994,1.994,0,0,1,2,2V59.862l-1.2-.517a2.09,2.09,0,0,0-1.6,0l-1.2.517v-12.7c0-.047-.023-.094-.023-.141a1.829,1.829,0,0,0-.094-.493.3.3,0,0,1-.023-.141.181.181,0,0,0-.047-.07,2,2,0,0,0-.4-.587L76.629,21.679a2,2,0,0,0-.587-.4c-.023-.023-.047-.023-.07-.047-.023,0-.094-.023-.141-.023a1.829,1.829,0,0,0-.493-.094c-.047,0-.094-.023-.141-.023H25.108Zm52.108,8.853L94.428,45.162H79.235a1.994,1.994,0,0,1-2-2V27.949ZM95.25,129.3H19.1a1.994,1.994,0,0,1-2-2V27.1a1.994,1.994,0,0,1,2-2H73.2V43.142a6.023,6.023,0,0,0,6.012,6.012H97.246V61.6l-6.458,2.794a2.032,2.032,0,0,0,.446-1.2,1.994,1.994,0,0,0-2-2H61.177a2,2,0,0,0,0,3.992H88.934l-9.276,4.016H25.108a2,2,0,1,0,0,3.992H73.224c0,.023-.023.07-.023.094v3.922H61.177a2,2,0,0,0,0,3.992H73.2v4.016H25.108a2,2,0,0,0,0,3.992H73.2v4.016H61.177a2,2,0,0,0,0,3.992H73.2v4.016H25.108a2,2,0,1,0,0,3.992H73.458a20.123,20.123,0,0,0,1.01,4.016H61.177a2,2,0,0,0,0,3.992H76.488a21.177,21.177,0,0,0,3.358,4.016H25.108a2,2,0,0,0,0,3.992H85.223l10.919,7.773A1.6,1.6,0,0,1,95.25,129.3Zm34.05-27.029a16.394,16.394,0,0,1-6.9,13.315l-19.138,13.62L84.12,115.586a16.361,16.361,0,0,1-6.9-13.315V74.633l3.616-1.573.047-.023,22.379-9.675L129.3,74.609ZM102.46,68.057,82.429,76.723a2.005,2.005,0,0,0-1.2,1.832v23.717a12.4,12.4,0,0,0,5.237,10.051l15.663,11.154a2.012,2.012,0,0,0,2.325,0l15.663-11.154a12.4,12.4,0,0,0,5.237-10.051V78.554a1.981,1.981,0,0,0-1.2-1.832l-20.031-8.665A2.269,2.269,0,0,0,102.46,68.057Zm18.833,11.835v22.379a8.38,8.38,0,0,1-3.546,6.786l-14.489,10.309L88.769,109.058a8.38,8.38,0,0,1-3.546-6.786v-22.4l18.035-7.8ZM92.432,97.646a2.028,2.028,0,0,0-2-.235,1.972,1.972,0,0,0-1.2,1.6,1.944,1.944,0,0,0,.8,1.832l8.008,6.012a2,2,0,0,0,2.771-.352l16.039-20.031a2,2,0,1,0-3.123-2.513L98.914,102.483Z" transform="translate(-17.1 -17.1)" fill="#fff"/></svg>