<svg xmlns="http://www.w3.org/2000/svg" width="146.276" height="146.276" viewBox="0 0 146.276 146.276"><path d="M0,0H146.276V146.276H0Z" fill="none"/><path d="M44.664,58.33C30.4,58.33,2,65.461,2,79.662V90.328H87.328V79.662C87.328,65.461,58.926,58.33,44.664,58.33Zm-28.4,19.808c5.12-3.535,17.492-7.619,28.4-7.619s23.282,4.084,28.4,7.619Zm28.4-30.474A21.332,21.332,0,1,0,23.332,26.332,21.355,21.355,0,0,0,44.664,47.664Zm0-30.474a9.142,9.142,0,1,1-9.142,9.142A9.13,9.13,0,0,1,44.664,17.19ZM87.572,58.7c7.07,5.12,11.946,11.946,11.946,20.966V90.328H123.9V79.662C123.9,67.35,102.565,60.341,87.572,58.7ZM81.233,47.664A21.332,21.332,0,1,0,81.233,5a21,21,0,0,0-9.142,2.133,33.285,33.285,0,0,1,0,38.4A21,21,0,0,0,81.233,47.664Z" transform="translate(10.19 25.474)" fill="#fff"/></svg>